# Blender 5.1.0
# www.blender.org
mtllib 8inchgunv3.mtl
o body2_model0.014
v 201.851318 44.056519 -1387.952148
v 193.055206 46.402710 -1387.936523
v 198.804428 38.765442 -1387.954102
v 208.296570 37.626221 -1387.971680
v 203.012161 34.567322 -1387.965820
v 207.735458 37.009460 -1247.534180
v 201.632462 43.100830 -1247.516602
v 206.974243 47.939392 -166.613281
v 195.185181 51.098999 -166.589844
v 193.302612 45.324768 -1247.497070
v 183.396103 47.939331 -166.573242
v 184.975922 43.085999 -1247.487305
v 184.265457 44.036682 -1387.922852
v 193.061844 40.296570 -1387.942383
v 187.324448 38.752197 -1387.932617
v 177.835190 37.593140 -1387.918945
v 183.126221 34.545898 -1387.930664
v 175.487228 28.796875 -1387.924805
v 178.883011 36.983093 -1247.483398
v 174.766663 39.309875 -166.567383
v 171.608475 27.520813 -166.574219
v 176.659042 28.651184 -1247.487305
v 174.766663 15.733276 -166.591797
v 178.899445 20.324402 -1247.500977
v 177.853348 20.005310 -1387.936523
v 181.593414 28.803406 -1387.934570
v 183.137756 23.064270 -1387.944336
v 184.298615 13.575073 -1387.956055
v 187.345795 18.866150 -1387.954102
v 193.093277 11.228821 -1387.973633
v 185.002457 14.233093 -1247.518555
v 183.396103 7.102295 -166.617188
v 195.185181 3.944153 -166.640625
v 193.332596 12.009277 -1247.534180
v 206.974243 7.102295 -166.657227
v 201.658981 14.248047 -1247.547852
v 201.884476 13.594849 -1387.985352
v 193.086639 17.335022 -1387.965820
v 198.825760 18.879333 -1387.973633
v 208.314743 20.038391 -1387.989258
v 203.023697 23.085754 -1387.977539
v 210.662689 28.834717 -1387.985352
v 207.751907 20.350952 -1247.551758
v 215.603394 15.733337 -166.663086
v 218.761581 27.520752 -166.656250
v 209.975861 28.682617 -1247.545898
v 215.603394 39.309875 -166.638672
v 204.556519 28.828186 -1387.973633
v 193.884186 28.318787 -919.573242
v -181.883957 40.296570 -1387.295898
v -181.086411 28.318848 -918.926758
v -176.144836 38.752197 -1387.305664
v -187.624527 38.765503 -1387.286133
v -173.085846 44.036682 -1387.305664
v -181.877335 46.402771 -1387.288086
v -181.638290 45.324890 -1246.850586
v -189.967865 43.100830 -1246.838867
v -190.671692 44.056641 -1387.276367
v -196.070862 37.009583 -1246.834961
v -197.116959 37.626282 -1387.272461
v -191.832550 34.567322 -1387.284180
v -193.376907 28.828308 -1387.288086
v -191.844086 23.085815 -1387.295898
v -199.483078 28.834778 -1387.276367
v -198.311264 28.682739 -1246.840820
v -196.087585 20.350952 -1246.852539
v -197.135132 20.038452 -1387.290039
v -189.996124 14.248047 -1246.870117
v -190.704865 13.594910 -1387.309570
v -187.645859 18.879395 -1387.305664
v -181.908752 17.335083 -1387.319336
v -176.166183 18.866211 -1387.327148
v -181.915390 11.228882 -1387.325195
v -181.667999 12.009277 -1246.885742
v -173.337845 14.233276 -1246.899414
v -173.119003 13.575134 -1387.338867
v -167.234848 20.324463 -1246.903320
v -166.673737 20.005371 -1387.342773
v -171.958145 23.064331 -1387.331055
v -170.413803 28.803467 -1387.327148
v -171.946609 34.545898 -1387.317383
v -164.309357 28.796875 -1387.336914
v -164.994446 28.651306 -1246.897461
v -167.218414 36.983093 -1246.885742
v -166.655579 37.593201 -1387.325195
v -173.311325 43.085999 -1246.868164
v -159.366913 39.309937 -165.991211
v -167.996353 47.939392 -165.965820
v -179.785416 51.099060 -165.942383
v -191.574203 47.939392 -165.925781
v -200.203644 39.309937 -165.919922
v -203.361832 27.520874 -165.926758
v -200.203644 15.733398 -165.944336
v -191.574203 7.102295 -165.969727
v -179.785416 3.944214 -165.993164
v -167.996353 7.102356 -166.009766
v -159.366913 15.733398 -166.015625
v -156.208725 27.520813 -166.008789
v -9.650116 37.593140 -1387.594727
v -11.997780 28.796814 -1387.600586
v -4.359077 34.545837 -1387.608398
v -3.219846 44.036682 -1387.598633
v -0.160847 38.752197 -1387.610352
v -8.602289 36.983032 -1247.159180
v -2.509377 43.085999 -1247.163086
v 5.817595 45.324829 -1247.174805
v -4.089191 47.939392 -166.250000
v -12.718342 39.309998 -166.244141
v -15.876530 27.520752 -166.250977
v -10.826256 28.651245 -1247.165039
v -12.718342 15.733337 -166.268555
v -8.585854 20.324463 -1247.176758
v -4.089191 7.102295 -166.292969
v 7.700166 3.944153 -166.316406
v -2.482849 14.233215 -1247.194336
v 5.607971 11.228882 -1387.649414
v 5.847294 12.009277 -1247.211914
v -3.186687 13.575134 -1387.631836
v -9.631950 20.005371 -1387.614258
v -4.347256 23.064270 -1387.620117
v -0.139221 18.866211 -1387.629883
v 5.601628 17.335083 -1387.643555
v 6.399177 28.318787 -919.249023
v 5.576831 40.296570 -1387.618164
v 11.318833 38.765503 -1387.627930
v 15.526867 34.567322 -1387.641602
v 17.071217 28.828186 -1387.651367
v 15.538401 23.085754 -1387.653320
v 11.340459 18.879456 -1387.649414
v -5.891604 28.803406 -1387.610352
v 14.399170 13.594910 -1387.663086
v 20.829441 20.038452 -1387.666992
v 23.177393 28.834778 -1387.661133
v 20.266888 20.350952 -1247.225586
v 14.173688 14.247986 -1247.221680
v 19.488947 7.102234 -166.333008
v 28.118387 15.733276 -166.338867
v 31.276287 27.520752 -166.332031
v 22.490566 28.682678 -1247.223633
v 28.118387 39.309937 -166.314453
v 20.250164 37.009521 -1247.209961
v 19.488947 47.939331 -166.290039
v 14.147449 43.100830 -1247.192383
v 7.700166 51.099060 -166.266602
v 14.366299 44.056580 -1387.629883
v 5.570199 46.402771 -1387.612305
v 20.811275 37.626282 -1387.647461
vn 0.5736 0.8191 0.0066
vn 0.0874 0.9961 0.0077
vn 0.4203 0.9074 0.0003
vn -0.0019 0.0011 -1.0000
vn -0.0017 0.0011 -1.0000
vn -0.0018 0.0010 -1.0000
vn 0.9063 0.4226 0.0056
vn 0.8177 0.5757 -0.0007
vn -0.0019 0.0010 -1.0000
vn 0.5754 0.8179 -0.0065
vn 0.0891 0.9960 -0.0055
vn -0.0897 0.9960 0.0013
vn -0.4211 0.9070 -0.0047
vn -0.5757 0.8177 0.0020
vn -0.4221 0.9065 0.0084
vn -0.0015 0.0010 -1.0000
vn -0.0018 0.0009 -1.0000
vn -0.8186 0.5744 0.0086
vn -0.0016 0.0010 -1.0000
vn -0.9960 0.0885 0.0083
vn -0.9074 0.4203 0.0021
vn -0.8184 0.5746 -0.0045
vn -0.9961 0.0881 -0.0048
vn -0.9960 -0.0898 0.0017
vn -0.9066 -0.4219 -0.0056
vn -0.8177 -0.5757 0.0009
vn -0.9069 -0.4213 0.0075
vn -0.0017 0.0010 -1.0000
vn -0.0015 0.0011 -1.0000
vn -0.7063 -0.7079 0.0069
vn -0.0018 0.0011 -1.0000
vn -0.2577 -0.9662 0.0058
vn -0.0884 -0.9961 0.0055
vn -0.2579 -0.9662 -0.0005
vn -0.7064 -0.7078 0.0006
vn -0.7069 -0.7073 -0.0057
vn -0.2588 -0.9659 -0.0068
vn -0.0881 -0.9961 -0.0076
vn 0.0897 -0.9960 -0.0011
vn 0.4214 -0.9068 -0.0083
vn 0.5757 -0.8177 -0.0018
vn 0.4217 -0.9067 0.0048
vn -0.0020 0.0010 -1.0000
vn 0.8188 -0.5740 0.0046
vn 0.9962 -0.0874 0.0049
vn 0.9074 -0.4203 -0.0019
vn 0.8181 -0.5749 -0.0085
vn 0.9960 -0.0892 -0.0082
vn 0.9960 0.0897 -0.0015
vn 0.9072 0.4206 -0.0075
vn -0.8664 0.4989 -0.0225
vn -0.0089 0.0073 -0.9999
vn -0.9997 -0.0015 -0.0228
vn -0.8649 -0.5014 -0.0235
vn 0.5009 -0.8651 -0.0263
vn 0.2598 -0.9653 -0.0251
vn -0.2576 -0.9660 -0.0243
vn -0.4982 -0.8667 -0.0246
vn -0.5006 0.8654 -0.0227
vn -0.0006 0.9997 -0.0234
vn 0.4994 0.8660 -0.0244
vn 0.8655 0.5002 -0.0255
vn 0.9997 0.0005 -0.0262
vn 0.8661 -0.4992 -0.0265
vn 0.4990 -0.8662 -0.0263
vn 0.2576 -0.9659 -0.0251
vn -0.0120 0.0059 -0.9999
vn -0.2598 -0.9654 -0.0242
vn -0.5001 -0.8656 -0.0246
vn -0.0020 0.0011 -1.0000
vn -0.0021 0.0010 -1.0000
vn 0.4212 0.9069 0.0068
vn -0.0885 0.9960 0.0079
vn 0.0897 0.9960 0.0010
vn -0.4203 0.9074 0.0019
vn -0.5743 0.8186 0.0086
vn -0.0019 0.0009 -1.0000
vn -0.8177 0.5757 0.0021
vn -0.9065 0.4221 0.0089
vn 0.8651 -0.5010 -0.0265
vn 0.9997 -0.0015 -0.0262
vn 0.8666 0.4984 -0.0255
vn -0.9961 -0.0874 0.0085
vn -0.9960 0.0898 0.0019
vn -0.9074 -0.4202 0.0011
vn -0.8191 -0.5736 0.0077
vn -0.5757 -0.8176 -0.0000
vn -0.4226 -0.9063 0.0067
vn -0.0016 0.0011 -1.0000
vn 0.0017 0.9997 -0.0234
vn 0.5014 0.8649 -0.0245
vn -0.4987 0.8665 -0.0227
vn 0.0874 -0.9962 0.0056
vn -0.0897 -0.9960 -0.0008
vn 0.2579 -0.9662 -0.0014
vn 0.2577 -0.9662 0.0049
vn -0.0017 0.0009 -1.0000
vn 0.7064 -0.7078 -0.0019
vn 0.7063 -0.7079 0.0044
vn 0.8177 -0.5757 -0.0019
vn 0.9067 -0.4218 0.0046
vn -0.9997 0.0005 -0.0228
vn -0.8653 0.5007 -0.0225
vn -0.8659 -0.4996 -0.0235
vn 0.9961 0.0885 0.0050
vn 0.9960 -0.0897 -0.0017
vn 0.9074 0.4203 -0.0009
vn 0.8183 0.5748 0.0058
vn 0.5757 0.8177 0.0002
vn 0.8187 0.5742 -0.0074
vn 0.4219 0.9066 -0.0063
vn -0.0881 0.9961 -0.0053
vn -0.5746 0.8184 -0.0045
vn -0.9070 0.4211 -0.0043
vn -0.9960 -0.0892 -0.0046
vn -0.8179 -0.5754 -0.0054
vn -0.4206 -0.9072 -0.0065
vn 0.0892 -0.9960 -0.0075
vn 0.2587 -0.9659 -0.0077
vn 0.7066 -0.7075 -0.0082
vn 0.9068 -0.4214 -0.0085
vn 0.7067 -0.7074 -0.0082
vn 0.9961 0.0881 -0.0082
vn -0.8186 0.5743 0.0086
vn -0.7072 -0.7070 -0.0057
vn -0.2578 -0.9662 0.0058
vn 0.0897 -0.9960 -0.0010
vn -0.9069 -0.4213 0.0076
vn -0.0012 0.0010 -1.0000
vn -0.0068 0.0062 -1.0000
vn -0.2576 -0.9659 -0.0243
vn 0.8661 -0.4991 -0.0265
vn 0.8182 -0.5749 -0.0085
vn 0.9960 0.0898 -0.0015
vn 0.5736 0.8191 0.0067
vt 0.857527 0.403807
vt 0.851620 0.403807
vt 0.857550 0.368775
vt 0.709599 0.239950
vt 0.707251 0.244034
vt 0.702817 0.238146
vt 0.710497 0.247269
vt 0.863434 0.403807
vt 0.863452 0.368775
vt 0.714572 0.244908
vt 0.857509 0.099316
vt 0.851490 0.099316
vt 0.851651 0.368775
vt 0.845484 0.099316
vt 0.845749 0.368775
vt 0.845714 0.403807
vt 0.702822 0.242853
vt 0.696038 0.239969
vt 0.698396 0.244044
vt 0.691079 0.244937
vt 0.839815 0.403807
vt 0.695159 0.247288
vt 0.689270 0.251720
vt 0.833917 0.403807
vt 0.839856 0.368775
vt 0.839488 0.099316
vt 0.833527 0.099316
vt 0.833966 0.368775
vt 0.827516 0.099316
vt 0.828136 0.368777
vt 0.828064 0.403807
vt 0.693979 0.251715
vt 0.691097 0.258500
vt 0.695173 0.256139
vt 0.696071 0.263458
vt 0.822027 0.403807
vt 0.698418 0.259377
vt 0.702856 0.265266
vt 0.893027 0.403807
vt 0.886990 0.403807
vt 0.893027 0.368777
vt 0.822027 0.368777
vt 0.822027 0.099316
vt 0.893027 0.099316
vt 0.887524 0.099316
vt 0.886937 0.368777
vt 0.881506 0.099316
vt 0.881119 0.368775
vt 0.881133 0.403807
vt 0.702848 0.260558
vt 0.709634 0.263442
vt 0.707274 0.259366
vt 0.714591 0.258471
vt 0.875235 0.403807
vt 0.710511 0.256121
vt 0.716399 0.251688
vt 0.869337 0.403807
vt 0.875235 0.368775
vt 0.875536 0.099316
vt 0.869538 0.099316
vt 0.869349 0.368775
vt 0.863525 0.099316
vt 0.711690 0.251693
vt 0.646273 0.201718
vt 0.683444 0.196723
vt 0.646861 0.204135
vt 0.647472 0.206402
vt 0.647336 0.184376
vt 0.648518 0.182225
vt 0.649963 0.211676
vt 0.648437 0.209186
vt 0.645982 0.199226
vt 0.646000 0.196723
vt 0.646098 0.194113
vt 0.646233 0.191402
vt 0.646368 0.188887
vt 0.646561 0.186636
s 1
usemtl AGM019_8in55_CA68_a
f 1/1/1 2/2/2 7/3/3
f 1/4/4 3/5/5 2/6/5
f 5/7/6 3/5/5 1/4/4
f 4/8/7 1/1/1 6/9/8
f 4/10/9 5/7/6 1/4/4
f 1/1/1 7/3/3 6/9/8
f 6/9/8 7/3/3 8/11/10
f 8/11/10 7/3/3 9/12/11
f 7/3/3 10/13/12 9/12/11
f 2/2/2 10/13/12 7/3/3
f 9/12/11 10/13/12 11/14/13
f 10/13/12 12/15/14 11/14/13
f 13/16/15 12/15/14 10/13/12
f 2/2/2 13/16/15 10/13/12
f 2/6/5 14/17/16 13/18/6
f 14/17/16 15/19/17 13/18/6
f 13/18/6 15/19/17 16/20/16
f 13/16/15 16/21/18 12/15/14
f 15/19/17 17/22/19 16/20/16
f 16/20/16 17/22/19 18/23/16
f 16/21/18 18/24/20 19/25/21
f 16/21/18 19/25/21 12/15/14
f 12/15/14 19/25/21 20/26/22
f 20/26/22 19/25/21 21/27/23
f 19/25/21 22/28/24 21/27/23
f 18/24/20 22/28/24 19/25/21
f 21/27/23 22/28/24 23/29/25
f 22/28/24 24/30/26 23/29/25
f 25/31/27 24/30/26 22/28/24
f 18/24/20 25/31/27 22/28/24
f 18/23/16 26/32/5 25/33/16
f 26/32/5 27/34/28 25/33/16
f 25/33/16 27/34/28 28/35/29
f 25/31/27 28/36/30 24/30/26
f 27/34/28 29/37/31 28/35/29
f 28/35/29 29/37/31 30/38/31
f 28/39/32 30/40/33 31/41/34
f 28/36/30 31/42/35 24/30/26
f 24/30/26 31/42/35 32/43/36
f 32/44/37 31/41/34 33/45/38
f 31/41/34 34/46/39 33/45/38
f 30/40/33 34/46/39 31/41/34
f 33/45/38 34/46/39 35/47/40
f 34/46/39 36/48/41 35/47/40
f 37/49/42 36/48/41 34/46/39
f 30/40/33 37/49/42 34/46/39
f 30/38/31 38/50/43 37/51/6
f 38/50/43 39/52/17 37/51/6
f 37/51/6 39/52/17 40/53/28
f 37/49/42 40/54/44 36/48/41
f 39/52/17 41/55/28 40/53/28
f 40/53/28 41/55/28 42/56/6
f 40/54/44 42/57/45 43/58/46
f 40/54/44 43/58/46 36/48/41
f 36/48/41 43/58/46 44/59/47
f 44/59/47 43/58/46 45/60/48
f 43/58/46 46/61/49 45/60/48
f 42/57/45 46/61/49 43/58/46
f 45/60/48 46/61/49 47/62/50
f 46/61/49 6/9/8 47/62/50
f 4/8/7 6/9/8 46/61/49
f 42/57/45 4/8/7 46/61/49
f 47/62/50 6/9/8 8/11/10
f 35/47/40 36/48/41 44/59/47
f 41/55/28 48/63/31 42/56/6
f 42/56/6 48/63/31 4/10/9
f 41/64/51 49/65/52 48/66/53
f 48/63/31 5/7/6 4/10/9
f 48/66/53 49/65/52 5/67/54
f 15/68/55 14/69/56 49/65/52
f 14/70/57 3/71/58 49/65/52
f 3/71/58 5/67/54 49/65/52
f 39/72/59 49/65/52 41/64/51
f 39/72/59 38/73/60 49/65/52
f 38/73/60 29/74/61 49/65/52
f 27/75/62 49/65/52 29/74/61
f 27/75/62 26/76/63 49/65/52
f 17/77/64 49/65/52 26/76/63
f 15/68/55 49/65/52 17/77/64
f 29/37/31 38/50/43 30/38/31
f 23/29/25 24/30/26 32/43/36
f 17/22/19 26/32/5 18/23/16
f 11/14/13 12/15/14 20/26/22
f 3/5/5 14/17/16 2/6/5
f 53/71/65 50/70/66 51/65/67
f 50/69/68 52/68/69 51/65/67
f 52/19/5 50/17/4 54/18/70
f 50/17/4 53/5/71 55/6/31
f 50/17/4 55/6/31 54/18/70
f 54/16/72 55/2/73 56/13/74
f 56/13/74 55/2/73 57/3/75
f 55/2/73 58/1/76 57/3/75
f 53/5/71 58/4/77 55/6/31
f 57/3/75 58/1/76 59/9/78
f 58/1/76 60/8/79 59/9/78
f 61/7/28 60/10/6 58/4/77
f 53/5/71 61/7/28 58/4/77
f 61/67/80 53/71/65 51/65/67
f 51/65/67 62/66/81 61/67/80
f 61/7/28 62/63/6 60/10/6
f 51/65/67 63/64/82 62/66/81
f 62/63/6 63/55/43 64/56/9
f 62/63/6 64/56/9 60/10/6
f 60/8/79 64/57/83 65/61/84
f 65/61/84 64/57/83 66/58/85
f 64/57/83 67/54/86 66/58/85
f 63/55/43 67/53/31 64/56/9
f 66/58/85 67/54/86 68/48/87
f 67/54/86 69/49/88 68/48/87
f 70/52/31 69/51/89 67/53/31
f 63/55/43 70/52/31 67/53/31
f 70/52/31 71/50/89 69/51/89
f 71/73/90 70/72/91 51/65/67
f 51/65/67 70/72/91 63/64/82
f 71/50/89 72/37/16 73/38/5
f 72/74/92 71/73/90 51/65/67
f 71/50/89 73/38/5 69/51/89
f 69/49/88 73/40/93 74/46/94
f 74/46/94 73/40/93 75/41/95
f 73/40/93 76/39/96 75/41/95
f 72/37/16 76/35/97 73/38/5
f 75/42/98 76/36/99 77/30/100
f 76/36/99 78/31/101 77/30/100
f 79/34/19 78/33/6 76/35/97
f 72/37/16 79/34/19 76/35/97
f 79/34/19 80/32/6 78/33/6
f 80/76/102 79/75/103 51/65/67
f 51/65/67 79/75/103 72/74/92
f 51/65/67 81/77/104 80/76/102
f 80/32/6 81/22/16 82/23/6
f 80/32/6 82/23/6 78/33/6
f 78/31/101 82/24/105 83/28/106
f 83/28/106 82/24/105 84/25/107
f 82/24/105 85/21/108 84/25/107
f 81/22/16 85/20/5 82/23/6
f 84/25/107 85/21/108 86/15/109
f 85/21/108 54/16/72 86/15/109
f 52/19/5 54/18/70 85/20/5
f 81/22/16 52/19/5 85/20/5
f 84/25/107 86/15/109 87/26/110
f 86/15/109 88/14/111 87/26/110
f 86/15/109 56/13/74 88/14/111
f 86/15/109 54/16/72 56/13/74
f 56/13/74 89/12/112 88/14/111
f 56/13/74 57/3/75 89/12/112
f 57/3/75 90/11/113 89/12/112
f 57/3/75 59/9/78 90/11/113
f 59/9/78 91/62/114 90/11/113
f 59/9/78 65/61/84 91/62/114
f 65/61/84 92/60/115 91/62/114
f 65/61/84 66/58/85 92/60/115
f 66/58/85 93/59/116 92/60/115
f 66/58/85 68/48/87 93/59/116
f 68/48/87 94/47/117 93/59/116
f 68/48/87 74/46/94 94/47/117
f 74/46/94 95/45/118 94/47/117
f 74/46/94 75/41/95 95/45/118
f 75/41/95 96/44/119 95/45/118
f 75/42/98 77/30/100 96/43/120
f 77/30/100 97/29/121 96/43/122
f 77/30/100 83/28/106 97/29/121
f 83/28/106 98/27/123 97/29/121
f 83/28/106 84/25/107 98/27/123
f 84/25/107 87/26/110 98/27/123
f 77/30/100 78/31/101 83/28/106
f 51/65/67 52/68/69 81/77/104
f 68/48/87 69/49/88 74/46/94
f 59/9/78 60/8/79 65/61/84
f 99/21/124 100/24/20 104/25/21
f 99/20/5 101/22/4 100/23/5
f 103/19/89 101/22/4 99/20/5
f 102/16/15 99/21/124 105/15/14
f 102/18/89 103/19/89 99/20/5
f 99/21/124 104/25/21 105/15/14
f 102/16/15 105/15/14 106/13/12
f 106/13/12 105/15/14 107/14/13
f 107/14/13 105/15/14 108/26/22
f 105/15/14 104/25/21 108/26/22
f 108/26/22 104/25/21 109/27/23
f 104/25/21 110/28/24 109/27/23
f 109/27/23 110/28/24 111/29/25
f 110/28/24 112/30/26 111/29/25
f 111/29/25 112/30/26 113/43/125
f 113/44/37 115/41/34 114/45/38
f 112/30/26 115/42/35 113/43/125
f 118/39/126 116/40/33 115/41/34
f 116/40/33 117/46/127 115/41/34
f 115/41/34 117/46/127 114/45/38
f 118/36/30 115/42/35 112/30/26
f 119/31/128 118/36/30 112/30/26
f 119/33/70 120/34/4 118/35/19
f 120/34/4 121/37/129 118/35/19
f 118/35/19 121/37/129 116/38/17
f 120/75/62 123/65/130 121/74/61
f 121/37/129 122/50/97 116/38/17
f 122/73/60 121/74/61 123/65/130
f 103/68/55 124/69/56 123/65/130
f 124/70/131 125/71/58 123/65/130
f 125/71/58 126/67/54 123/65/130
f 127/66/53 123/65/130 126/67/54
f 128/64/51 123/65/130 127/66/53
f 129/72/59 123/65/130 128/64/51
f 129/72/59 122/73/60 123/65/130
f 120/75/62 130/76/63 123/65/130
f 101/77/132 123/65/130 130/76/63
f 103/68/55 123/65/130 101/77/132
f 101/22/4 130/32/4 100/23/5
f 100/23/5 130/32/4 119/33/70
f 130/32/4 120/34/4 119/33/70
f 122/50/97 129/52/5 131/51/5
f 131/51/5 129/52/5 132/53/89
f 129/52/5 128/55/5 132/53/89
f 131/49/42 132/54/44 135/48/41
f 132/53/89 128/55/5 133/56/29
f 132/54/44 133/57/45 134/58/46
f 132/54/44 134/58/46 135/48/41
f 135/48/41 134/58/46 137/59/133
f 131/49/42 135/48/41 117/46/127
f 117/46/127 135/48/41 136/47/40
f 136/47/40 135/48/41 137/59/133
f 137/59/133 134/58/46 138/60/48
f 134/58/46 139/61/134 138/60/48
f 138/60/48 139/61/134 140/62/50
f 139/61/134 141/9/8 140/62/50
f 140/62/50 141/9/8 142/11/10
f 141/9/8 143/3/3 142/11/10
f 142/11/10 143/3/3 144/12/11
f 143/3/3 106/13/12 144/12/11
f 144/12/11 106/13/12 107/14/13
f 145/1/135 146/2/2 143/3/3
f 145/1/135 143/3/3 141/9/8
f 146/2/2 106/13/12 143/3/3
f 145/4/77 125/5/6 146/6/28
f 125/5/6 124/17/29 146/6/28
f 146/6/28 124/17/29 102/18/89
f 146/2/2 102/16/15 106/13/12
f 147/8/7 145/1/135 141/9/8
f 147/10/6 126/7/4 145/4/77
f 126/7/4 125/5/6 145/4/77
f 133/57/45 147/8/7 139/61/134
f 133/56/29 127/63/19 147/10/6
f 127/63/19 126/7/4 147/10/6
f 147/8/7 141/9/8 139/61/134
f 133/57/45 139/61/134 134/58/46
f 114/45/38 117/46/127 136/47/40
f 128/55/5 127/63/19 133/56/29
f 116/40/33 131/49/42 117/46/127
f 116/38/17 122/50/97 131/51/5
f 124/17/29 103/19/89 102/18/89
f 100/24/20 119/31/128 110/28/24
f 119/31/128 112/30/26 110/28/24
f 100/24/20 110/28/24 104/25/21
