# Blender 5.2.0 LTS
# www.blender.org
mtllib jagde100mantlet.mtl
o mantlet
v -59.780758 -18.966259 2.858979
v -59.780750 -19.414253 0.000016
v -58.839092 -19.832382 3.092501
v -58.839085 -18.707916 -5.999800
v -58.839085 -16.741226 -8.448432
v -38.756771 -17.462490 -9.168987
v -59.780743 -17.928410 -5.549438
v -58.839092 -19.832382 -3.092466
v -59.780743 -18.966259 -2.860614
v -58.839092 -20.316212 0.000018
v -38.756779 -21.340622 0.000042
v -38.756790 -20.817963 3.356070
v -24.939388 -23.504425 -0.208442
v -23.882427 -23.759777 1.446221
v -23.882431 -23.834446 4.163402
v -22.133633 -24.242119 2.502071
v -18.722527 -24.715500 4.525366
v -18.722523 -25.051495 3.037505
v -3.905817 -29.450787 5.819755
v -4.443901 -30.012272 0.000083
v -18.722519 -25.423328 -0.090007
v -59.780743 -16.106567 -7.812923
v -23.882412 -22.312763 -8.081429
v -23.882408 -19.669601 -11.377411
v -18.722507 -23.041496 -8.780318
v -18.722511 -24.715500 -4.525235
v -23.882416 -23.834446 -4.164951
v -21.845360 -24.286919 -2.897264
v -23.882420 -23.759777 -1.863103
v -38.756775 -20.817963 -3.355986
v -38.756771 -19.594944 -6.511854
v -18.722511 -25.051495 -3.215850
v -3.905804 -29.450787 -5.819590
v -4.270931 -27.012211 -11.452446
v -18.722504 -20.190765 -12.361527
v -21.691608 -18.818413 -12.601723
v -23.882404 -17.755173 -12.438262
v -24.910542 -16.194664 -13.238906
v -18.857021 -19.517284 -13.227222
v -4.386230 -23.492474 -16.358049
v -18.722500 -17.011505 -15.125413
v -4.578403 -19.565063 -19.962612
v -18.857021 -14.196613 -16.513195
v -4.770576 -14.096561 -21.658976
v 7.922596 -1.775242 -23.995836
v 7.912991 -7.858994 -24.839848
v 4.655624 -7.566303 -27.488647
v 4.415405 -14.184662 -27.098331
v -4.770576 -8.315948 -22.523003
v 1.023509 -20.562595 -22.848257
v -1.292208 -24.905148 -17.585701
v -2.906488 -28.009743 -11.715989
v 4.665216 11.094116 -19.342104
v 7.922592 4.057632 -21.548872
v 4.665225 5.123856 -23.867405
v 4.665229 -1.303356 -26.561235
v -4.770578 -2.490540 -21.658976
v -18.722500 -8.315948 -17.560701
v -18.722500 -12.818283 -16.886827
v -21.941433 -14.207066 -15.297221
v -23.882404 -12.458401 -15.540752
v -23.882404 -14.693890 -14.206348
v -38.756767 -11.649033 -12.525015
v -38.756767 -14.828293 -11.279016
v -59.780743 -13.865105 -9.612701
v -58.839077 -14.316086 -10.391659
v -58.839077 -11.386208 -11.539247
v -59.780743 -11.153252 -10.673553
v -59.780743 -8.315964 -11.098895
v -59.780743 -5.433872 -10.673553
v -58.839077 -5.200916 -11.539247
v -58.839077 -8.315964 -11.999616
v -38.756767 -8.315960 -13.023749
v -23.882408 -8.315956 -16.161251
v -18.722507 -3.768818 -16.886827
v -18.722507 -2.348679 -16.413115
v -4.770582 2.800262 -19.413839
v -18.722507 0.385574 -15.133754
v -18.722507 3.101906 -13.345651
v -4.770588 7.562431 -15.855982
v -18.722515 4.068085 -12.361527
v -18.722515 6.891937 -8.780318
v -22.181660 -2.512943 -15.277205
v -23.882412 -4.128712 -15.540752
v -38.756775 -4.938087 -12.525015
v -4.770592 11.189690 -11.262294
v -4.770601 13.365440 -5.802911
v -18.722523 8.592812 -4.525235
v -18.722523 8.903427 -3.135786
v -21.951069 7.802849 -2.832213
v -4.770609 14.192734 0.000082
v -18.722530 9.012436 -0.021619
v -18.722534 8.903427 3.246005
v 4.665211 15.350052 -13.844357
v 4.665203 17.993210 -7.080591
v 4.665194 18.919067 0.000094
v -4.770615 13.365440 5.803075
v -18.722534 8.592812 4.525366
v -18.722538 6.891937 8.780448
v -23.882439 5.679359 8.079881
v -18.722542 4.068085 12.361657
v -23.882442 3.083984 11.377528
v -21.835781 2.304474 12.586835
v -23.882442 1.068016 12.465067
v 4.665186 17.946922 7.127484
v -4.770620 11.189690 11.262460
v -4.770624 7.562431 15.856148
v -18.741756 3.073540 13.349117
v -4.770628 2.800262 19.414003
v -4.770630 -2.696621 20.793446
v 4.665167 -1.236156 26.242830
v 4.665169 4.804283 23.867590
v 4.665173 10.867126 19.342291
v 7.922541 3.738068 21.549067
v 7.922544 9.205078 17.464121
v 4.665178 15.258965 13.891248
v 7.922550 13.505814 12.813720
v 7.922556 16.252014 6.440268
v 7.922564 17.140533 0.000098
v 7.922573 16.296814 -6.393370
v 7.922581 13.598404 -12.768490
v 7.922586 9.433556 -17.465593
v 7.922539 -1.708042 23.679111
v 4.655560 -7.566303 27.166904
v 7.912931 -7.858994 24.518118
v 4.415340 -14.184662 26.479689
v -38.756798 -14.828293 11.279098
v -38.756798 -11.649033 12.525099
v -58.839108 -11.386208 11.539284
v -24.910580 -15.972160 13.294066
v -38.756794 -17.462490 9.169070
v -23.882442 -17.537155 12.493423
v -23.882439 -19.669601 11.377528
v -22.018345 -18.580978 12.538464
v -18.722538 -20.190765 12.361657
v -18.722538 -19.454563 13.167304
v -4.386269 -23.567139 16.268148
v -4.578447 -19.264908 19.660872
v -1.292248 -24.905148 17.495802
v 1.023455 -20.562595 22.765036
v -4.770628 -14.262314 21.041979
v -4.770630 -8.315948 21.699173
v -18.722542 -17.011505 15.125543
v -18.722546 -14.150318 16.479965
v -18.722546 -12.818283 16.885290
v -18.722546 -8.315948 17.560831
v -21.999126 -13.883018 15.364065
v -18.722530 -23.041496 8.780448
v -23.882435 -22.312763 8.079881
v -38.756794 -19.594944 6.511937
v -58.839100 -16.741226 8.446800
v -58.839108 -14.316086 10.391696
v -59.780758 -13.865105 9.611068
v -59.780758 -11.153252 10.673588
v -59.780758 -8.315964 11.098928
v -59.780758 -16.106567 7.812957
v -59.780758 -17.928410 5.549472
v -58.839100 -18.707916 5.999836
v -4.270958 -27.058502 11.452613
v -2.906513 -28.054539 11.544353
v -22.085598 7.767014 2.765616
v -23.882435 7.247337 4.163402
v -38.756794 2.963028 6.511937
v -38.756794 0.875374 9.169070
v -24.910580 -0.390953 13.203994
v -38.756798 -1.803623 11.279098
v -38.756798 -4.938087 12.525099
v -58.839108 -2.315834 10.391696
v -58.839108 -5.200916 11.539284
v -59.780758 -2.766815 9.611068
v -59.780758 -5.433872 10.673588
v -58.839108 -8.315964 11.999655
v -23.882442 -1.946980 14.204798
v -38.756790 4.230850 3.356070
v -23.882442 -8.315956 16.161367
v -38.756798 -8.315960 13.023831
v -23.882442 -12.458401 15.540872
v -23.882446 -4.128712 15.540872
v -21.979912 -2.666756 15.379077
v -18.722546 -3.768818 16.885290
v -18.741764 -2.374069 16.421583
v -18.722546 0.385574 15.133883
v -23.882442 -14.475861 14.261510
v -23.882416 3.083984 -11.377411
v -38.756779 0.875374 -9.168987
v -38.756779 2.963028 -6.511854
v -23.882412 1.094894 -12.491638
v -24.910549 -0.362579 -13.233901
v -38.756775 -1.803623 -11.279016
v -23.882412 -1.918606 -14.233036
v -22.248920 2.138725 -12.603392
v -23.882423 7.247337 -4.164951
v -38.756783 4.230850 -3.355986
v -23.882420 5.679359 -8.081429
v -23.882427 7.099503 -1.936496
v -25.054699 6.812790 -0.021626
v -38.756786 4.708710 0.000042
v -23.882435 7.099503 1.894914
v -58.839077 -2.315834 -10.391659
v -58.839085 0.154106 -8.448432
v -58.839085 2.075996 -5.999800
v -58.839092 3.246750 -3.092466
v -58.839092 3.684288 0.000018
v -58.839092 3.246750 3.092501
v -58.839100 2.075996 5.999836
v -58.839100 0.154106 8.446800
v -59.780758 -0.480553 7.812957
v -59.780758 1.296486 5.549472
v -59.780758 2.379143 2.858979
v -59.780750 2.782333 0.000016
v -59.780743 2.379143 -2.860614
v -59.780743 1.296486 -5.549438
v -59.780743 -0.480553 -7.812923
v -59.780743 -2.766815 -9.612701
v -18.722530 6.676895 2.188490
v -18.722530 5.668915 1.040901
v -18.722527 5.377716 -0.021619
v -18.722523 5.668915 -1.084138
v -18.722523 6.676895 -2.233395
v 6.346741 11.336029 -11.180548
v -29.340206 -8.545925 0.000053
v 6.346748 7.658005 -15.780909
v 6.346735 13.425171 -5.771205
v 6.346715 11.209099 11.240789
v 6.346710 7.658005 15.734397
v 6.346706 2.692741 19.363977
v 6.346706 -2.362114 20.906881
v 6.337097 -8.295044 21.694181
v 6.346727 14.336098 0.000095
v 6.346722 13.380379 5.769728
v 4.396130 -11.777443 22.217934
v 1.417418 -17.248940 18.978662
v -0.773375 -21.371971 14.575123
v -2.147419 -24.270489 9.879685
v -3.089073 -25.792175 4.904022
v -3.434982 -25.986305 -0.068304
v 1.417463 -17.248940 -19.340439
v -0.773340 -21.371971 -14.778446
v 4.396183 -11.777443 -22.836578
v 6.327540 -8.295044 -22.024256
v -3.089062 -25.792175 -4.903853
v -2.147396 -24.270489 -9.919546
v 6.346756 -2.429317 -21.225281
v 6.346753 2.825645 -19.203657
v -18.722538 -13.756084 14.119736
v -18.732143 -14.205570 12.638547
v -18.722538 -14.950737 11.834568
v -18.732143 -16.009491 11.512642
v -18.722538 -17.505795 11.777855
v -18.741756 1.190468 11.872931
v -18.741756 -0.308815 11.554342
v -18.741756 -1.376534 11.824559
v -18.741756 -2.160522 12.598515
v -18.741756 -2.662277 14.044676
v -18.722515 -22.841393 -2.300115
v -18.732128 -21.833405 -1.149191
v -18.722519 -21.542213 -0.088339
v -18.732136 -21.833405 0.975849
v -18.722523 -22.841393 2.121769
v -18.857021 -13.814323 -14.151299
v -18.847416 -14.266800 -12.673445
v -18.857029 -15.016441 -11.872802
v -18.847420 -16.075199 -11.557549
v -18.857025 -17.575977 -11.827766
v -18.722507 -2.635395 -14.036206
v -18.732121 -2.133640 -12.591713
v -18.722511 -1.348160 -11.819427
v -18.732121 -0.281937 -11.549208
v -18.722511 1.218842 -11.867798
v -14.734894 11.177742 0.920810
v -18.684093 8.813820 0.920805
v -15.609291 11.513733 0.920808
v -13.802845 11.325569 0.920811
v -13.802841 11.325569 -1.302641
v -14.734890 11.177742 -1.302642
v -18.684086 8.813820 -1.302647
v -15.609287 11.513733 -1.302644
v -16.195423 12.242470 -1.302644
v -16.195423 12.242470 0.920808
v -18.636047 13.592422 0.920805
v -16.349163 13.169815 0.920808
v -17.992264 15.276871 0.920806
v -16.003250 14.023987 0.920808
v -16.349163 13.169815 -1.302644
v -16.003246 14.023987 -1.302644
v -17.992260 15.276871 -1.302646
v -16.329945 16.411789 -1.302644
v -15.272984 14.613846 -1.302643
v -15.272984 14.613846 0.920809
v -14.360149 16.900101 0.920811
v -14.360149 14.761688 0.920811
v -16.329948 16.411789 0.920808
v -13.476147 14.446594 0.920812
v -14.360149 14.761688 -1.302641
v -14.360149 16.900101 -1.302641
v -13.476143 14.446594 -1.302640
v -12.332703 16.402832 -1.302639
v -11.025909 15.170853 -1.302638
v -12.890007 13.717865 -1.302640
v -12.890011 13.717865 0.920812
v -10.430168 13.696953 0.920815
v -12.745880 12.790512 0.920812
v -11.025913 15.170853 0.920814
v -12.332703 16.402832 0.920813
v -10.430168 13.696953 -1.302637
v -12.745876 12.790512 -1.302640
v -9.671074 12.880112 -1.302636
v -13.082184 11.915436 -1.302640
v -8.200935 12.745712 -1.302634
v -9.671078 12.880112 0.920816
v -8.200939 12.745712 0.920818
v -13.082188 11.915436 0.920812
v -18.636044 13.592422 -1.302647
v -19.952461 -16.069221 15.165574
v -19.952461 -17.419178 14.418308
v -21.787731 -16.069221 13.584303
v -19.952461 -14.719273 14.418308
v -18.530365 -14.719273 14.418310
v -18.530365 -16.069221 15.165576
v -18.530365 -17.419178 14.418310
v -18.530361 -17.419178 12.748636
v -19.952457 -17.419178 12.748634
v -19.952457 -16.069221 12.001367
v -18.530361 -16.069221 12.001369
v -19.952457 -14.719273 12.748634
v -18.530361 -14.719273 12.748636
v -19.952442 -23.726929 1.429545
v -19.952438 -25.076881 0.682279
v -21.787712 -23.726929 -0.151727
v -19.952438 -22.376976 0.683947
v -18.530342 -22.376972 0.683948
v -18.530346 -23.726929 1.429548
v -18.530342 -25.076881 0.682280
v -18.530338 -25.076881 -0.987394
v -19.952435 -25.076881 -0.987395
v -19.952435 -23.726929 -1.732994
v -18.530338 -23.726929 -1.732993
v -19.952435 -22.376976 -0.987395
v -18.530338 -22.376972 -0.987394
v -19.952423 -16.139412 -12.069627
v -19.952419 -17.489368 -12.816895
v -21.787701 -16.139412 -13.650899
v -19.952419 -14.789455 -12.816895
v -18.530323 -14.789455 -12.816894
v -18.530327 -16.139412 -12.069625
v -18.530323 -17.489361 -12.816894
v -18.530323 -17.489361 -14.486567
v -19.952419 -17.489368 -14.486568
v -19.952419 -16.139412 -15.233834
v -18.530323 -16.139412 -15.233832
v -19.952419 -14.789455 -14.486568
v -18.530323 -14.789455 -14.486567
v -19.952431 -0.399910 -12.069627
v -19.952427 -1.749863 -12.816895
v -21.787701 -0.399910 -13.650899
v -19.952427 0.950050 -12.816895
v -18.530331 0.950050 -12.816894
v -18.530334 -0.399910 -12.069625
v -18.530331 -1.749859 -12.816894
v -18.530331 -1.749859 -14.486567
v -19.952427 -1.749863 -14.486568
v -19.952427 -0.399910 -15.233834
v -18.530331 -0.399910 -15.233832
v -19.952427 0.950050 -14.486568
v -18.530331 0.950050 -14.486567
v -19.952450 7.241364 1.494597
v -19.952446 5.891411 0.747331
v -21.787720 7.241364 -0.088342
v -19.952446 8.591316 0.747331
v -18.530350 8.591324 0.747332
v -18.530354 7.241364 1.494600
v -18.530350 5.891418 0.747332
v -18.530350 5.891418 -0.922342
v -19.952446 5.891411 -0.922343
v -19.952442 7.241364 -1.669610
v -18.530346 7.241364 -1.669608
v -19.952446 8.591316 -0.922343
v -18.530350 8.591324 -0.922342
v -19.952461 -0.431267 15.255647
v -19.952461 -1.781219 14.508381
v -21.787739 -0.431267 13.672707
v -19.952461 0.918686 14.508381
v -18.530365 0.918686 14.508383
v -18.530365 -0.431267 15.255649
v -18.530365 -1.781219 14.508383
v -18.530361 -1.781219 12.838709
v -19.952457 -1.781219 12.838707
v -19.952457 -0.431267 12.091439
v -18.530361 -0.431267 12.091441
v -19.952457 0.918686 12.838707
v -18.530361 0.918686 12.838709
v -0.244879 1.160606 0.000088
v -19.020397 1.159111 0.001733
v -0.244869 -3.532875 -8.129774
v -0.244888 -3.532875 8.128281
v -19.020405 -3.532875 8.129927
v -19.020405 -12.919834 8.129927
v -19.020393 -17.613308 0.001733
v -0.244884 -12.919827 8.128281
v -0.244875 -17.613308 0.000088
v -0.244867 -12.919827 -8.129774
v -19.020386 -12.919834 -8.128128
v -19.020386 -3.532875 -8.128128
vn -0.6907 -0.6991 0.1851
vn -0.6939 -0.7201 0.0019
vn -0.0808 -0.9643 0.2522
vn -0.0852 -0.8623 -0.4993
vn -0.0808 -0.7044 -0.7052
vn -0.1025 -0.7007 -0.7060
vn -0.6970 -0.6235 -0.3542
vn -0.0808 -0.9633 -0.2559
vn -0.6907 -0.7000 -0.1814
vn -0.0852 -0.9964 -0.0019
vn -0.0851 -0.9964 -0.0019
vn -0.1025 -0.9618 0.2538
vn -0.1804 -0.9836 0.0038
vn -0.1975 -0.9800 -0.0227
vn -0.1975 -0.9543 0.2244
vn -0.1975 -0.9793 0.0453
vn -0.2865 -0.9042 0.3168
vn -0.2990 -0.9440 0.1392
vn -0.3074 -0.9192 0.2463
vn -0.2990 -0.9542 -0.0038
vn -0.3033 -0.9529 -0.0019
vn -0.6939 -0.5099 -0.5085
vn -0.1975 -0.8490 -0.4902
vn -0.2061 -0.6879 -0.6960
vn -0.2781 -0.8350 -0.4748
vn -0.2781 -0.9043 -0.3240
vn -0.1975 -0.9525 -0.2318
vn -0.1889 -0.9805 -0.0547
vn -0.1975 -0.9800 0.0227
vn -0.1025 -0.9618 -0.2538
vn -0.1199 -0.8610 -0.4942
vn -0.2990 -0.9417 -0.1541
vn -0.3074 -0.9192 -0.2463
vn -0.3487 -0.8228 -0.4489
vn -0.2906 -0.7587 -0.5830
vn -0.2316 -0.5724 -0.7865
vn -0.1977 -0.5031 -0.8413
vn -0.1804 -0.4907 -0.8524
vn -0.3237 -0.6229 -0.7122
vn -0.3812 -0.7043 -0.5989
vn -0.3404 -0.5141 -0.7873
vn -0.3893 -0.4682 -0.7933
vn -0.3486 -0.3323 -0.8764
vn -0.4013 -0.2023 -0.8933
vn 0.6249 0.2160 -0.7502
vn 0.6318 0.0302 -0.7746
vn -0.1759 0.0378 -0.9837
vn -0.4052 -0.1428 -0.9030
vn -0.3973 -0.0000 -0.9177
vn -0.4835 -0.3592 -0.7982
vn -0.4912 -0.6233 -0.6085
vn -0.5689 -0.7122 -0.4112
vn -0.1888 0.6883 -0.7004
vn 0.6147 0.4025 -0.6784
vn -0.1888 0.4904 -0.8508
vn -0.1888 0.2684 -0.9446
vn -0.3933 0.2462 -0.8859
vn -0.3157 -0.0000 -0.9489
vn -0.3157 -0.1580 -0.9356
vn -0.2781 -0.4163 -0.8657
vn -0.2146 -0.2683 -0.9391
vn -0.1975 -0.4770 -0.8564
vn -0.1025 -0.2538 -0.9618
vn -0.0938 -0.4973 -0.8625
vn -0.6970 -0.3542 -0.6235
vn -0.0852 -0.4977 -0.8632
vn -0.0808 -0.2572 -0.9630
vn -0.6907 -0.1796 -0.7005
vn -0.6939 -0.0000 -0.7201
vn -0.6907 0.1796 -0.7005
vn -0.0809 0.2540 -0.9638
vn -0.0852 -0.0000 -0.9964
vn -0.1199 -0.0000 -0.9928
vn -0.2231 -0.0000 -0.9748
vn -0.3156 0.1728 -0.9330
vn -0.3281 0.3606 -0.8731
vn -0.3892 0.4617 -0.7971
vn -0.3322 0.4623 -0.8222
vn -0.3239 0.5821 -0.7458
vn -0.3892 0.6419 -0.6606
vn -0.3157 0.7289 -0.6075
vn -0.3156 0.8236 -0.4712
vn -0.2781 0.4231 -0.8624
vn -0.2146 0.2610 -0.9412
vn -0.1025 0.2538 -0.9618
vn -0.3892 0.7990 -0.4584
vn -0.3812 0.8964 -0.2262
vn -0.3157 0.8957 -0.3133
vn -0.3404 0.9347 -0.1018
vn -0.2697 0.9626 -0.0245
vn -0.3812 0.9245 -0.0019
vn -0.3486 0.9373 -0.0001
vn -0.3404 0.9347 0.1018
vn -0.2145 0.8477 -0.4851
vn -0.2231 0.9436 -0.2446
vn -0.2273 0.9738 0.0038
vn -0.3811 0.8955 0.2300
vn -0.3157 0.8944 0.3168
vn -0.3157 0.8218 0.4744
vn -0.2231 0.8454 0.4852
vn -0.3157 0.7265 0.6104
vn -0.2146 0.6846 0.6966
vn -0.2781 0.5374 0.7962
vn -0.1975 0.4901 0.8490
vn -0.2230 0.9426 0.2484
vn -0.3892 0.7990 0.4584
vn -0.3812 0.6450 0.6623
vn -0.3239 0.5791 0.7482
vn -0.3892 0.4152 0.8223
vn -0.3892 0.1802 0.9033
vn -0.2059 0.2392 0.9489
vn -0.1801 0.4856 0.8554
vn -0.1759 0.6806 0.7113
vn 0.6181 0.3925 0.6811
vn 0.6042 0.5472 0.5792
vn -0.2060 0.8449 0.4937
vn 0.5324 0.7215 0.4427
vn 0.4836 0.8447 0.2293
vn 0.4759 0.8795 -0.0000
vn 0.4835 0.8477 -0.2183
vn 0.5250 0.7287 -0.4396
vn 0.6043 0.5581 -0.5687
vn 0.6284 0.2013 0.7514
vn -0.2145 0.0264 0.9764
vn 0.6318 0.0076 0.7751
vn -0.4211 -0.1316 0.8974
vn -0.0938 -0.5005 0.8606
vn -0.1025 -0.2538 0.9618
vn -0.0808 -0.2504 0.9648
vn -0.1803 -0.4907 0.8525
vn -0.1025 -0.7007 0.7061
vn -0.1890 -0.4806 0.8563
vn -0.1975 -0.6824 0.7038
vn -0.2316 -0.5129 0.8266
vn -0.2907 -0.7447 0.6008
vn -0.3322 -0.6194 0.7114
vn -0.3731 -0.6796 0.6316
vn -0.3892 -0.4353 0.8118
vn -0.5025 -0.6040 0.6186
vn -0.5025 -0.3208 0.8028
vn -0.3892 -0.1653 0.9062
vn -0.3892 0.0151 0.9210
vn -0.3322 -0.4980 0.8010
vn -0.3157 -0.3363 0.8873
vn -0.2865 -0.1691 0.9430
vn -0.2739 -0.0000 0.9618
vn -0.2697 -0.4400 0.8565
vn -0.2865 -0.8322 0.4747
vn -0.1975 -0.8490 0.4901
vn -0.1199 -0.8648 0.4877
vn -0.0808 -0.7042 0.7054
vn -0.0852 -0.5009 0.8613
vn -0.6970 -0.3542 0.6235
vn -0.6907 -0.1833 0.6995
vn -0.6938 -0.0037 0.7201
vn -0.6939 -0.5072 0.5112
vn -0.6970 -0.6235 0.3542
vn -0.0852 -0.8642 0.4960
vn -0.3487 -0.8228 0.4489
vn -0.5471 -0.7286 0.4120
vn -0.2697 0.9627 0.0208
vn -0.2146 0.9493 0.2299
vn -0.1199 0.8610 0.4942
vn -0.1025 0.7060 0.7007
vn -0.1804 0.4907 0.8524
vn -0.0938 0.5005 0.8606
vn -0.1025 0.2538 0.9618
vn -0.0852 0.4943 0.8651
vn -0.0809 0.2504 0.9648
vn -0.6970 0.3542 0.6235
vn -0.6907 0.1832 0.6995
vn -0.0852 -0.0037 0.9964
vn -0.1975 0.4836 0.8527
vn -0.1026 0.9618 0.2538
vn -0.2231 0.0038 0.9748
vn -0.1199 -0.0000 0.9928
vn -0.2146 -0.2719 0.9381
vn -0.2146 0.2719 0.9381
vn -0.2697 0.4400 0.8565
vn -0.2697 0.1765 0.9466
vn -0.3074 0.3255 0.8942
vn -0.3322 0.4590 0.8240
vn -0.1975 -0.4902 0.8490
vn -0.2146 0.6926 -0.6886
vn -0.1025 0.7007 -0.7061
vn -0.1199 0.8648 -0.4876
vn -0.1975 0.5032 -0.8413
vn -0.1847 0.4903 -0.8518
vn -0.0938 0.4972 -0.8625
vn -0.1975 0.4770 -0.8564
vn -0.2781 0.5529 -0.7854
vn -0.2146 0.9501 -0.2262
vn -0.1025 0.9618 -0.2538
vn -0.2231 0.8473 -0.4819
vn -0.1975 0.9793 0.0453
vn -0.1803 0.9836 -0.0038
vn -0.0851 0.9964 -0.0019
vn -0.1975 0.9792 -0.0453
vn -0.0852 0.4974 -0.8633
vn -0.0808 0.7052 -0.7044
vn -0.0852 0.8626 -0.4986
vn -0.0808 0.9628 -0.2578
vn -0.0852 0.9964 -0.0000
vn -0.0808 0.9643 0.2522
vn -0.0852 0.8625 0.4988
vn -0.0809 0.7052 0.7044
vn -0.6939 0.5072 0.5112
vn -0.6970 0.6235 0.3542
vn -0.6907 0.6991 0.1851
vn -0.6938 0.7201 0.0019
vn -0.6907 0.7000 -0.1814
vn -0.6970 0.6235 -0.3542
vn -0.6939 0.5098 -0.5085
vn -0.6970 0.3542 -0.6235
vn -1.0000 -0.0000 -0.0000
vn 0.5690 -0.7134 0.4090
vn 0.9883 -0.1522 -0.0000
vn 0.5617 -0.5708 0.5988
vn 0.5726 -0.7942 0.2033
vn 0.5726 -0.7144 -0.4023
vn 0.5618 -0.5681 -0.6014
vn 0.5545 -0.3847 -0.7379
vn 0.5545 -0.1723 -0.8141
vn 0.5436 -0.2164 -0.8110
vn 0.5690 -0.8224 -0.0025
vn 0.5725 -0.7914 -0.2143
vn 0.8785 -0.4612 -0.1245
vn 0.8657 -0.4310 -0.2546
vn 0.8286 -0.3720 -0.4184
vn 0.8476 -0.2527 -0.4666
vn 0.8764 -0.1192 -0.4666
vn 0.8635 -0.2898 -0.4129
vn 0.6113 -0.1869 -0.7690
vn 0.6519 0.1792 -0.7368
vn 0.6551 0.4324 -0.6195
vn 0.9509 -0.2710 -0.1492
vn 0.8721 -0.4893 -0.0001
vn 0.8806 -0.4582 0.1212
vn 0.9270 -0.3242 -0.1886
vn 0.8806 -0.4110 -0.2359
vn 0.6585 0.6042 -0.4488
vn 0.6650 0.7139 -0.2193
vn 0.6552 0.7555 0.0032
vn 0.6519 0.2083 0.7291
vn 0.6584 0.4411 0.6098
vn 0.6216 -0.2122 0.7541
vn 0.5435 -0.2346 0.8059
vn 0.9624 -0.2431 -0.1215
vn 0.9670 -0.2384 -0.0901
vn 0.9713 -0.2380 0.0018
vn 0.6650 0.7139 0.2192
vn 0.6618 0.6054 0.4422
vn 0.9635 -0.2443 0.1093
vn 0.9670 -0.2397 0.0867
vn 0.9523 -0.2606 0.1591
vn 0.9270 -0.3183 0.1983
vn 0.8806 -0.4092 0.2391
vn 0.8568 -0.3031 0.4172
vn 0.5617 -0.2053 0.8014
vn 0.5545 -0.3947 0.7326
vn 0.8612 -0.2453 0.4450
vn 0.8476 -0.3651 0.3850
vn 0.8700 -0.4193 0.2594
vn 0.8764 -0.1265 0.4647
vn 0.0459 0.6226 -0.7812
vn 0.0546 0.6105 -0.7901
vn -0.0065 0.4310 -0.9023
vn 0.1889 0.9124 -0.3631
vn 0.1674 0.8863 -0.4319
vn 0.2231 0.9748 0.0001
vn 0.2146 0.9767 -0.0019
vn 0.1674 0.8846 0.4353
vn 0.1889 0.9110 0.3666
vn 0.0415 0.6103 0.7911
vn 0.0546 0.5954 0.8016
vn -0.0328 0.3755 0.9262
vn -0.0153 -0.9873 -0.1579
vn 0.0938 -0.9795 0.1782
vn 0.0546 -0.9966 0.0623
vn 0.1975 -0.8413 0.5032
vn 0.2401 -0.7522 0.6136
vn 0.2613 -0.5021 0.8244
vn 0.2698 -0.4760 0.8370
vn 0.2316 -0.1652 0.9587
vn 0.2146 -0.0791 0.9735
vn 0.0895 0.3153 0.9448
vn 0.0808 0.3823 0.9205
vn 0.0022 0.5804 0.8143
vn -0.0328 -0.6164 0.7868
vn 0.0720 -0.3404 0.9375
vn 0.0546 -0.4137 0.9088
vn 0.1803 0.0264 0.9833
vn 0.2146 0.1317 0.9678
vn 0.2444 0.4864 0.8388
vn 0.2613 0.4826 0.8359
vn 0.2316 0.7428 0.6282
vn 0.1975 0.8172 0.5415
vn 0.0938 0.9669 0.2373
vn 0.0415 0.9927 0.1129
vn -0.0459 0.9919 -0.1187
vn -0.0021 -0.3827 0.9239
vn 0.1199 -0.5921 0.7969
vn 0.1329 -0.6476 0.7503
vn 0.2613 -0.8577 0.4429
vn 0.2529 -0.8675 0.4283
vn 0.3156 -0.9489 0.0038
vn 0.2990 -0.9542 -0.0038
vn 0.2697 -0.8669 -0.4193
vn 0.2781 -0.8559 -0.4361
vn 0.1760 -0.6499 -0.7393
vn 0.1415 -0.5795 -0.8026
vn 0.0459 -0.3757 -0.9256
vn 0.0634 -0.9851 0.1597
vn 0.1415 -0.9881 -0.0604
vn 0.1242 -0.9862 -0.1092
vn 0.2316 -0.8425 -0.4864
vn 0.2528 -0.7611 -0.5973
vn 0.2697 -0.5020 -0.8217
vn 0.2781 -0.4693 -0.8381
vn 0.2146 -0.1429 -0.9662
vn 0.2061 -0.0528 -0.9771
vn 0.0459 0.3476 -0.9365
vn 0.0851 0.3686 -0.9257
vn -0.0328 0.5862 -0.8095
vn 0.0022 0.9927 0.1205
vn 0.1025 0.9724 -0.2098
vn 0.0720 0.9922 -0.1018
vn 0.2060 0.8164 -0.5395
vn 0.2359 0.7378 -0.6325
vn 0.2528 0.4832 -0.8382
vn 0.2613 0.4826 -0.8359
vn 0.2231 0.1503 -0.9631
vn 0.1889 0.0302 -0.9815
vn 0.0807 -0.3472 -0.9343
vn 0.0720 -0.4240 -0.9028
vn 0.0024 -0.6169 -0.7871
vn -0.9992 0.0218 -0.0327
vn -0.9994 0.0147 -0.0317
vn -0.9998 -0.0076 -0.0157
vn -0.9995 -0.0000 -0.0306
vn -0.9995 -0.0148 -0.0269
vn -0.9995 -0.0258 -0.0164
vn -0.9995 -0.0305 -0.0019
vn -0.9992 -0.0393 -0.0000
vn -1.0000 -0.0001 -0.0000
vn -1.0000 -0.0000 -0.0001
vn -1.0000 -0.0001 -0.0001
vn -0.0022 -0.0000 1.0000
vn 0.0022 -0.0000 1.0000
vn 0.5868 0.8098 0.0019
vn 0.1026 0.9947 -0.0000
vn -0.4013 0.9159 -0.0038
vn -0.4012 0.9160 0.0038
vn -0.0022 -0.0000 -1.0000
vn 0.0022 -0.0000 -1.0000
vn 0.5867 0.8098 -0.0000
vn 0.9132 0.4075 -0.0000
vn 0.9133 0.4073 -0.0000
vn 0.9940 -0.1091 -0.0000
vn 0.8033 -0.5955 -0.0018
vn 0.8032 -0.5956 -0.0000
vn 0.4132 -0.9106 -0.0038
vn -0.0020 1.0000 -0.0000
vn -0.4053 0.9142 -0.0019
vn -0.7738 0.6335 0.0019
vn -0.5796 -0.8149 -0.0038
vn -0.0851 -0.9964 -0.0000
vn -0.5793 -0.8151 -0.0000
vn -0.9133 -0.4073 -0.0038
vn -0.9133 -0.4073 0.0038
vn -0.9945 0.1047 0.0019
vn 0.8612 0.5082 -0.0000
vn 0.8613 0.5082 -0.0000
vn 0.8161 0.5778 0.0037
vn 0.8162 0.5778 0.0038
vn 0.4604 0.8877 0.0019
vn 0.3893 0.9211 0.0019
vn 0.0851 0.9964 -0.0019
vn 0.3893 0.9211 -0.0000
vn 0.3891 0.9212 -0.0000
vn -0.8085 0.5884 -0.0019
vn -0.8085 0.5884 -0.0000
vn -0.9945 0.1047 -0.0000
vn -0.9945 0.1048 0.0019
vn -0.9945 0.1046 0.0019
vn -0.0021 -0.0000 1.0000
vn -0.0022 -0.8747 0.4847
vn -0.6486 -0.0038 0.7612
vn -1.0000 -0.0000 0.0003
vn -0.6552 -0.6592 0.3690
vn -0.6552 0.6555 0.3756
vn -0.0022 0.8747 0.4846
vn -0.0022 0.8747 0.4847
vn 0.0022 -0.8747 0.4847
vn -0.0022 -0.8747 -0.4847
vn -0.0000 -0.8747 -0.4846
vn 0.0021 -0.0000 -1.0000
vn 0.0022 0.8747 -0.4847
vn 0.0022 0.8747 -0.4846
vn -0.6485 -0.0000 -0.7612
vn -0.6552 0.6555 -0.3756
vn -0.6552 -0.6592 -0.3690
vn -1.0000 -0.0001 0.0001
vn -0.6552 -0.6555 0.3756
vn -0.0021 0.8747 0.4847
vn -0.0000 -0.8748 -0.4846
vn 0.0021 0.8747 -0.4847
vn -0.6552 0.6556 0.3755
vn 0.0022 0.8747 0.4846
vn 0.0022 -0.8747 0.4846
vn -0.6551 -0.6593 0.3690
vn -0.6485 -0.0038 0.7612
vn -1.0000 -0.0000 -0.0003
vn -0.6552 0.6555 0.3755
vn 0.0022 0.8747 0.4847
vn -0.6552 -0.6555 -0.3756
vn 0.0021 0.4979 0.8672
vn 0.0021 1.0000 -0.0000
vn -0.0021 1.0000 -0.0001
vn -0.0021 0.4979 -0.8672
vn -0.0022 0.4978 0.8673
vn 0.0021 -0.4979 0.8672
vn 0.0021 -1.0000 -0.0000
vn 0.0022 -0.4978 0.8673
vn 0.0022 -1.0000 -0.0000
vn -0.0022 -0.4978 -0.8673
vn -0.0022 -0.4979 -0.8672
vn 0.0022 0.4978 -0.8673
vt 0.057883 -0.010438
vt 0.069871 -0.010317
vt 0.056672 -0.018041
vt 0.095178 -0.017799
vt 0.108618 -0.017679
vt 0.102564 -0.200876
vt 0.095299 -0.010196
vt 0.081858 -0.017799
vt 0.081979 -0.010196
vt 0.069265 -0.017920
vt 0.059942 -0.201117
vt 0.046017 -0.201238
vt 0.047954 -0.338937
vt 0.040326 -0.347505
vt 0.029428 -0.347626
vt 0.037057 -0.361746
vt 0.023132 -0.388779
vt 0.030760 -0.388779
vt 0.007390 -0.515134
vt 0.030639 -0.515013
vt 0.040689 -0.388658
vt 0.108618 -0.010076
vt 0.077862 -0.347747
vt 0.093846 -0.348109
vt 0.074593 -0.389141
vt 0.057883 -0.388538
vt 0.061879 -0.347385
vt 0.052313 -0.363556
vt 0.053282 -0.347505
vt 0.073867 -0.200996
vt 0.088155 -0.200996
vt 0.050618 -0.388658
vt 0.050255 -0.514893
vt 0.069871 -0.514772
vt 0.091424 -0.389624
vt 0.100263 -0.366694
vt 0.102322 -0.348833
vt 0.109829 -0.340506
vt 0.097357 -0.390107
vt 0.087307 -0.514651
vt 0.107044 -0.389503
vt 0.102443 -0.514531
vt 0.116852 -0.389865
vt 0.119274 -0.514410
vt 0.152815 -0.619646
vt 0.135257 -0.619766
vt 0.136226 -0.593337
vt 0.118426 -0.593457
vt 0.136831 -0.514289
vt 0.100506 -0.566062
vt 0.085854 -0.542771
vt 0.069144 -0.529013
vt 0.188898 -0.592975
vt 0.170735 -0.619525
vt 0.170130 -0.593095
vt 0.152451 -0.593216
vt 0.154510 -0.514169
vt 0.140464 -0.390589
vt 0.123754 -0.390589
vt 0.116731 -0.365608
vt 0.126297 -0.349074
vt 0.116368 -0.349074
vt 0.132351 -0.200634
vt 0.117458 -0.200755
vt 0.122543 -0.009955
vt 0.122543 -0.017558
vt 0.136468 -0.017437
vt 0.136468 -0.009834
vt 0.150877 -0.009714
vt 0.165165 -0.009714
vt 0.165165 -0.017317
vt 0.150877 -0.017437
vt 0.147487 -0.200514
vt 0.142522 -0.348833
vt 0.157295 -0.390589
vt 0.164560 -0.389382
vt 0.171583 -0.514048
vt 0.174126 -0.389865
vt 0.183571 -0.390348
vt 0.189383 -0.513927
vt 0.190715 -0.390348
vt 0.207667 -0.389744
vt 0.167950 -0.361143
vt 0.158748 -0.348471
vt 0.162623 -0.200514
vt 0.206819 -0.513807
vt 0.224377 -0.513686
vt 0.224619 -0.389141
vt 0.229583 -0.388900
vt 0.231642 -0.363074
vt 0.241813 -0.513565
vt 0.241086 -0.388900
vt 0.252590 -0.388900
vt 0.206335 -0.592854
vt 0.224498 -0.592733
vt 0.242176 -0.592613
vt 0.259128 -0.513445
vt 0.258038 -0.388900
vt 0.274869 -0.388900
vt 0.273659 -0.347747
vt 0.291700 -0.389020
vt 0.290005 -0.347626
vt 0.298360 -0.363074
vt 0.297997 -0.346540
vt 0.259976 -0.592492
vt 0.276807 -0.513324
vt 0.294364 -0.513203
vt 0.298844 -0.388417
vt 0.312406 -0.513083
vt 0.329600 -0.512962
vt 0.331295 -0.592009
vt 0.314586 -0.592130
vt 0.295454 -0.592251
vt 0.314222 -0.618559
vt 0.295454 -0.618801
vt 0.278018 -0.592371
vt 0.278260 -0.618801
vt 0.259492 -0.619042
vt 0.242176 -0.619042
vt 0.224982 -0.619163
vt 0.206214 -0.619284
vt 0.189141 -0.619404
vt 0.331053 -0.618559
vt 0.348005 -0.591888
vt 0.349095 -0.618318
vt 0.366289 -0.591768
vt 0.360962 -0.199065
vt 0.346310 -0.199186
vt 0.339650 -0.016110
vt 0.371859 -0.336765
vt 0.375492 -0.199065
vt 0.379730 -0.344850
vt 0.388569 -0.344971
vt 0.381909 -0.360056
vt 0.391960 -0.386969
vt 0.385905 -0.386848
vt 0.399467 -0.512479
vt 0.382273 -0.512600
vt 0.399709 -0.539512
vt 0.384816 -0.563045
vt 0.366047 -0.512720
vt 0.347279 -0.512841
vt 0.376097 -0.386969
vt 0.366289 -0.387089
vt 0.359266 -0.386969
vt 0.342314 -0.387331
vt 0.365805 -0.360539
vt 0.408912 -0.386607
vt 0.404916 -0.344971
vt 0.389417 -0.198945
vt 0.366532 -0.015869
vt 0.353091 -0.015989
vt 0.352970 -0.008386
vt 0.339650 -0.008507
vt 0.325726 -0.008628
vt 0.366410 -0.008266
vt 0.378398 -0.008266
vt 0.379124 -0.015869
vt 0.390385 -0.008145
vt 0.391717 -0.015748
vt 0.403221 -0.198824
vt 0.421383 -0.344971
vt 0.425864 -0.386124
vt 0.420173 -0.512358
vt 0.421989 -0.525634
vt 0.443784 -0.512238
vt 0.249805 -0.362349
vt 0.257312 -0.347867
vt 0.270631 -0.199669
vt 0.286009 -0.199669
vt 0.304172 -0.338213
vt 0.301266 -0.199548
vt 0.316523 -0.199427
vt 0.297391 -0.016351
vt 0.311801 -0.016351
vt 0.297270 -0.008748
vt 0.311680 -0.008628
vt 0.325726 -0.016231
vt 0.311922 -0.345816
vt 0.255253 -0.199789
vt 0.339287 -0.345333
vt 0.331417 -0.199307
vt 0.355513 -0.345092
vt 0.323062 -0.345695
vt 0.314222 -0.361625
vt 0.325362 -0.387693
vt 0.317976 -0.388176
vt 0.308410 -0.388296
vt 0.365563 -0.345092
vt 0.191441 -0.348230
vt 0.193379 -0.200272
vt 0.208878 -0.200151
vt 0.183449 -0.348350
vt 0.177153 -0.339058
vt 0.178001 -0.200393
vt 0.169646 -0.347385
vt 0.183449 -0.361625
vt 0.224619 -0.348109
vt 0.224377 -0.200031
vt 0.208030 -0.348230
vt 0.232853 -0.347747
vt 0.240481 -0.338454
vt 0.239876 -0.199910
vt 0.248352 -0.347867
vt 0.179817 -0.017196
vt 0.194468 -0.017075
vt 0.209241 -0.016955
vt 0.224013 -0.016834
vt 0.238786 -0.016834
vt 0.253558 -0.016713
vt 0.268331 -0.016593
vt 0.282982 -0.016472
vt 0.282861 -0.008869
vt 0.268210 -0.008990
vt 0.253558 -0.009110
vt 0.238786 -0.009231
vt 0.224013 -0.009231
vt 0.209241 -0.009352
vt 0.194468 -0.009472
vt 0.179817 -0.009593
vt 0.430223 -0.595630
vt 0.440031 -0.615422
vt 0.430223 -0.622663
vt 0.444511 -0.605888
vt 0.445964 -0.596716
vt 0.444874 -0.587423
vt 0.440636 -0.577165
vt 0.431191 -0.568717
vt 0.602891 -0.221754
vt 0.576737 -0.104691
vt 0.615000 -0.204858
vt 0.589088 -0.231529
vt 0.546586 -0.217892
vt 0.535325 -0.200031
vt 0.526123 -0.174929
vt 0.521037 -0.150189
vt 0.518252 -0.121587
vt 0.574557 -0.234546
vt 0.560269 -0.229598
vt 0.558332 -0.246976
vt 0.542106 -0.232615
vt 0.530240 -0.210410
vt 0.519342 -0.182170
vt 0.513046 -0.154292
vt 0.510503 -0.124121
vt 0.519826 -0.102881
vt 0.528666 -0.075486
vt 0.539806 -0.055091
vt 0.533509 -0.034695
vt 0.574315 -0.251925
vt 0.590420 -0.249149
vt 0.519100 -0.056056
vt 0.508929 -0.089244
vt 0.552277 -0.041574
vt 0.565355 -0.034454
vt 0.578069 -0.033247
vt 0.625777 -0.081520
vt 0.615242 -0.059676
vt 0.633889 -0.109881
vt 0.634616 -0.129069
vt 0.549371 -0.021420
vt 0.563538 -0.015386
vt 0.578190 -0.012369
vt 0.590298 -0.035902
vt 0.603134 -0.044712
vt 0.607008 -0.025403
vt 0.592720 -0.017317
vt 0.621781 -0.040609
vt 0.635221 -0.063780
vt 0.645271 -0.097812
vt 0.642123 -0.132448
vt 0.630983 -0.156706
vt 0.624445 -0.181808
vt 0.631226 -0.190618
vt 0.619601 -0.216926
vt 0.607008 -0.236960
vt 0.638733 -0.161654
vt 0.418841 -0.277147
vt 0.436035 -0.281371
vt 0.420778 -0.287285
vt 0.444148 -0.272079
vt 0.417751 -0.266044
vt 0.449233 -0.252890
vt 0.417388 -0.255545
vt 0.417388 -0.245166
vt 0.443300 -0.234425
vt 0.417872 -0.233701
vt 0.434219 -0.226340
vt 0.419446 -0.224529
vt 0.452381 -0.364763
vt 0.437851 -0.352333
vt 0.454198 -0.344971
vt 0.452381 -0.332903
vt 0.429012 -0.339178
vt 0.452018 -0.323610
vt 0.424168 -0.323248
vt 0.428770 -0.307197
vt 0.452503 -0.314076
vt 0.437367 -0.295250
vt 0.454561 -0.302853
vt 0.452139 -0.282819
vt 0.480473 -0.047005
vt 0.490402 -0.063056
vt 0.468607 -0.037833
vt 0.498273 -0.082727
vt 0.502995 -0.106622
vt 0.456014 -0.033850
vt 0.443421 -0.037833
vt 0.504812 -0.131483
vt 0.502874 -0.156826
vt 0.431555 -0.046884
vt 0.421626 -0.062935
vt 0.413755 -0.082727
vt 0.409033 -0.106501
vt 0.407216 -0.131483
vt 0.409033 -0.156947
vt 0.413755 -0.180359
vt 0.421626 -0.200514
vt 0.431555 -0.216202
vt 0.443421 -0.225736
vt 0.456014 -0.229236
vt 0.468607 -0.225616
vt 0.480473 -0.216082
vt 0.490402 -0.200393
vt 0.498273 -0.180359
vt 0.484711 -0.239373
vt 0.492219 -0.214151
vt 0.495246 -0.243718
vt 0.501906 -0.246132
vt 0.499242 -0.197979
vt 0.506870 -0.247097
vt 0.506870 -0.189773
vt 0.515225 -0.198824
vt 0.511835 -0.246614
vt 0.522248 -0.214392
vt 0.518616 -0.244804
vt 0.529150 -0.241666
vt 0.418720 -0.557373
vt 0.423200 -0.538064
vt 0.432644 -0.561718
vt 0.428528 -0.529375
vt 0.433371 -0.527202
vt 0.437972 -0.530099
vt 0.442937 -0.539633
vt 0.446569 -0.559666
vt 0.664161 -0.039884
vt 0.660165 -0.059676
vt 0.649873 -0.038074
vt 0.655079 -0.068848
vt 0.650357 -0.071503
vt 0.645635 -0.068969
vt 0.640428 -0.060039
vt 0.636311 -0.040488
vt 0.423442 -0.599854
vt 0.413150 -0.605405
vt 0.416177 -0.574751
vt 0.406369 -0.608301
vt 0.409396 -0.558821
vt 0.401525 -0.609267
vt 0.401404 -0.550856
vt 0.393655 -0.559425
vt 0.396561 -0.608663
vt 0.387358 -0.573424
vt 0.389780 -0.606129
vt 0.379488 -0.600940
vt 0.683898 -0.525151
vt 0.687894 -0.504997
vt 0.698065 -0.528047
vt 0.692979 -0.495704
vt 0.697702 -0.492928
vt 0.702545 -0.495342
vt 0.707873 -0.504273
vt 0.712111 -0.524185
vt 0.660770 -0.249028
vt 0.650357 -0.253614
vt 0.652658 -0.224288
vt 0.643576 -0.255666
vt 0.645998 -0.208720
vt 0.638612 -0.256148
vt 0.638006 -0.199669
vt 0.629894 -0.207755
vt 0.633768 -0.255183
vt 0.623355 -0.225133
vt 0.626988 -0.252769
vt 0.616574 -0.248183
vt 0.758487 -0.379245
vt 0.744562 -0.362108
vt 0.760909 -0.358488
vt 0.762241 -0.345092
vt 0.738144 -0.348712
vt 0.762846 -0.335316
vt 0.734149 -0.331575
vt 0.738750 -0.316973
vt 0.762604 -0.325420
vt 0.745531 -0.305990
vt 0.761877 -0.311783
vt 0.760303 -0.290664
vt 0.517889 -0.035057
vt 0.513772 -0.054849
vt 0.503964 -0.032281
vt 0.508686 -0.063900
vt 0.503964 -0.066435
vt 0.499242 -0.063780
vt 0.494035 -0.054728
vt 0.489918 -0.034936
vt 0.425864 -0.029144
vt 0.421505 -0.049056
vt 0.412302 -0.026730
vt 0.416298 -0.057987
vt 0.411454 -0.060521
vt 0.406732 -0.057746
vt 0.401525 -0.048453
vt 0.397530 -0.028299
vt 0.717439 -0.133776
vt 0.716591 -0.125690
vt 0.720224 -0.086227
vt 0.713927 -0.119535
vt 0.028096 -0.188807
vt 0.028096 -0.180722
vt 0.037662 -0.180722
vt 0.028096 -0.172515
vt 0.037662 -0.172515
vt 0.732938 -0.121345
vt 0.730274 -0.127500
vt 0.726641 -0.087916
vt 0.729426 -0.135465
vt 0.037662 -0.188807
vt 0.736813 -0.118690
vt 0.037662 -0.196893
vt 0.028096 -0.196893
vt 0.709931 -0.117001
vt 0.700729 -0.101191
vt 0.705936 -0.118570
vt 0.028096 -0.107829
vt 0.028096 -0.099623
vt 0.037662 -0.099623
vt 0.694796 -0.111691
vt 0.703030 -0.124121
vt 0.028096 -0.115794
vt 0.037662 -0.115794
vt 0.037662 -0.107829
vt 0.754128 -0.130397
vt 0.743836 -0.125811
vt 0.752069 -0.113380
vt 0.740929 -0.120380
vt 0.745167 -0.133655
vt 0.037662 -0.123880
vt 0.028096 -0.123880
vt 0.692737 -0.128707
vt 0.701698 -0.131845
vt 0.693706 -0.146327
vt 0.702545 -0.139689
vt 0.028096 -0.131845
vt 0.012355 -0.167084
vt 0.022163 -0.184583
vt 0.012355 -0.184583
vt 0.022163 -0.201841
vt 0.012355 -0.201841
vt 0.705088 -0.145965
vt 0.028096 -0.140051
vt 0.037662 -0.131845
vt 0.741656 -0.147775
vt 0.744320 -0.141500
vt 0.753038 -0.148016
vt 0.037662 -0.140051
vt 0.747952 -0.163102
vt 0.740929 -0.169981
vt 0.737781 -0.150309
vt 0.037662 -0.148137
vt 0.028096 -0.148137
vt 0.705936 -0.168291
vt 0.709084 -0.148620
vt 0.712837 -0.168653
vt 0.713080 -0.146930
vt 0.028096 -0.156344
vt 0.012355 -0.120380
vt 0.022163 -0.120380
vt 0.012355 -0.133414
vt 0.698913 -0.161412
vt 0.022163 -0.133414
vt 0.012355 -0.148982
vt 0.729426 -0.174084
vt 0.733785 -0.148741
vt 0.733906 -0.170463
vt 0.022163 -0.110967
vt 0.730758 -0.143310
vt 0.726641 -0.185790
vt 0.022163 -0.098295
vt 0.012355 -0.110967
vt 0.012355 -0.098295
vt 0.717439 -0.172394
vt 0.720224 -0.183980
vt 0.716107 -0.141500
vt 0.028096 -0.164429
vt 0.037662 -0.164429
vt 0.037662 -0.156344
vt 0.022163 -0.148982
vt 0.022163 -0.167084
vt 0.022163 -0.217288
vt 0.746136 -0.102881
vt 0.022163 -0.258683
vt 0.012355 -0.258683
vt 0.012355 -0.217409
vt 0.063695 -0.595388
vt 0.063695 -0.608663
vt 0.057520 -0.595388
vt 0.016835 -0.412916
vt 0.010175 -0.405433
vt 0.017077 -0.397710
vt 0.010660 -0.421122
vt 0.063695 -0.581751
vt 0.057520 -0.581751
vt 0.057520 -0.608663
vt 0.057520 -0.622904
vt 0.063695 -0.622904
vt 0.063695 -0.540115
vt 0.063695 -0.553632
vt 0.057520 -0.540115
vt 0.057520 -0.553632
vt 0.063695 -0.567149
vt 0.057520 -0.567149
vt 0.003395 -0.397830
vt 0.003031 -0.413157
vt 0.009933 -0.389503
vt 0.050376 -0.595388
vt 0.050376 -0.608663
vt 0.044201 -0.595388
vt 0.115157 -0.616266
vt 0.108013 -0.608784
vt 0.115157 -0.601060
vt 0.108013 -0.624473
vt 0.050376 -0.581751
vt 0.044201 -0.581751
vt 0.044201 -0.608663
vt 0.044201 -0.622904
vt 0.050376 -0.622904
vt 0.050376 -0.540115
vt 0.050376 -0.553632
vt 0.044201 -0.540115
vt 0.044201 -0.553632
vt 0.050376 -0.567149
vt 0.044201 -0.567149
vt 0.101595 -0.601181
vt 0.101595 -0.616508
vt 0.108013 -0.592854
vt 0.037662 -0.595388
vt 0.037662 -0.608663
vt 0.031608 -0.595388
vt 0.026764 -0.345092
vt 0.020104 -0.337609
vt 0.027006 -0.329886
vt 0.020589 -0.353298
vt 0.037662 -0.581751
vt 0.031608 -0.581751
vt 0.031608 -0.608663
vt 0.031608 -0.622904
vt 0.037662 -0.622904
vt 0.037662 -0.540115
vt 0.037662 -0.553632
vt 0.031608 -0.540115
vt 0.031608 -0.553632
vt 0.037662 -0.567149
vt 0.031608 -0.567149
vt 0.013324 -0.330006
vt 0.012839 -0.345333
vt 0.019862 -0.321679
vt 0.012355 -0.595388
vt 0.012355 -0.608663
vt 0.006180 -0.595388
vt 0.094815 -0.618801
vt 0.087670 -0.611318
vt 0.094815 -0.603595
vt 0.087670 -0.627007
vt 0.012355 -0.581751
vt 0.006180 -0.581751
vt 0.006180 -0.608663
vt 0.006180 -0.622904
vt 0.012355 -0.622904
vt 0.012355 -0.540115
vt 0.012355 -0.553632
vt 0.006180 -0.540115
vt 0.006180 -0.553632
vt 0.012355 -0.567149
vt 0.006180 -0.567149
vt 0.080769 -0.603715
vt 0.080769 -0.619042
vt 0.087670 -0.595388
vt 0.025311 -0.595388
vt 0.025311 -0.608663
vt 0.019136 -0.595388
vt 0.020468 -0.377314
vt 0.013687 -0.369952
vt 0.020589 -0.362108
vt 0.014171 -0.385641
vt 0.025311 -0.581751
vt 0.019136 -0.581751
vt 0.019136 -0.608663
vt 0.019136 -0.622904
vt 0.025311 -0.622904
vt 0.025311 -0.540115
vt 0.025311 -0.553632
vt 0.019136 -0.540115
vt 0.019136 -0.553632
vt 0.025311 -0.567149
vt 0.019136 -0.567149
vt 0.006906 -0.362229
vt 0.006543 -0.377676
vt 0.013445 -0.354022
vt 0.075562 -0.595388
vt 0.075562 -0.608663
vt 0.069386 -0.595388
vt 0.093483 -0.579820
vt 0.086339 -0.572459
vt 0.093483 -0.564614
vt 0.086339 -0.588147
vt 0.075562 -0.581751
vt 0.069386 -0.581751
vt 0.069386 -0.608663
vt 0.069386 -0.622904
vt 0.075562 -0.622904
vt 0.075562 -0.540115
vt 0.075562 -0.553632
vt 0.069386 -0.540115
vt 0.069386 -0.553632
vt 0.075562 -0.567149
vt 0.069386 -0.567149
vt 0.079800 -0.564735
vt 0.079800 -0.580182
vt 0.086339 -0.556528
vt 0.905606 -0.420157
vt 0.991941 -0.500894
vt 0.905606 -0.501014
vt 0.991820 -0.015869
vt 0.991820 -0.096726
vt 0.905364 -0.015989
vt 0.991941 -0.420036
vt 0.905606 -0.339420
vt 0.905485 -0.258803
vt 0.991820 -0.339299
vt 0.991820 -0.258683
vt 0.991941 -0.177704
vt 0.905364 -0.177825
vt 0.905364 -0.096847
s 1
usemtl jagdgun
f 1/1/1 2/2/2 3/3/3
f 4/4/4 5/5/5 6/6/6
f 5/5/5 4/4/4 7/7/7
f 4/4/4 8/8/8 7/7/7
f 7/7/7 8/8/8 9/9/9
f 9/9/9 8/8/8 2/2/2
f 8/8/8 10/10/10 2/2/2
f 2/2/2 10/10/10 3/3/3
f 10/10/10 11/11/11 3/3/3
f 3/3/3 11/11/11 12/12/12
f 11/11/11 13/13/13 12/12/12
f 13/13/13 14/14/14 12/12/12
f 12/12/12 14/14/14 15/15/15
f 14/14/14 16/16/16 15/15/15
f 15/15/15 16/16/16 17/17/17
f 16/16/16 18/18/18 17/17/17
f 17/17/17 18/18/18 19/19/19
f 19/19/19 18/18/18 20/20/20
f 18/18/18 21/21/21 20/20/20
f 22/22/22 5/5/5 7/7/7
f 23/23/23 24/24/24 25/25/25
f 25/25/25 26/26/26 23/23/23
f 26/26/26 27/27/27 23/23/23
f 26/26/26 28/28/28 27/27/27
f 28/28/28 29/29/29 27/27/27
f 27/27/27 29/29/29 30/30/30
f 29/29/29 13/13/13 30/30/30
f 13/13/13 11/11/11 30/30/30
f 11/11/11 10/10/10 30/30/30
f 10/10/10 8/8/8 30/30/30
f 30/30/30 8/8/8 31/31/31
f 8/8/8 4/4/4 31/31/31
f 31/31/31 4/4/4 6/6/6
f 31/31/31 6/6/6 24/24/24
f 23/23/23 31/31/31 24/24/24
f 27/27/27 31/31/31 23/23/23
f 27/27/27 30/30/30 31/31/31
f 32/32/32 28/28/28 26/26/26
f 21/21/21 32/32/32 20/20/20
f 20/20/20 32/32/32 33/33/33
f 33/33/33 32/32/32 26/26/26
f 33/33/33 26/26/26 34/34/34
f 34/34/34 26/26/26 25/25/25
f 25/25/25 35/35/35 34/34/34
f 24/24/24 35/35/35 25/25/25
f 36/36/36 35/35/35 24/24/24
f 37/37/37 36/36/36 24/24/24
f 24/24/24 6/6/6 37/37/37
f 6/6/6 38/38/38 37/37/37
f 36/36/36 39/39/39 35/35/35
f 34/34/34 35/35/35 40/40/40
f 35/35/35 39/39/39 40/40/40
f 39/39/39 41/41/41 40/40/40
f 40/40/40 41/41/41 42/42/42
f 41/41/41 43/43/43 42/42/42
f 42/42/42 43/43/43 44/44/44
f 45/45/45 46/46/46 47/47/47
f 46/46/46 48/48/48 47/47/47
f 47/47/47 48/48/48 49/49/49
f 49/49/49 48/48/48 44/44/44
f 48/48/48 50/50/50 44/44/44
f 44/44/44 50/50/50 42/42/42
f 50/50/50 51/51/51 42/42/42
f 42/42/42 51/51/51 40/40/40
f 51/51/51 52/52/52 40/40/40
f 40/40/40 52/52/52 34/34/34
f 52/52/52 33/33/33 34/34/34
f 53/53/53 54/54/54 55/55/55
f 54/54/54 45/45/45 55/55/55
f 55/55/55 45/45/45 56/56/56
f 56/56/56 45/45/45 47/47/47
f 47/47/47 57/57/57 56/56/56
f 49/49/49 57/57/57 47/47/47
f 58/58/58 57/57/57 49/49/49
f 44/44/44 58/58/58 49/49/49
f 59/59/59 58/58/58 44/44/44
f 43/43/43 59/59/59 44/44/44
f 60/60/60 59/59/59 43/43/43
f 61/61/61 59/59/59 60/60/60
f 62/62/62 61/61/61 60/60/60
f 63/63/63 61/61/61 62/62/62
f 38/38/38 63/63/63 62/62/62
f 64/64/64 63/63/63 38/38/38
f 6/6/6 64/64/64 38/38/38
f 5/5/5 64/64/64 6/6/6
f 22/22/22 65/65/65 5/5/5
f 65/65/65 66/66/66 5/5/5
f 5/5/5 66/66/66 64/64/64
f 64/64/64 66/66/66 63/63/63
f 63/63/63 66/66/66 67/67/67
f 66/66/66 65/65/65 67/67/67
f 65/65/65 68/68/68 67/67/67
f 68/68/68 69/69/69 67/67/67
f 69/69/69 70/70/70 71/71/71
f 72/72/72 69/69/69 71/71/71
f 67/67/67 69/69/69 72/72/72
f 73/73/73 67/67/67 72/72/72
f 63/63/63 67/67/67 73/73/73
f 61/61/61 63/63/63 73/73/73
f 74/74/74 61/61/61 73/73/73
f 59/59/59 61/61/61 74/74/74
f 58/58/58 59/59/59 74/74/74
f 58/58/58 74/74/74 75/75/75
f 57/57/57 58/58/58 75/75/75
f 76/76/76 57/57/57 75/75/75
f 77/77/77 57/57/57 76/76/76
f 78/78/78 77/77/77 76/76/76
f 79/79/79 77/77/77 78/78/78
f 80/80/80 77/77/77 79/79/79
f 81/81/81 80/80/80 79/79/79
f 82/82/82 80/80/80 81/81/81
f 76/76/76 75/75/75 83/83/83
f 75/75/75 84/84/84 83/83/83
f 75/75/75 74/74/74 84/84/84
f 74/74/74 73/73/73 84/84/84
f 84/84/84 73/73/73 85/85/85
f 73/73/73 72/72/72 85/85/85
f 72/72/72 71/71/71 85/85/85
f 86/86/86 80/80/80 82/82/82
f 87/87/87 86/86/86 82/82/82
f 82/82/82 88/88/88 87/87/87
f 88/88/88 89/89/89 87/87/87
f 90/90/90 89/89/89 88/88/88
f 87/87/87 89/89/89 91/91/91
f 89/89/89 92/92/92 91/91/91
f 92/92/92 93/93/93 91/91/91
f 56/56/56 57/57/57 55/55/55
f 57/57/57 77/77/77 55/55/55
f 55/55/55 77/77/77 53/53/53
f 77/77/77 80/80/80 53/53/53
f 53/53/53 80/80/80 94/94/94
f 80/80/80 86/86/86 94/94/94
f 94/94/94 86/86/86 95/95/95
f 86/86/86 87/87/87 95/95/95
f 95/95/95 87/87/87 96/96/96
f 87/87/87 91/91/91 96/96/96
f 91/91/91 97/97/97 96/96/96
f 93/93/93 97/97/97 91/91/91
f 97/97/97 93/93/93 98/98/98
f 99/99/99 97/97/97 98/98/98
f 98/98/98 100/100/100 99/99/99
f 100/100/100 101/101/101 99/99/99
f 102/102/102 101/101/101 100/100/100
f 102/102/102 103/103/103 101/101/101
f 104/104/104 103/103/103 102/102/102
f 96/96/96 97/97/97 105/105/105
f 97/97/97 106/106/106 105/105/105
f 106/106/106 97/97/97 99/99/99
f 107/107/107 106/106/106 99/99/99
f 99/99/99 101/101/101 107/107/107
f 101/101/101 108/108/108 107/107/107
f 103/103/103 108/108/108 101/101/101
f 109/109/109 110/110/110 111/111/111
f 112/112/112 109/109/109 111/111/111
f 113/113/113 109/109/109 112/112/112
f 112/112/112 114/114/114 113/113/113
f 114/114/114 115/115/115 113/113/113
f 113/113/113 115/115/115 116/116/116
f 115/115/115 117/117/117 116/116/116
f 116/116/116 117/117/117 105/105/105
f 117/117/117 118/118/118 105/105/105
f 105/105/105 118/118/118 96/96/96
f 118/118/118 119/119/119 96/96/96
f 119/119/119 120/120/120 96/96/96
f 96/96/96 120/120/120 95/95/95
f 120/120/120 121/121/121 95/95/95
f 95/95/95 121/121/121 94/94/94
f 121/121/121 122/122/122 94/94/94
f 94/94/94 122/122/122 53/53/53
f 122/122/122 54/54/54 53/53/53
f 123/123/123 114/114/114 112/112/112
f 111/111/111 123/123/123 112/112/112
f 124/124/124 123/123/123 111/111/111
f 125/125/125 123/123/123 124/124/124
f 126/126/126 125/125/125 124/124/124
f 127/127/127 128/128/128 129/129/129
f 127/127/127 130/130/130 128/128/128
f 131/131/131 130/130/130 127/127/127
f 132/132/132 130/130/130 131/131/131
f 133/133/133 132/132/132 131/131/131
f 134/134/134 132/132/132 133/133/133
f 135/135/135 134/134/134 133/133/133
f 136/136/136 134/134/134 135/135/135
f 136/136/136 135/135/135 137/137/137
f 138/138/138 136/136/136 137/137/137
f 137/137/137 139/139/139 138/138/138
f 139/139/139 140/140/140 138/138/138
f 138/138/138 140/140/140 141/141/141
f 140/140/140 126/126/126 141/141/141
f 141/141/141 126/126/126 142/142/142
f 142/142/142 126/126/126 124/124/124
f 124/124/124 110/110/110 142/142/142
f 111/111/111 110/110/110 124/124/124
f 143/143/143 136/136/136 138/138/138
f 144/144/144 143/143/143 138/138/138
f 141/141/141 144/144/144 138/138/138
f 145/145/145 144/144/144 141/141/141
f 142/142/142 145/145/145 141/141/141
f 146/146/146 145/145/145 142/142/142
f 110/110/110 146/146/146 142/142/142
f 147/147/147 144/144/144 145/145/145
f 135/135/135 133/133/133 148/148/148
f 148/148/148 133/133/133 149/149/149
f 149/149/149 133/133/133 150/150/150
f 133/133/133 131/131/131 150/150/150
f 150/150/150 131/131/131 151/151/151
f 151/151/151 131/131/131 152/152/152
f 152/152/152 153/153/153 151/151/151
f 129/129/129 153/153/153 152/152/152
f 154/154/154 153/153/153 129/129/129
f 155/155/155 154/154/154 129/129/129
f 131/131/131 127/127/127 152/152/152
f 152/152/152 127/127/127 129/129/129
f 153/153/153 156/156/156 151/151/151
f 156/156/156 157/157/157 151/151/151
f 151/151/151 157/157/157 158/158/158
f 158/158/158 150/150/150 151/151/151
f 157/157/157 1/159/1 3/160/3
f 157/157/157 3/160/3 158/158/158
f 3/160/3 12/161/12 158/158/158
f 12/161/12 150/150/150 158/158/158
f 12/161/12 15/162/15 150/150/150
f 150/150/150 15/162/15 149/149/149
f 15/162/15 17/163/17 149/149/149
f 149/149/149 17/163/17 148/148/148
f 148/148/148 17/163/17 159/164/159
f 159/164/159 135/135/135 148/148/148
f 137/137/137 135/135/135 159/164/159
f 160/165/160 139/139/139 137/137/137
f 159/164/159 160/165/160 137/137/137
f 19/166/19 160/165/160 159/164/159
f 17/163/17 19/166/19 159/164/159
f 93/93/93 161/167/161 98/98/98
f 98/98/98 161/167/161 162/168/162
f 162/168/162 100/100/100 98/98/98
f 163/169/163 100/100/100 162/168/162
f 102/102/102 100/100/100 163/169/163
f 164/170/164 102/102/102 163/169/163
f 164/170/164 104/104/104 102/102/102
f 165/171/165 104/104/104 164/170/164
f 166/172/166 165/171/165 164/170/164
f 167/173/167 165/171/165 166/172/166
f 166/172/166 168/174/168 167/173/167
f 168/174/168 169/175/169 167/173/167
f 168/174/168 170/176/170 169/175/169
f 170/176/170 171/177/171 169/175/169
f 171/177/171 155/155/155 169/175/169
f 169/175/169 155/155/155 172/178/172
f 172/178/172 155/155/155 129/129/129
f 129/129/129 128/128/128 172/178/172
f 173/179/173 165/171/165 167/173/167
f 162/168/162 174/180/174 163/169/163
f 175/181/175 176/182/176 177/183/177
f 177/183/177 176/182/176 128/128/128
f 128/128/128 176/182/176 172/178/172
f 172/178/172 176/182/176 169/175/169
f 169/175/169 176/182/176 167/173/167
f 176/182/176 178/184/178 167/173/167
f 167/173/167 178/184/178 173/179/173
f 178/184/178 179/185/179 173/179/173
f 179/185/179 178/184/178 180/186/180
f 181/187/181 179/185/179 180/186/180
f 180/186/180 178/184/178 175/181/175
f 178/184/178 176/182/176 175/181/175
f 105/105/105 106/106/106 116/116/116
f 106/106/106 107/107/107 116/116/116
f 116/116/116 107/107/107 113/113/113
f 107/107/107 109/109/109 113/113/113
f 108/108/108 109/109/109 107/107/107
f 108/108/108 182/188/182 109/109/109
f 182/188/182 181/187/181 109/109/109
f 109/109/109 181/187/181 110/110/110
f 181/187/181 180/186/180 110/110/110
f 110/110/110 180/186/180 146/146/146
f 180/186/180 175/181/175 146/146/146
f 146/146/146 175/181/175 145/145/145
f 175/181/175 177/183/177 145/145/145
f 177/183/177 147/147/147 145/145/145
f 183/189/183 147/147/147 177/183/177
f 128/128/128 183/189/183 177/183/177
f 130/130/130 183/189/183 128/128/128
f 184/190/184 185/191/185 186/192/186
f 185/191/185 184/190/184 187/193/187
f 188/194/188 185/191/185 187/193/187
f 188/194/188 189/195/189 185/191/185
f 85/85/85 189/195/189 188/194/188
f 190/196/190 85/85/85 188/194/188
f 84/84/84 85/85/85 190/196/190
f 83/83/83 84/84/84 190/196/190
f 187/193/187 184/190/184 191/197/191
f 192/198/192 186/192/186 193/199/193
f 194/200/194 186/192/186 192/198/192
f 194/200/194 184/190/184 186/192/186
f 184/190/184 194/200/194 81/81/81
f 184/190/184 81/81/81 191/197/191
f 191/197/191 81/81/81 79/79/79
f 81/81/81 194/200/194 82/82/82
f 194/200/194 88/88/88 82/82/82
f 88/88/88 194/200/194 192/198/192
f 192/198/192 90/90/90 88/88/88
f 195/201/195 90/90/90 192/198/192
f 193/199/193 195/201/195 192/198/192
f 196/202/196 195/201/195 193/199/193
f 197/203/197 196/202/196 193/199/193
f 174/180/174 196/202/196 197/203/197
f 198/204/198 196/202/196 174/180/174
f 162/168/162 198/204/198 174/180/174
f 161/167/161 198/204/198 162/168/162
f 85/85/85 71/71/71 189/195/189
f 71/71/71 199/205/199 189/195/189
f 189/195/189 199/205/199 185/191/185
f 185/191/185 199/205/199 200/206/200
f 185/191/185 200/206/200 186/192/186
f 186/192/186 200/206/200 201/207/201
f 186/192/186 201/207/201 193/199/193
f 201/207/201 202/208/202 193/199/193
f 193/199/193 202/208/202 197/203/197
f 202/208/202 203/209/203 197/203/197
f 197/203/197 203/209/203 174/180/174
f 203/209/203 204/210/204 174/180/174
f 174/180/174 204/210/204 163/169/163
f 204/210/204 205/211/205 163/169/163
f 163/169/163 205/211/205 164/170/164
f 205/211/205 206/212/206 164/170/164
f 164/170/164 206/212/206 166/172/166
f 206/212/206 168/174/168 166/172/166
f 206/212/206 170/176/170 168/174/168
f 207/213/207 170/176/170 206/212/206
f 208/214/208 207/213/207 206/212/206
f 205/211/205 208/214/208 206/212/206
f 204/210/204 208/214/208 205/211/205
f 209/215/209 208/214/208 204/210/204
f 210/216/210 209/215/209 204/210/204
f 203/209/203 210/216/210 204/210/204
f 202/208/202 210/216/210 203/209/203
f 211/217/211 210/216/210 202/208/202
f 212/218/212 211/217/211 202/208/202
f 201/207/201 212/218/212 202/208/202
f 200/206/200 212/218/212 201/207/201
f 213/219/213 212/218/212 200/206/200
f 214/220/214 213/219/213 200/206/200
f 199/205/199 214/220/214 200/206/200
f 71/71/71 214/220/214 199/205/199
f 70/70/70 214/220/214 71/71/71
f 92/221/215 215/222/215 93/223/215
f 216/224/215 215/222/215 92/221/215
f 217/225/215 216/224/215 92/221/215
f 218/226/215 217/225/215 92/221/215
f 219/227/215 218/226/215 92/221/215
f 89/228/215 219/227/215 92/221/215
f 220/229/216 221/230/217 222/231/218
f 223/232/219 221/230/217 220/229/216
f 224/233/220 225/234/221 221/230/217
f 225/234/221 226/235/222 221/230/217
f 221/230/217 226/235/222 227/236/223
f 227/236/223 228/237/224 221/230/217
f 223/232/219 229/238/225 221/230/217
f 229/238/225 230/239/226 221/230/217
f 230/239/226 224/233/220 221/230/217
f 224/233/220 230/239/226 118/240/227
f 117/241/228 224/233/220 118/240/227
f 225/234/221 224/233/220 117/241/228
f 115/242/229 225/234/221 117/241/228
f 226/235/222 225/234/221 115/242/229
f 114/243/230 226/235/222 115/242/229
f 227/236/223 226/235/222 114/243/230
f 123/244/231 227/236/223 114/243/230
f 125/245/232 227/236/223 123/244/231
f 125/245/232 228/237/224 227/236/223
f 231/246/233 228/237/224 125/245/232
f 228/237/224 231/246/233 221/230/217
f 231/246/233 232/247/234 221/230/217
f 232/247/234 233/248/235 221/230/217
f 233/248/235 232/247/234 139/249/236
f 119/250/237 229/238/225 120/251/238
f 118/240/227 229/238/225 119/250/237
f 118/240/227 230/239/226 229/238/225
f 139/249/236 232/247/234 140/252/239
f 140/252/239 232/247/234 126/253/240
f 232/247/234 231/246/233 126/253/240
f 126/253/240 231/246/233 125/245/232
f 233/248/235 234/254/241 221/230/217
f 234/254/241 235/255/242 221/230/217
f 221/230/217 235/255/242 236/256/243
f 237/257/244 221/230/217 238/258/245
f 239/259/246 221/230/217 237/257/244
f 239/259/246 240/260/247 221/230/217
f 160/261/248 233/248/235 139/249/236
f 234/254/241 233/248/235 160/261/248
f 19/262/249 234/254/241 160/261/248
f 235/255/242 234/254/241 19/262/249
f 20/263/250 235/255/242 19/262/249
f 236/256/243 235/255/242 20/263/250
f 241/264/251 236/256/243 20/263/250
f 221/230/217 236/256/243 241/264/251
f 242/265/252 221/230/217 241/264/251
f 238/258/245 221/230/217 242/265/252
f 238/258/245 242/265/252 52/266/253
f 52/266/253 242/265/252 33/267/254
f 242/265/252 241/264/251 33/267/254
f 33/267/254 241/264/251 20/263/250
f 51/268/255 238/258/245 52/266/253
f 51/268/255 50/269/256 238/258/245
f 238/258/245 50/269/256 237/257/244
f 50/269/256 48/270/257 237/257/244
f 237/257/244 48/270/257 239/259/246
f 48/270/257 46/271/258 239/259/246
f 46/271/258 240/260/247 239/259/246
f 46/271/258 243/272/259 240/260/247
f 240/260/247 243/272/259 221/230/217
f 243/272/259 244/273/260 221/230/217
f 221/230/217 244/273/260 222/231/218
f 222/231/218 244/273/260 54/274/261
f 122/275/262 222/231/218 54/274/261
f 220/229/216 222/231/218 122/275/262
f 121/276/263 220/229/216 122/275/262
f 120/251/238 220/229/216 121/276/263
f 120/251/238 223/232/219 220/229/216
f 229/238/225 223/232/219 120/251/238
f 244/273/260 243/272/259 54/274/261
f 54/274/261 243/272/259 45/277/264
f 45/277/264 243/272/259 46/271/258
f 215/278/265 161/279/266 93/280/267
f 198/281/268 161/279/266 215/278/265
f 216/282/269 198/281/268 215/278/265
f 196/283/270 198/281/268 216/282/269
f 217/284/271 196/283/270 216/282/269
f 218/285/272 196/283/270 217/284/271
f 195/286/273 196/283/270 218/285/272
f 219/287/274 195/286/273 218/285/272
f 90/288/275 195/286/273 219/287/274
f 89/289/276 90/288/275 219/287/274
f 144/290/277 147/291/278 245/292/279
f 245/292/279 147/291/278 246/293/280
f 147/291/278 183/294/281 246/293/280
f 246/293/280 183/294/281 247/295/282
f 183/294/281 130/296/283 247/295/282
f 130/296/283 132/297/284 247/295/282
f 247/295/282 132/297/284 248/298/285
f 132/297/284 134/299/286 248/298/285
f 248/298/285 134/299/286 249/300/287
f 134/299/286 136/301/288 249/300/287
f 157/302/215 156/303/215 1/304/215
f 156/303/215 153/305/215 1/304/215
f 153/305/215 154/306/215 1/304/215
f 1/304/215 154/306/215 2/307/215
f 2/307/215 154/306/215 9/308/215
f 154/306/215 155/309/215 9/308/215
f 155/309/215 171/310/215 9/308/215
f 9/308/215 171/310/215 7/311/215
f 7/311/215 171/310/215 22/312/215
f 22/312/215 171/310/215 65/313/215
f 65/313/215 171/310/215 68/314/215
f 68/314/215 171/310/215 69/315/215
f 69/315/215 171/310/215 70/316/215
f 70/316/215 171/310/215 214/317/215
f 214/317/215 171/310/215 213/318/215
f 213/318/215 171/310/215 212/319/215
f 212/319/215 171/310/215 211/320/215
f 211/320/215 171/310/215 210/321/215
f 210/321/215 171/310/215 209/322/215
f 209/322/215 171/310/215 208/323/215
f 208/323/215 171/310/215 207/324/215
f 171/310/215 170/325/215 207/324/215
f 108/326/289 103/327/290 250/328/291
f 250/328/291 103/327/290 251/329/292
f 103/327/290 104/330/293 251/329/292
f 251/329/292 104/330/293 252/331/294
f 104/330/293 165/332/295 252/331/294
f 165/332/295 173/333/296 252/331/294
f 252/331/294 173/333/296 253/334/297
f 173/333/296 179/335/298 253/334/297
f 253/334/297 179/335/298 254/336/299
f 179/335/298 181/337/300 254/336/299
f 144/338/215 245/339/215 143/340/215
f 245/339/215 246/341/215 143/340/215
f 246/341/215 247/342/215 143/340/215
f 247/342/215 248/343/215 143/340/215
f 248/343/215 249/344/215 143/340/215
f 143/340/215 249/344/215 136/345/215
f 108/346/215 250/347/215 182/348/215
f 250/347/215 251/349/215 182/348/215
f 251/349/215 252/350/215 182/348/215
f 252/350/215 253/351/215 182/348/215
f 253/351/215 254/352/215 182/348/215
f 182/348/215 254/352/215 181/353/215
f 32/354/301 255/355/302 28/356/303
f 255/355/302 256/357/304 28/356/303
f 28/356/303 256/357/304 29/358/305
f 256/357/304 257/359/306 29/358/305
f 29/358/305 257/359/306 13/360/307
f 13/360/307 257/359/306 14/361/308
f 257/359/306 258/362/309 14/361/308
f 14/361/308 258/362/309 16/363/310
f 258/362/309 259/364/311 16/363/310
f 16/363/310 259/364/311 18/365/312
f 18/366/215 259/367/215 21/368/215
f 259/367/215 258/369/215 21/368/215
f 258/369/215 257/370/215 21/368/215
f 257/370/215 256/371/215 21/368/215
f 256/371/215 255/372/215 21/368/215
f 21/368/215 255/372/215 32/373/215
f 43/374/313 260/375/314 60/376/315
f 260/375/314 261/377/316 60/376/315
f 60/376/315 261/377/316 62/378/317
f 261/377/316 262/379/318 62/378/317
f 62/378/317 262/379/318 38/380/319
f 38/380/319 262/379/318 37/381/320
f 262/379/318 263/382/321 37/381/320
f 37/381/320 263/382/321 36/383/322
f 263/382/321 264/384/323 36/383/322
f 36/383/322 264/384/323 39/385/324
f 76/386/325 83/387/326 265/388/327
f 265/388/327 83/387/326 266/389/328
f 83/387/326 190/390/329 266/389/328
f 266/389/328 190/390/329 267/391/330
f 190/390/329 188/392/331 267/391/330
f 188/392/331 187/393/332 267/391/330
f 267/391/330 187/393/332 268/394/333
f 187/393/332 191/395/334 268/394/333
f 268/394/333 191/395/334 269/396/335
f 191/395/334 79/397/336 269/396/335
f 39/398/337 264/399/338 41/400/339
f 264/399/338 263/401/340 41/400/339
f 263/401/340 262/402/341 41/400/339
f 262/402/341 261/403/342 41/400/339
f 261/403/342 260/404/343 41/400/339
f 41/400/339 260/404/343 43/405/344
f 76/406/215 265/407/345 78/408/346
f 265/407/345 266/409/215 78/408/346
f 266/409/215 267/410/347 78/408/346
f 267/410/347 268/411/215 78/408/346
f 268/411/215 269/412/215 78/408/346
f 78/408/346 269/412/215 79/413/215
f 273/414/348 270/415/349 271/416/349
f 270/415/349 272/417/349 271/416/349
f 272/418/350 270/419/351 275/420/351
f 270/419/351 273/421/352 274/422/353
f 275/420/351 270/419/351 274/422/353
f 277/423/354 275/424/354 276/425/354
f 276/425/354 275/424/354 274/426/355
f 277/427/356 272/418/350 275/420/351
f 278/428/354 277/423/354 276/425/354
f 278/429/357 279/430/358 277/427/356
f 279/430/358 272/418/350 277/427/356
f 271/416/349 279/431/349 280/432/349
f 279/431/349 281/433/349 280/432/349
f 281/434/359 279/435/358 278/436/357
f 272/417/349 279/431/349 271/416/349
f 280/432/349 281/433/349 282/437/349
f 281/433/349 283/438/349 282/437/349
f 283/439/360 281/434/359 285/440/361
f 284/441/359 281/434/359 278/436/357
f 285/440/361 281/434/359 284/441/359
f 287/442/354 285/443/354 286/444/354
f 285/443/354 284/445/354 286/444/354
f 288/446/354 285/443/354 287/442/354
f 288/447/362 289/448/362 285/440/361
f 289/448/362 283/439/360 285/440/361
f 292/449/349 289/450/349 290/451/349
f 289/450/349 291/452/348 290/451/349
f 291/453/11 289/448/362 288/447/362
f 283/438/349 289/450/349 292/449/349
f 290/454/363 287/455/364 292/456/364
f 282/437/349 283/438/349 292/449/349
f 292/456/364 286/457/365 282/458/365
f 287/455/364 286/457/365 292/456/364
f 291/452/348 293/459/348 290/451/349
f 293/460/366 291/453/11 294/461/367
f 294/461/367 291/453/11 288/447/362
f 296/462/355 294/463/354 295/464/354
f 294/463/354 288/446/354 295/464/354
f 296/465/368 293/460/366 294/461/367
f 297/466/354 296/462/355 295/464/354
f 298/467/355 296/462/355 297/466/354
f 299/468/355 296/462/355 298/467/355
f 299/469/369 300/470/370 296/465/368
f 300/470/370 293/460/366 296/465/368
f 303/471/348 300/472/348 301/473/348
f 300/472/348 302/474/348 301/473/348
f 302/475/371 300/470/370 299/469/369
f 293/459/348 300/472/348 303/471/348
f 301/476/372 305/477/373 303/478/374
f 304/479/348 293/459/348 303/471/348
f 303/478/374 298/480/375 304/481/376
f 305/477/373 298/480/375 303/478/374
f 307/482/355 306/483/355 305/484/355
f 306/483/355 299/468/355 305/484/355
f 305/484/355 299/468/355 298/467/355
f 307/485/377 305/477/373 301/476/372
f 308/486/355 306/483/355 307/482/355
f 274/426/355 308/486/355 307/482/355
f 307/482/355 309/487/355 274/426/355
f 309/488/378 307/485/377 310/489/379
f 310/489/379 307/485/377 301/476/372
f 311/490/378 309/488/378 310/489/380
f 310/491/349 273/414/348 311/492/348
f 273/414/348 310/491/349 312/493/349
f 312/493/349 310/491/349 302/474/348
f 301/473/348 302/474/348 310/491/349
f 273/421/352 312/494/381 308/495/382
f 312/494/381 302/475/371 306/496/383
f 308/495/382 312/494/381 306/496/383
f 311/492/348 273/414/348 271/416/349
f 309/487/355 276/425/354 274/426/355
f 274/422/353 273/421/352 308/495/382
f 306/496/383 302/475/371 299/469/369
f 290/451/349 293/459/348 304/479/348
f 304/481/376 297/497/376 290/454/363
f 298/480/375 297/497/376 304/481/376
f 297/497/376 295/498/363 290/454/363
f 295/498/363 287/455/364 290/454/363
f 295/464/354 288/446/354 287/442/354
f 286/457/365 313/499/384 282/458/365
f 286/444/354 284/445/354 313/500/354
f 313/499/385 276/501/215 271/502/215
f 313/500/354 278/428/354 276/425/354
f 284/445/354 278/428/354 313/500/354
f 282/458/365 313/499/384 280/503/371
f 280/503/371 313/499/384 271/502/215
f 314/504/386 315/505/387 319/506/386
f 314/507/388 316/508/389 315/509/390
f 316/508/389 314/507/388 317/510/391
f 317/511/392 314/504/386 318/512/393
f 318/512/393 314/504/386 319/506/386
f 319/506/386 315/505/387 320/513/394
f 320/513/394 315/505/387 321/514/395
f 315/505/387 322/515/396 321/514/395
f 322/516/396 323/517/397 321/518/395
f 321/518/395 323/517/397 324/519/355
f 323/517/397 325/520/398 324/519/355
f 324/519/355 325/520/398 326/521/399
f 326/521/399 325/520/398 318/512/393
f 323/522/400 316/508/389 325/523/401
f 325/523/401 316/508/389 317/510/391
f 325/520/398 317/511/392 318/512/393
f 322/524/402 316/508/389 323/522/400
f 315/509/390 316/508/389 322/524/402
f 327/525/348 328/526/394 332/527/386
f 327/528/388 329/529/403 328/530/404
f 329/529/403 327/528/388 330/531/391
f 330/532/392 327/525/348 331/533/405
f 331/533/405 327/525/348 332/527/386
f 332/527/386 328/526/394 333/534/387
f 333/534/387 328/526/394 334/535/395
f 328/526/394 335/536/406 334/535/395
f 335/537/406 336/538/397 334/539/395
f 334/539/395 336/538/397 337/540/397
f 336/538/397 338/541/407 337/540/397
f 337/540/397 338/541/407 339/542/399
f 339/542/399 338/541/407 331/533/405
f 336/543/400 329/529/403 338/544/401
f 338/544/401 329/529/403 330/531/391
f 338/541/407 330/532/392 331/533/405
f 335/545/402 329/529/403 336/543/400
f 328/530/404 329/529/403 335/545/402
f 340/546/386 341/547/387 345/548/386
f 340/549/388 342/550/389 341/551/404
f 342/550/389 340/549/388 343/552/408
f 343/553/409 340/546/386 344/554/393
f 344/554/393 340/546/386 345/548/386
f 345/548/386 341/547/387 346/555/410
f 346/555/410 341/547/387 347/556/395
f 341/547/387 348/557/396 347/556/395
f 348/558/396 349/559/397 347/560/395
f 347/560/395 349/559/397 350/561/355
f 349/559/397 351/562/398 350/561/355
f 350/561/355 351/562/398 352/563/398
f 352/563/398 351/562/398 344/554/393
f 349/564/400 342/550/389 351/565/401
f 351/565/401 342/550/389 343/552/408
f 351/562/398 343/553/409 344/554/393
f 348/566/402 342/550/389 349/564/400
f 341/551/404 342/550/389 348/566/402
f 353/567/386 354/568/394 358/569/386
f 353/570/388 355/571/389 354/572/411
f 355/571/389 353/570/388 356/573/391
f 356/574/392 353/567/386 357/575/393
f 357/575/393 353/567/386 358/569/386
f 358/569/386 354/568/394 359/576/394
f 359/576/394 354/568/394 360/577/396
f 354/568/394 361/578/406 360/577/396
f 361/579/406 362/580/397 360/581/396
f 360/581/396 362/580/397 363/582/355
f 362/580/397 364/583/398 363/582/355
f 363/582/355 364/583/398 365/584/398
f 365/584/398 364/583/398 357/575/393
f 362/585/400 355/571/389 364/586/401
f 364/586/401 355/571/389 356/573/391
f 364/583/398 356/574/392 357/575/393
f 361/587/402 355/571/389 362/585/400
f 354/572/411 355/571/389 361/587/402
f 366/588/386 367/589/394 371/590/386
f 366/591/412 368/592/413 367/593/404
f 368/592/413 366/591/412 369/594/414
f 369/595/393 366/588/386 370/596/415
f 370/596/415 366/588/386 371/590/386
f 371/590/386 367/589/394 372/597/387
f 372/597/387 367/589/394 373/598/395
f 367/589/394 374/599/396 373/598/395
f 374/600/396 375/601/397 373/602/395
f 373/602/395 375/601/397 376/603/355
f 375/601/397 377/604/398 376/603/355
f 376/603/355 377/604/398 378/605/398
f 378/605/398 377/604/398 370/596/415
f 375/606/400 368/592/413 377/607/401
f 377/607/401 368/592/413 369/594/414
f 377/604/398 369/595/393 370/596/415
f 374/608/416 368/592/413 375/606/400
f 367/593/404 368/592/413 374/608/416
f 379/609/386 380/610/387 384/611/386
f 379/612/412 381/613/413 380/614/404
f 381/613/413 379/612/412 382/615/414
f 382/616/392 379/609/386 383/617/415
f 383/617/415 379/609/386 384/611/386
f 384/611/386 380/610/387 385/618/394
f 385/618/394 380/610/387 386/619/395
f 380/610/387 387/620/406 386/619/395
f 387/621/406 388/622/397 386/623/395
f 386/623/395 388/622/397 389/624/355
f 388/622/397 390/625/398 389/624/355
f 389/624/355 390/625/398 391/626/399
f 391/626/399 390/625/398 383/617/415
f 388/627/400 381/613/413 390/628/401
f 390/628/401 381/613/413 382/615/414
f 390/625/398 382/616/392 383/617/415
f 387/629/402 381/613/413 388/627/400
f 380/614/404 381/613/413 387/629/402
f 396/630/417 392/631/418 393/632/419
f 392/633/418 394/634/420 393/635/419
f 395/636/421 392/631/418 396/630/417
f 397/637/422 395/636/421 396/630/417
f 398/638/423 399/639/424 397/637/422
f 399/639/424 395/636/421 397/637/422
f 400/640/425 399/639/424 398/638/423
f 401/641/426 400/640/425 402/642/427
f 402/642/427 400/640/425 398/638/423
f 403/643/428 401/641/426 402/642/427
f 393/635/419 394/634/420 403/643/428
f 394/634/420 401/641/426 403/643/428
