# Blender 5.2.0 LTS
# www.blender.org
mtllib jagde1002ndary.mtl
o turret
v -9.513786 20.806915 -18.300339
v -9.587671 4.181549 -27.729996
v -5.948631 20.806915 -20.040604
v -14.630640 4.181549 -25.270920
v -12.487829 20.806915 -15.680466
v -18.823845 4.181549 -21.563354
v -15.110891 20.806915 -12.701172
v -13.503799 20.806915 5.978424
v -16.847296 20.806915 -9.135498
v -24.993610 4.181549 -12.322861
v -18.121876 20.806915 -5.276627
v -18.325089 20.806915 -1.200195
v -27.265686 4.181549 -1.200195
v -18.084917 20.806915 2.649216
v -26.859314 4.181549 4.276001
v -21.816360 12.073700 5.978455
v -16.939667 20.806915 5.978424
v -18.380508 12.067368 5.978424
v -18.325100 12.067368 9.960281
v -20.098446 12.073700 9.960281
v -21.114426 12.073700 7.955154
v -24.993603 4.181549 9.468460
v -22.518309 4.181549 14.500122
v -15.110884 20.806915 9.960281
v -18.823833 4.181549 18.708954
v -12.487822 20.806915 12.816605
v -14.630625 4.181549 22.407059
v -9.513777 20.806915 15.445938
v -9.587656 4.181549 24.875595
v -5.948620 20.806915 17.186203
v -4.286129 4.181549 26.691528
v -2.198744 20.806915 18.472504
v 1.310993 4.181549 27.050934
v 6.908100 4.181549 26.691528
v 1.772831 20.806915 18.727875
v 5.725906 20.806915 18.472504
v 9.475788 20.806900 17.186203
v 12.209660 4.181534 24.875595
v 17.234146 4.181534 22.407028
v 13.040939 20.806900 15.445938
v 16.014984 20.806900 12.816589
v 21.445820 4.181534 18.708939
v 18.638062 20.806900 9.960266
v 20.374466 20.806900 6.281097
v 27.615593 4.181534 9.468430
v 21.667507 20.806900 2.526245
v 21.907646 20.806900 -1.427216
v 29.776836 4.181534 -1.427216
v 21.667507 20.806900 -5.390121
v 20.374454 20.806900 -9.135513
v 27.615593 4.181534 -12.322876
v 18.638050 20.806900 -12.701187
v 16.014973 20.806900 -15.680466
v 21.445801 4.181534 -21.563354
v 13.040928 20.806900 -18.300354
v 9.475773 20.806900 -20.040634
v 17.234135 4.181534 -25.270920
v 12.209644 4.181534 -27.730011
v 5.725895 20.806915 -21.326904
v 1.772816 20.806915 -21.582275
v 6.908081 4.181549 -29.545929
v 1.310974 4.181549 -29.905334
v -2.198757 20.806915 -21.326904
v -4.286146 4.181549 -29.545929
v 25.140289 4.181534 -17.354553
v 29.425884 4.181534 -7.016907
v 29.425884 4.181534 4.162491
v 25.140305 4.181534 14.500107
v -13.429899 20.806915 9.960281
v -26.896273 4.181549 -6.903397
v -22.536797 4.181549 -17.354523
v -15.332588 14.919418 -16.872177
v -14.722984 19.036240 -17.392365
v -14.353567 15.071198 -16.607361
v -15.184822 13.850693 -17.723404
v -15.665077 18.713730 -18.659729
v -15.720482 19.371414 -17.770691
v -14.113396 20.067032 -18.035507
v -14.963127 20.667801 -18.640823
v -15.110893 19.782455 -19.378555
v -13.540749 19.535828 -19.388016
v -14.150322 20.225128 -20.220306
v -14.261162 19.188019 -18.782700
v -14.686028 18.378571 -18.281418
v -14.316612 14.894135 -17.619354
v -13.060480 19.700256 -20.882385
v -12.358528 20.553970 -20.560791
v -13.725487 21.186356 -19.681198
v -13.115883 20.497040 -18.829971
v -12.081430 20.029099 -19.539322
v -11.342554 19.232285 -20.986404
v -11.305597 18.960358 -19.908203
v -12.783394 19.156403 -19.870361
v -12.247688 18.625198 -21.175568
v -12.210733 18.353271 -20.106812
v -11.675056 14.830902 -19.548798
v -10.696037 14.982651 -19.283981
v -10.659082 14.805588 -20.295975
v -11.527290 13.762161 -20.400024
v -9.273634 14.919418 18.415741
v -9.975567 19.036240 18.027985
v -9.366009 15.071198 17.403748
v -10.123363 13.850693 18.576538
v -10.843792 18.713730 19.342636
v -9.994045 19.371414 19.087280
v -10.769909 20.067032 17.668579
v -11.693508 19.782455 19.068359
v -11.046978 20.667801 18.680573
v -12.820309 20.225128 18.453598
v -12.469326 21.186356 17.867188
v -11.878231 20.497040 17.006500
v -12.247677 19.535828 17.592911
v -12.894224 20.029099 16.268768
v -13.762402 20.553970 16.874084
v -14.501295 19.232285 16.070160
v -13.817822 19.700256 17.649643
v -14.371990 18.625198 16.987595
v -12.968105 19.156403 17.044327
v -13.374495 18.353271 16.590347
v -13.503798 18.960358 15.672928
v -14.076460 14.805588 15.190567
v -13.134367 14.982651 14.878433
v -13.042006 14.830902 15.890457
v -13.891737 13.762161 16.051254
v -11.434887 19.188019 18.065796
v -10.825298 18.378571 18.283340
v -10.308117 14.894135 17.715851
v 23.625538 14.887787 -3.328293
v 23.828762 19.010925 -2.600006
v 22.849728 15.071198 -2.694580
v 24.198204 13.806412 -2.704041
v 25.398922 18.637833 -2.618912
v 24.715427 19.308151 -3.186417
v 24.013485 20.054367 -1.748779
v 25.029461 20.610870 -2.098724
v 25.676022 19.712875 -1.767685
v 24.752396 19.510529 -0.481415
v 25.805325 20.168198 -0.500336
v 24.678509 19.156387 -1.417770
v 24.493752 18.340607 -2.032532
v 23.644039 14.881470 -2.070358
v 25.694469 19.668610 0.785965
v 25.047955 20.553955 1.154831
v 25.158764 21.154724 -0.481415
v 24.087379 20.497040 -0.481415
v 24.050426 20.054367 0.785965
v 24.752396 19.257584 2.242508
v 23.847237 18.998291 1.646652
v 24.696968 19.156387 0.426559
v 25.417397 18.618866 1.627731
v 24.530708 18.359589 1.031876
v 23.644039 14.868835 1.202118
v 22.868187 15.058533 1.835800
v 23.662498 14.868835 2.460037
v 24.235134 13.793777 1.835800
vn -0.4911 0.4619 -0.7385
vn -0.3404 0.4522 -0.8244
vn -0.3404 0.4587 -0.8208
vn -0.4950 0.4582 -0.7383
vn -0.0022 1.0000 -0.0000
vn 0.0022 1.0000 -0.0000
vn -0.6250 0.4649 -0.6271
vn -0.6283 0.4585 -0.6284
vn -0.7336 0.4656 -0.4950
vn 0.0023 1.0000 -0.0000
vn -0.8161 0.4662 -0.3415
vn -0.8212 0.4643 -0.3317
vn -0.8657 0.4723 -0.1661
vn -0.8657 0.4723 -0.1660
vn -0.8806 0.4708 -0.0546
vn -0.8806 0.4716 -0.0471
vn -0.8805 0.4694 0.0657
vn -0.8635 0.4744 0.1715
vn -0.8785 0.4742 0.0582
vn -0.8635 0.4717 0.1786
vn -0.8334 0.4676 0.2946
vn -0.8359 0.4664 0.2894
vn -0.0022 -0.0000 1.0000
vn 0.0018 1.0000 -0.0007
vn 0.0021 1.0000 -0.0001
vn 0.0023 1.0000 -0.0006
vn -0.8722 0.4889 0.0150
vn -0.8723 0.4888 0.0151
vn -0.8722 0.4890 0.0150
vn 0.0025 1.0000 -0.0002
vn -0.8136 0.4670 0.3463
vn -0.7981 0.4629 0.3856
vn -0.7366 0.4648 0.4913
vn -0.6812 0.4603 0.5694
vn -0.6283 0.4586 0.6284
vn -0.6215 0.4587 0.6351
vn -0.4950 0.4582 0.7383
vn -0.4911 0.4588 0.7405
vn -0.3407 0.4552 0.8226
vn -0.3399 0.4551 0.8230
vn -0.1760 0.4508 0.8751
vn -0.1718 0.4573 0.8726
vn -0.0022 0.4445 0.8958
vn 0.1718 0.4440 0.8794
vn 0.0022 0.4446 0.8957
vn 0.1761 0.4441 0.8785
vn 0.3445 0.4424 0.8280
vn 0.4987 0.4393 0.7472
vn 0.4990 0.4393 0.7470
vn 0.6317 0.4340 0.6423
vn 0.6352 0.4342 0.6388
vn 0.7483 0.4360 0.5000
vn 0.8358 0.4285 0.3431
vn 0.8358 0.4285 0.3432
vn 0.8847 0.4320 0.1753
vn -0.0021 1.0000 -0.0000
vn 0.9042 0.4271 -0.0019
vn 0.9042 0.4271 -0.0018
vn 0.8847 0.4306 -0.1788
vn 0.8335 0.4317 -0.3450
vn 0.7510 0.4331 -0.4984
vn 0.6385 0.4338 -0.6357
vn 0.6351 0.4342 -0.6388
vn 0.4988 0.4425 -0.7452
vn 0.3444 0.4395 -0.8296
vn 0.4987 0.4361 -0.7490
vn 0.3444 0.4391 -0.8298
vn 0.1760 0.4474 -0.8768
vn 0.0022 0.4446 -0.8957
vn 0.1718 0.4440 -0.8794
vn -0.0022 0.4446 -0.8957
vn -0.1718 0.4572 -0.8726
vn -0.1761 0.4540 -0.8734
vn 0.7483 0.4360 -0.5000
vn 0.8847 0.4305 -0.1788
vn 0.7512 0.4301 0.5008
vn -0.8722 0.4890 0.0152
vn -0.0022 -0.0000 -1.0000
vn -0.8635 0.4729 -0.1755
vn -0.7366 0.4647 -0.4914
vn -0.8867 0.0076 0.4623
vn 0.5761 0.2165 0.7882
vn 0.4370 0.1949 0.8781
vn -0.7875 0.3839 0.4822
vn -0.5832 -0.2050 -0.7860
vn -0.7063 -0.2008 -0.6788
vn -0.6682 -0.1052 -0.7365
vn 0.4911 0.2601 0.8313
vn -0.5360 0.8202 0.1999
vn -0.3527 -0.8239 -0.4437
vn -0.5903 -0.0228 -0.8068
vn 0.0112 -0.6906 -0.7231
vn 0.9902 -0.0782 0.1153
vn 0.8161 -0.4345 0.3809
vn 0.2360 -0.3363 -0.9117
vn 0.4797 -0.5691 0.6678
vn 0.9940 0.1075 0.0187
vn 0.2990 -0.1504 -0.9423
vn -0.5138 -0.1239 -0.8489
vn 0.3771 0.7906 -0.4825
vn -0.0851 0.9829 -0.1634
vn 0.5725 0.3164 0.7564
vn 0.6551 0.2733 0.7044
vn 0.1112 -0.4171 0.9020
vn 0.7032 0.3506 -0.6186
vn 0.7063 0.2009 0.6788
vn -0.7095 -0.6812 -0.1808
vn -0.4526 -0.2055 -0.8677
vn -0.9395 -0.3379 -0.0561
vn -0.1632 -0.0679 0.9843
vn -0.9896 -0.1427 0.0167
vn 0.6007 0.2162 0.7696
vn -0.2739 0.1054 0.9560
vn 0.7001 -0.0075 -0.7140
vn -0.5725 -0.2124 -0.7919
vn 0.7395 0.0075 0.6731
vn 0.5435 0.2166 -0.8110
vn 0.6748 0.1939 -0.7121
vn 0.7216 0.3846 0.5756
vn -0.5398 -0.2091 0.8154
vn -0.3932 -0.2020 0.8970
vn -0.4641 -0.1051 0.8795
vn 0.6146 0.2595 -0.7449
vn 0.3731 0.8194 0.4351
vn -0.5545 -0.0227 0.8319
vn -0.1242 0.9824 0.1392
vn 0.5138 0.3169 -0.7972
vn 0.4643 -0.5728 -0.6756
vn 0.4409 0.2713 -0.8556
vn -0.5796 0.7927 -0.1887
vn -0.8212 0.3557 -0.4462
vn -0.6216 -0.1201 0.7741
vn -0.6617 -0.2010 0.7223
vn 0.0676 -0.6797 0.7304
vn -0.2949 -0.8250 0.4821
vn 0.8086 -0.4181 -0.4140
vn 0.2681 -0.3395 0.9016
vn 0.3973 0.1987 -0.8959
vn 0.9808 -0.0667 -0.1832
vn -0.9097 -0.0037 -0.4152
vn 0.5175 0.2165 -0.8278
vn 0.9914 0.1092 -0.0719
vn 0.3527 -0.1430 0.9247
vn -0.5509 -0.2090 0.8080
vn -0.6844 -0.6896 0.2367
vn 0.0764 -0.4374 -0.8960
vn -0.2316 -0.0754 -0.9699
vn -0.9380 -0.3340 0.0927
vn -0.3239 0.1054 -0.9402
vn -0.9877 -0.1522 0.0369
vn 0.1458 -0.0113 -0.9892
vn -0.9691 0.2465 -0.0037
vn -0.9612 0.2227 -0.1631
vn 0.0807 0.3653 -0.9274
vn 0.9712 -0.2378 -0.0114
vn 0.9562 -0.2371 -0.1718
vn 0.9848 -0.1379 -0.1059
vn -0.9536 0.2853 -0.0959
vn 0.1761 0.8079 -0.5623
vn 0.5398 -0.8417 -0.0151
vn 0.9984 -0.0567 -0.0019
vn 0.5580 -0.6990 0.4472
vn -0.6748 -0.0452 0.7366
vn -0.7981 -0.4056 0.4456
vn 0.5902 -0.3439 0.7303
vn -0.8382 -0.5453 0.0057
vn -0.5937 0.1353 0.7933
vn 0.5796 -0.1576 0.7995
vn 0.9855 -0.1487 0.0815
vn 0.1933 0.7964 0.5731
vn 0.2147 0.9766 0.0095
vn -0.9365 0.3502 0.0169
vn -0.9468 0.3016 0.1122
vn -0.8085 -0.4005 -0.4312
vn 0.0981 0.3686 0.9244
vn -0.9575 0.2328 0.1704
vn 0.5434 -0.7060 -0.4541
vn 0.9623 -0.2289 0.1467
vn 0.5892 -0.3699 -0.7184
vn -0.7032 -0.0603 -0.7084
vn 0.5616 -0.1725 -0.8092
vn -0.9692 0.2441 0.0337
vn -0.6112 0.1166 -0.7829
vn 0.1674 0.0074 0.9859
vn 0.9702 -0.2422 0.0019
vn 0.5616 -0.1725 -0.8093
vt 0.247027 -0.533400
vt 0.240575 -0.533400
vt 0.241306 -0.559894
vt 0.247880 -0.559894
vt 0.684081 -0.709262
vt 0.680672 -0.712301
vt 0.688099 -0.707318
vt 0.253480 -0.533400
vt 0.254454 -0.559894
vt 0.259810 -0.533400
vt 0.677629 -0.715704
vt 0.675681 -0.719714
vt 0.679455 -0.737094
vt 0.268089 -0.559894
vt 0.266019 -0.533400
vt 0.272228 -0.533400
vt 0.674098 -0.724211
vt 0.673855 -0.728829
vt 0.283185 -0.559894
vt 0.278072 -0.533400
vt 0.067701 -0.559894
vt 0.076832 -0.533400
vt 0.071354 -0.533400
vt 0.674220 -0.733205
vt 0.075128 -0.559894
vt 0.079632 -0.547133
vt 0.081824 -0.533400
vt 0.675438 -0.737094
vt 0.976992 -0.024771
vt 0.957879 -0.031577
vt 0.980766 -0.031577
vt 0.954105 -0.024771
vt 0.949357 -0.042759
vt 0.950940 -0.047256
vt 0.957148 -0.042759
vt 0.994645 -0.045919
vt 0.985758 -0.023070
vt 0.985636 -0.045919
vt 0.953253 -0.051874
vt 0.957392 -0.051874
vt 0.082554 -0.546647
vt 0.081945 -0.559894
vt 0.085963 -0.546404
vt 0.088276 -0.559894
vt 0.091685 -0.533400
vt 0.095215 -0.559894
vt 0.097406 -0.533400
vt 0.101911 -0.559894
vt 0.103250 -0.533400
vt 0.108485 -0.559894
vt 0.109581 -0.533400
vt 0.115059 -0.559894
vt 0.116033 -0.533400
vt 0.121755 -0.559894
vt 0.128329 -0.559894
vt 0.122485 -0.533400
vt 0.129059 -0.533400
vt 0.701369 -0.751435
vt 0.705630 -0.749977
vt 0.696864 -0.751678
vt 0.687977 -0.749977
vt 0.692360 -0.751435
vt 0.135512 -0.533400
vt 0.134903 -0.559894
vt 0.141599 -0.559894
vt 0.142086 -0.533400
vt 0.709769 -0.748032
vt 0.713178 -0.744994
vt 0.148660 -0.533400
vt 0.148295 -0.559894
vt 0.155112 -0.533400
vt 0.716221 -0.741712
vt 0.718169 -0.737580
vt 0.161930 -0.533400
vt 0.161686 -0.559894
vt 0.168504 -0.533400
vt 0.719630 -0.733205
vt 0.719995 -0.728708
vt 0.175078 -0.533400
vt 0.175078 -0.559894
vt 0.181652 -0.533400
vt 0.719752 -0.724211
vt 0.718291 -0.719836
vt 0.188226 -0.533400
vt 0.188348 -0.559894
vt 0.194800 -0.533400
vt 0.716221 -0.715825
vt 0.713299 -0.712422
vt 0.201252 -0.533400
vt 0.201739 -0.559894
vt 0.207826 -0.533400
vt 0.709890 -0.709384
vt 0.705751 -0.707318
vt 0.214401 -0.533400
vt 0.208313 -0.559894
vt 0.214888 -0.559894
vt 0.220975 -0.533400
vt 0.701490 -0.705859
vt 0.696986 -0.705616
vt 0.227549 -0.533400
vt 0.221583 -0.559894
vt 0.228157 -0.559894
vt 0.234001 -0.533400
vt 0.692481 -0.705859
vt 0.234731 -0.559894
vt 0.195044 -0.559894
vt 0.181774 -0.559894
vt 0.168382 -0.559894
vt 0.154990 -0.559894
vt 0.683959 -0.747911
vt 0.680551 -0.744872
vt 0.679455 -0.741591
vt 0.994888 -0.023070
vt 0.677507 -0.741591
vt 0.978940 -0.035588
vt 0.956053 -0.035345
vt 0.976992 -0.038991
vt 0.953983 -0.038991
vt 0.275515 -0.559894
vt 0.261271 -0.559894
vt 0.291341 -0.122729
vt 0.290124 -0.122972
vt 0.290124 -0.127469
vt 0.291341 -0.127226
vt 0.292681 -0.122000
vt 0.292559 -0.127469
vt 0.292559 -0.128928
vt 0.290124 -0.128806
vt 0.291341 -0.128806
vt 0.294142 -0.130265
vt 0.292559 -0.130265
vt 0.294142 -0.128928
vt 0.288907 -0.127591
vt 0.288907 -0.128928
vt 0.294142 -0.127591
vt 0.288907 -0.130265
vt 0.288907 -0.123094
vt 0.294142 -0.122972
vt 0.292559 -0.131602
vt 0.291341 -0.131723
vt 0.291341 -0.130265
vt 0.290124 -0.130265
vt 0.290124 -0.131602
vt 0.288907 -0.131602
vt 0.291341 -0.133303
vt 0.290124 -0.133060
vt 0.294142 -0.131602
vt 0.292559 -0.133060
vt 0.294142 -0.132817
vt 0.288907 -0.132817
vt 0.294142 -0.137557
vt 0.290124 -0.137557
vt 0.288907 -0.137435
vt 0.291341 -0.137800
vt 0.292681 -0.138529
vt 0.298524 -0.122729
vt 0.297307 -0.122972
vt 0.297307 -0.127469
vt 0.298524 -0.127226
vt 0.299863 -0.122000
vt 0.299742 -0.127469
vt 0.299742 -0.128928
vt 0.297307 -0.128806
vt 0.298524 -0.128806
vt 0.299742 -0.130265
vt 0.298524 -0.130265
vt 0.297307 -0.130265
vt 0.296089 -0.130265
vt 0.297307 -0.131602
vt 0.298524 -0.131723
vt 0.298524 -0.133303
vt 0.299742 -0.131602
vt 0.299742 -0.133060
vt 0.301324 -0.131602
vt 0.301324 -0.130265
vt 0.296089 -0.131602
vt 0.301324 -0.132817
vt 0.297307 -0.133060
vt 0.296089 -0.132817
vt 0.298524 -0.137800
vt 0.297307 -0.137557
vt 0.296089 -0.137435
vt 0.301324 -0.137557
vt 0.299863 -0.138529
vt 0.301324 -0.128928
vt 0.296089 -0.128928
vt 0.296089 -0.127591
vt 0.301324 -0.127591
vt 0.296089 -0.123094
vt 0.301324 -0.122972
vt 0.305707 -0.122729
vt 0.304490 -0.122972
vt 0.304490 -0.127469
vt 0.305707 -0.127226
vt 0.307046 -0.122000
vt 0.307046 -0.127469
vt 0.307046 -0.128928
vt 0.304490 -0.128806
vt 0.305707 -0.128806
vt 0.308507 -0.130265
vt 0.307046 -0.130265
vt 0.308507 -0.128928
vt 0.303272 -0.127591
vt 0.303272 -0.128928
vt 0.308507 -0.127591
vt 0.303272 -0.130265
vt 0.303272 -0.123094
vt 0.308507 -0.122972
vt 0.307046 -0.131602
vt 0.305707 -0.131723
vt 0.305707 -0.130265
vt 0.304490 -0.130265
vt 0.304490 -0.131602
vt 0.303272 -0.131602
vt 0.305707 -0.133303
vt 0.304490 -0.133060
vt 0.308507 -0.131602
vt 0.307046 -0.133060
vt 0.308507 -0.132817
vt 0.303272 -0.132817
vt 0.308507 -0.137557
vt 0.304490 -0.137557
vt 0.303272 -0.137435
vt 0.305707 -0.137800
vt 0.307046 -0.138529
s 1
usemtl jagdhull
f 1/1/1 3/2/2 2/3/3
f 4/4/4 1/1/1 2/3/3
f 1/5/5 5/6/6 3/7/5
f 5/8/7 1/1/1 4/4/4
f 6/9/8 5/8/7 4/4/4
f 7/10/9 5/8/7 6/9/8
f 7/11/5 9/12/5 5/6/6
f 3/7/5 5/6/6 8/13/10
f 5/6/6 9/12/5 8/13/10
f 7/10/9 10/14/11 9/15/12
f 9/15/12 10/14/11 11/16/13
f 9/12/5 11/17/5 12/18/6
f 8/13/10 9/12/5 12/18/6
f 11/16/14 13/19/15 12/20/16
f 13/21/17 14/22/18 12/23/19
f 12/18/6 14/24/6 8/13/10
f 15/25/20 14/22/18 13/21/17
f 15/25/20 16/26/21 14/22/18
f 16/26/21 17/27/22 14/22/18
f 8/13/10 14/24/6 17/28/5
f 18/29/23 17/30/23 16/31/23
f 8/32/23 17/30/23 18/29/23
f 16/33/24 21/34/25 18/35/26
f 19/36/27 8/37/28 18/38/29
f 18/35/26 20/39/30 19/40/6
f 21/34/25 20/39/30 18/35/26
f 21/41/31 16/26/21 22/42/31
f 20/43/32 21/41/31 22/42/31
f 22/42/31 16/26/21 15/25/20
f 23/44/33 20/43/32 22/42/31
f 24/45/34 20/43/32 23/44/33
f 25/46/35 24/45/34 23/44/33
f 26/47/36 24/45/34 25/46/35
f 27/48/37 26/47/36 25/46/35
f 28/49/38 26/47/36 27/48/37
f 29/50/39 28/49/38 27/48/37
f 30/51/40 28/49/38 29/50/39
f 31/52/41 30/51/40 29/50/39
f 32/53/42 30/51/40 31/52/41
f 33/54/43 32/53/42 31/52/41
f 34/55/44 35/56/45 33/54/43
f 35/56/45 32/53/42 33/54/43
f 36/57/46 35/56/45 34/55/44
f 36/58/6 37/59/6 35/60/6
f 30/61/5 32/62/5 35/60/6
f 35/60/6 37/59/6 8/13/10
f 8/13/10 30/61/5 35/60/6
f 37/63/47 36/57/46 38/64/47
f 39/65/48 37/63/47 38/64/47
f 40/66/49 37/63/47 39/65/48
f 40/67/5 41/68/5 37/59/6
f 37/59/6 41/68/5 8/13/10
f 41/69/50 40/66/49 42/70/51
f 43/71/52 41/69/50 42/70/51
f 41/68/5 43/72/5 44/73/5
f 8/13/10 41/68/5 44/73/5
f 44/74/53 43/71/52 45/75/54
f 46/76/55 44/74/53 45/75/54
f 46/77/56 47/78/6 44/73/5
f 44/73/5 47/78/6 8/13/10
f 47/79/57 46/76/55 48/80/58
f 49/81/59 47/79/57 48/80/58
f 49/82/10 50/83/6 47/78/6
f 47/78/6 50/83/6 8/13/10
f 50/84/60 49/81/59 51/85/60
f 52/86/61 50/84/60 51/85/60
f 50/83/6 52/87/5 53/88/6
f 8/13/10 50/83/6 53/88/6
f 53/89/62 52/86/61 54/90/63
f 55/91/64 53/89/62 54/90/63
f 55/92/5 56/93/6 53/88/6
f 53/88/6 56/93/6 8/13/10
f 56/94/65 55/91/64 57/95/66
f 58/96/67 56/94/65 57/95/66
f 59/97/68 56/94/65 58/96/67
f 59/98/5 60/99/5 56/93/6
f 56/93/6 60/99/5 8/13/10
f 60/100/69 59/97/68 61/101/70
f 62/102/71 60/100/69 61/101/70
f 63/103/72 60/100/69 62/102/71
f 60/99/5 63/104/5 3/7/5
f 8/13/10 60/99/5 3/7/5
f 64/105/73 63/103/72 62/102/71
f 3/2/2 63/103/72 64/105/73
f 2/3/3 3/2/2 64/105/73
f 61/101/70 59/97/68 58/96/67
f 57/95/66 55/91/64 54/90/63
f 54/90/63 52/86/61 65/106/74
f 65/106/74 52/86/61 51/85/60
f 51/85/60 49/81/59 66/107/75
f 66/107/75 49/81/59 48/80/58
f 48/80/58 46/76/55 67/108/55
f 67/108/55 46/76/55 45/75/54
f 45/75/54 43/71/52 68/109/76
f 68/109/76 43/71/52 42/70/51
f 42/70/51 40/66/49 39/65/48
f 38/64/47 36/57/46 34/55/44
f 28/110/5 30/61/5 8/13/10
f 26/111/5 28/110/5 69/112/5
f 69/112/5 28/110/5 8/13/10
f 69/113/77 8/37/28 19/36/27
f 24/114/5 26/111/5 69/112/5
f 69/115/78 19/116/78 24/117/78
f 24/117/78 19/116/78 20/118/78
f 70/119/79 13/19/15 11/16/13
f 10/14/11 70/119/79 11/16/13
f 71/120/80 10/14/11 7/10/9
f 71/120/80 7/10/9 6/9/8
f 72/121/81 74/122/82 73/123/83
f 77/124/84 72/121/81 73/123/83
f 75/125/85 72/121/81 76/126/86
f 72/121/81 77/124/84 76/126/86
f 77/124/84 80/127/87 76/126/86
f 78/128/88 77/124/84 73/123/83
f 79/129/89 77/124/84 78/128/88
f 80/127/87 77/124/84 79/129/89
f 81/130/90 80/127/87 82/131/91
f 83/132/92 80/127/87 81/130/90
f 82/131/91 80/127/87 79/129/89
f 76/126/86 80/127/87 83/132/92
f 84/133/93 83/134/94 73/123/83
f 76/126/86 83/132/92 84/135/95
f 73/123/83 83/134/94 78/128/88
f 83/134/94 81/136/96 78/128/88
f 73/123/83 74/122/82 84/133/93
f 74/122/82 85/137/97 84/133/93
f 85/138/98 76/126/86 84/135/95
f 75/125/85 76/126/86 85/138/98
f 82/131/91 86/139/99 81/130/90
f 87/140/100 86/139/99 82/131/91
f 87/140/100 82/131/91 88/141/101
f 82/131/91 79/129/89 88/141/101
f 89/142/102 87/140/100 88/141/101
f 88/141/101 79/129/89 89/142/102
f 78/128/88 81/136/96 89/142/102
f 79/129/89 78/128/88 89/142/102
f 81/136/96 90/143/103 89/142/102
f 90/143/103 87/140/100 89/142/102
f 81/136/96 93/144/104 90/143/103
f 90/143/103 91/145/105 87/140/100
f 90/143/103 92/146/106 91/145/105
f 93/144/104 92/146/106 90/143/103
f 81/130/90 86/139/99 93/147/107
f 86/139/99 94/148/108 93/147/107
f 93/147/107 94/148/108 95/149/109
f 92/146/106 93/144/104 95/150/110
f 95/149/109 94/148/108 96/151/111
f 97/152/112 95/150/110 96/153/113
f 92/146/106 95/150/110 97/152/112
f 98/154/114 92/146/106 97/152/112
f 99/155/115 94/148/108 98/154/114
f 98/154/114 94/148/108 91/145/105
f 91/145/105 92/146/106 98/154/114
f 96/151/111 94/148/108 99/155/115
f 94/148/108 86/139/99 91/145/105
f 91/145/105 86/139/99 87/140/100
f 100/156/116 102/157/117 101/158/118
f 105/159/119 100/156/116 101/158/118
f 103/160/120 100/156/116 104/161/121
f 100/156/116 105/159/119 104/161/121
f 105/159/119 107/162/122 104/161/121
f 106/163/123 105/159/119 101/158/118
f 108/164/124 105/159/119 106/163/123
f 107/162/122 105/159/119 108/164/124
f 109/165/125 107/162/122 108/164/124
f 109/165/125 108/164/124 110/166/126
f 110/166/126 108/164/124 111/167/127
f 108/164/124 106/163/123 111/167/127
f 106/163/123 112/168/128 111/167/127
f 112/168/128 113/169/129 111/167/127
f 113/169/129 114/170/130 111/167/127
f 111/167/127 114/170/130 110/166/126
f 113/169/129 115/171/131 114/170/130
f 115/171/131 116/172/132 114/170/130
f 114/170/130 116/172/132 109/165/125
f 114/170/130 109/165/125 110/166/126
f 117/173/133 116/172/132 115/171/131
f 116/172/132 117/173/133 118/174/134
f 109/165/125 116/172/132 112/175/135
f 112/175/135 116/172/132 118/174/134
f 112/168/128 118/176/136 113/169/129
f 118/174/134 117/173/133 119/177/137
f 120/178/138 118/176/136 119/179/139
f 118/176/136 120/178/138 113/169/129
f 115/171/131 120/178/138 121/180/140
f 113/169/129 120/178/138 115/171/131
f 121/180/140 120/178/138 122/181/141
f 120/178/138 119/179/139 122/181/141
f 122/181/141 119/179/139 123/182/142
f 119/177/137 117/173/133 123/183/143
f 123/183/143 117/173/133 124/184/144
f 124/184/144 117/173/133 121/180/140
f 121/180/140 117/173/133 115/171/131
f 112/175/135 107/162/122 109/165/125
f 125/185/145 107/162/122 112/175/135
f 125/186/146 112/168/128 106/163/123
f 126/187/147 125/186/146 101/158/118
f 104/161/121 125/185/145 126/188/148
f 101/158/118 125/186/146 106/163/123
f 104/161/121 107/162/122 125/185/145
f 101/158/118 102/157/117 126/187/147
f 102/157/117 127/189/149 126/187/147
f 127/190/150 104/161/121 126/188/148
f 103/160/120 104/161/121 127/190/150
f 128/191/151 130/192/152 129/193/153
f 133/194/154 128/191/151 129/193/153
f 131/195/155 128/191/151 132/196/156
f 128/191/151 133/194/154 132/196/156
f 133/194/154 136/197/157 132/196/156
f 134/198/158 133/194/154 129/193/153
f 135/199/159 133/194/154 134/198/158
f 136/197/157 133/194/154 135/199/159
f 137/200/160 136/197/157 138/201/161
f 139/202/162 136/197/157 137/200/160
f 138/201/161 136/197/157 135/199/159
f 132/196/156 136/197/157 139/202/162
f 140/203/163 139/204/164 129/193/153
f 132/196/156 139/202/162 140/205/165
f 129/193/153 139/204/164 134/198/158
f 139/204/164 137/206/166 134/198/158
f 129/193/153 130/192/152 140/203/163
f 130/192/152 141/207/167 140/203/163
f 141/208/168 132/196/156 140/205/165
f 131/195/155 132/196/156 141/208/168
f 138/201/161 142/209/169 137/200/160
f 143/210/170 142/209/169 138/201/161
f 143/210/170 138/201/161 144/211/171
f 138/201/161 135/199/159 144/211/171
f 145/212/172 143/210/170 144/211/171
f 144/211/171 135/199/159 145/212/172
f 134/198/158 137/206/166 145/212/172
f 135/199/159 134/198/158 145/212/172
f 137/206/166 146/213/173 145/212/172
f 146/213/173 143/210/170 145/212/172
f 137/206/166 149/214/174 146/213/173
f 146/213/173 147/215/175 143/210/170
f 146/213/173 148/216/176 147/215/175
f 149/214/174 148/216/176 146/213/173
f 137/200/160 142/209/169 149/217/177
f 142/209/169 150/218/178 149/217/177
f 149/217/177 150/218/178 151/219/179
f 148/216/176 149/214/174 151/220/180
f 151/219/179 150/218/178 152/221/181
f 153/222/182 151/220/180 152/223/183
f 148/216/176 151/220/180 153/222/182
f 154/224/184 148/216/176 153/222/182
f 155/225/185 150/218/178 154/224/184
f 154/224/184 150/218/178 147/215/175
f 147/215/175 148/216/176 154/224/184
f 152/221/186 150/218/178 155/225/185
f 150/218/178 142/209/169 147/215/175
f 147/215/175 142/209/169 143/210/170
