# Blender 5.2.0 LTS
# www.blender.org
mtllib jagde10020mm.mtl
o 20mm
v -42.622513 -0.652603 -1.143402
v -55.091339 0.814529 -1.947327
v -55.091339 0.997925 -1.143402
v -55.091339 0.213745 -2.505371
v -55.091339 -0.570389 -2.741821
v -55.091339 -1.360870 -2.505371
v -55.091339 -1.961624 -1.947327
v -55.091339 -2.145035 -1.143402
v -55.091339 -1.961624 -0.348938
v -55.091339 -1.360870 0.218536
v -55.091339 -0.570389 0.454987
v -55.091339 0.213745 0.218536
v -55.091339 0.814529 -0.348938
v -55.091339 0.384506 0.511749
v -55.091339 1.118057 -0.169235
v -55.091339 1.345734 -1.143402
v -49.143230 0.289642 -1.644684
v -55.091339 1.118057 -2.117584
v -49.143230 0.289642 -0.642120
v -49.143230 0.409805 -1.143402
v -34.125244 1.288818 -1.143433
v -34.125244 1.067490 -2.089218
v -2.556047 1.687225 -1.143433
v -34.125244 1.067490 -0.197632
v -34.125244 0.359207 0.464447
v -2.556047 1.415298 0.000992
v -2.556063 0.555252 0.814392
v -34.125244 -0.570389 0.748184
v -2.556063 -0.570389 1.154861
v -2.556063 -1.702362 0.814392
v -34.125244 -2.214584 -0.197632
v -34.125244 -1.506317 0.464447
v -2.556063 -2.562393 0.000992
v -2.556065 -2.834320 -1.143433
v -34.125244 -2.435928 -1.143433
v -34.125244 -2.214584 -2.089218
v -2.556065 -2.562393 -2.297302
v -2.556065 -1.702362 -3.101257
v -2.556065 -0.570389 -3.441742
v -34.125244 -0.570389 -3.035019
v -34.125244 -1.506317 -2.751282
v -49.143230 -0.570389 -2.145966
v -49.143230 -1.063660 -1.994629
v -49.143230 -1.436752 -1.644684
v -55.091339 -2.265182 -2.117584
v -55.091339 -2.492844 -1.143402
v -55.091339 -1.531616 -2.808014
v -49.143230 -1.556915 -1.143402
v -49.143230 -1.436752 -0.642120
v -55.091339 -1.531616 0.511749
v -49.143230 -1.063660 -0.292206
v -55.091339 -2.265182 -0.169235
v -49.143230 -0.570389 -0.140869
v -49.143230 -0.083450 -0.292206
v -55.091339 -0.570389 0.804932
v -55.091339 -0.570389 -3.091782
v -55.091339 0.384506 -2.808014
v -49.143230 -0.083450 -1.994629
v -34.125244 0.359207 -2.751282
v -2.556065 0.555252 -3.101257
v -2.556051 1.415298 -2.297302
v -47.831707 -0.570389 -2.647247
v -49.771297 -0.570389 -2.647247
v -47.831707 -1.310257 -2.420242
v -47.831707 0.163177 -2.420242
v -49.771297 0.163177 -2.420242
v -47.831707 0.163177 0.133408
v -47.831707 -0.570389 0.350952
v -49.771297 -0.570389 0.350952
v -49.771297 0.163177 0.133408
v -47.831707 0.725983 -0.396240
v -47.831707 -2.043839 -1.143402
v -47.831707 -1.873108 -1.890594
v -47.831707 0.725983 -1.890594
v -47.831707 0.903061 -1.143402
v -49.771297 0.725983 -0.396240
v -49.771297 0.903061 -1.143402
v -49.771297 0.725983 -1.890594
v -49.771297 -2.043839 -1.143402
v -49.771297 -1.873108 -1.890594
v -47.831707 -1.873108 -0.396240
v -49.771297 -1.873108 -0.396240
v -49.771297 -1.310257 -2.420242
v -47.831707 -1.310257 0.133408
v -49.771297 -1.310257 0.133408
v 4.648170 5.013550 -3.876816
v 1.101482 4.766922 -3.876816
v -1.484669 -6.894226 -3.876816
v 4.648174 5.013550 1.618317
v 1.101482 4.766922 1.618317
v -1.484669 -6.894226 1.618317
v -3.812168 -4.269852 1.618317
v -3.812168 -4.269852 -3.876816
v -4.310913 -2.884918 1.618317
v -4.310917 -2.884918 -3.876785
v -4.329409 -1.386154 1.618317
v -4.329411 -1.386154 -3.876785
v -4.107731 0.087280 1.618317
v -4.107733 0.087280 -3.876816
v -3.535067 1.434265 1.618317
v -3.535070 1.434265 -3.876816
v -2.703783 2.667435 1.618317
v -2.703787 2.667435 -3.876816
v -1.595463 3.628632 1.618317
v -1.595463 3.628632 -3.876816
v -0.302402 4.393814 1.618317
v -0.302402 4.393814 -3.876816
vn -0.1286 -0.4975 0.8579
vn -1.0000 0.0041 0.0013
vn -0.1328 -0.8602 0.4924
vn -0.1285 -0.9655 0.2265
vn -0.1329 -0.8583 -0.4956
vn -0.1279 -0.9664 -0.2231
vn -0.1285 -0.0000 0.9917
vn -0.1199 0.4975 0.8591
vn -0.1199 0.8610 0.4942
vn -0.1199 0.9928 0.0038
vn -0.1199 0.8610 -0.4942
vn -0.1169 0.4976 -0.8595
vn -0.1285 -0.0038 -0.9917
vn -0.1285 -0.4942 -0.8598
vn -1.0000 -0.0000 -0.0000
vn 0.0502 0.9987 -0.0018
vn 0.0502 0.8649 -0.4994
vn 0.1545 0.9880 -0.0037
vn 0.1588 0.8551 -0.4935
vn 0.1588 0.8550 0.4937
vn 0.0502 0.8668 0.4962
vn -0.0371 0.9993 -0.0000
vn -0.0371 0.8667 -0.4975
vn -0.0109 0.9999 -0.0000
vn -0.0371 0.8666 0.4976
vn -0.0109 0.8672 0.4978
vn -0.0371 0.4975 0.8667
vn -0.0109 0.4978 0.8672
vn -0.0372 -0.0000 0.9993
vn -0.0110 -0.0000 0.9999
vn -0.0109 -0.4978 0.8672
vn -0.0371 -0.8667 0.4975
vn -0.0109 -0.8672 0.4978
vn -0.0371 -0.4975 0.8667
vn -0.0109 -0.9744 0.2246
vn -0.0328 -0.9739 0.2245
vn -0.0328 -0.9739 -0.2246
vn -0.0371 -0.8667 -0.4975
vn -0.0110 -0.9744 -0.2247
vn -0.0109 -0.8672 -0.4978
vn -0.0109 -0.4978 -0.8672
vn -0.0371 -0.0000 -0.9993
vn -0.0109 -0.0000 -0.9999
vn -0.0371 -0.4975 -0.8667
vn 0.0502 -0.0037 -0.9987
vn 0.0503 -0.5010 -0.8640
vn 0.0502 -0.8649 -0.4994
vn 0.1545 -0.4907 -0.8575
vn 0.1587 -0.8551 -0.4936
vn 0.1502 -0.9624 -0.2263
vn 0.0502 -0.9727 -0.2265
vn 0.0502 -0.8668 0.4961
vn 0.0502 -0.9716 0.2314
vn 0.1502 -0.9632 0.2228
vn 0.1588 -0.8550 0.4937
vn 0.1545 -0.4972 0.8538
vn 0.0502 -0.4978 0.8658
vn 0.0502 0.0001 0.9987
vn 0.0502 0.4978 0.8659
vn 0.1545 0.4972 0.8537
vn 0.1588 -0.0000 0.9873
vn 0.1588 -0.0000 -0.9873
vn 0.1545 0.4908 -0.8575
vn 0.0502 0.5010 -0.8640
vn -0.0371 0.4975 -0.8667
vn -0.0109 0.4978 -0.8672
vn -0.0109 0.8672 -0.4978
vn -0.0022 -0.0000 -1.0000
vn -0.0022 -0.4978 -0.8673
vn -0.0022 0.4978 -0.8673
vn 1.0000 -0.0000 -0.0000
vn -0.0022 -0.0000 1.0000
vn -0.0021 0.4978 0.8673
vn -0.0021 -0.0000 1.0000
vn -0.0021 0.8672 0.4979
vn -0.0022 1.0000 -0.0000
vn -0.0022 0.8673 0.4978
vn -0.0022 0.8673 -0.4978
vn -0.0022 0.8673 -0.4979
vn -0.0021 -0.8673 -0.4978
vn -0.0021 -0.9745 -0.2245
vn -0.0021 -0.9745 -0.2246
vn -0.0021 -0.9745 0.2246
vn -0.0021 -0.8673 0.4978
vn -0.0022 -0.9744 0.2246
vn -0.0020 -0.8673 0.4978
vn -0.0021 -0.4978 0.8673
vn -0.0020 -0.4977 0.8673
vn -0.1631 0.9866 0.0019
vn -0.0677 0.9977 0.0037
vn -0.0677 0.9977 0.0038
vn 0.0022 -0.0000 1.0000
vn -0.8612 -0.5082 -0.0000
vn -0.7483 -0.6634 0.0018
vn -0.8612 -0.5083 -0.0000
vn -0.9847 -0.1740 0.0037
vn -0.9848 -0.1739 0.0037
vn -0.9976 0.0698 -0.0018
vn -0.9976 0.0697 -0.0017
vn -0.9623 0.2718 -0.0017
vn -0.9623 0.2718 -0.0019
vn -0.8785 0.4777 -0.0018
vn -0.8785 0.4778 -0.0019
vn -0.7483 0.6634 0.0019
vn -0.7483 0.6634 0.0018
vn -0.5867 0.8098 -0.0019
vn -0.5867 0.8098 -0.0018
vn -0.3892 0.9211 -0.0019
vn -0.3891 0.9212 -0.0018
vn -0.0023 -0.0000 -1.0000
vt 0.762240 -0.943219
vt 0.761753 -0.957682
vt 0.763213 -0.943340
vt 0.764187 -0.943462
vt 0.754205 -0.945407
vt 0.753474 -0.945893
vt 0.761387 -0.943219
vt 0.760413 -0.943340
vt 0.759439 -0.943462
vt 0.758587 -0.943584
vt 0.757613 -0.943827
vt 0.756761 -0.944191
vt 0.755909 -0.944556
vt 0.755057 -0.944920
vt 0.746657 -0.947716
vt 0.746291 -0.947594
vt 0.746535 -0.948688
vt 0.746778 -0.949782
vt 0.747022 -0.949417
vt 0.746170 -0.948688
vt 0.389466 -0.231018
vt 0.389466 -0.231747
vt 0.399570 -0.231018
vt 0.399570 -0.231747
vt 0.747752 -0.950390
vt 0.747874 -0.950025
vt 0.399570 -0.230167
vt 0.389466 -0.230167
vt 0.366091 -0.231018
vt 0.366091 -0.231747
vt 0.316055 -0.231018
vt 0.366091 -0.230167
vt 0.316055 -0.230167
vt 0.366091 -0.229438
vt 0.316055 -0.229560
vt 0.366091 -0.228709
vt 0.316055 -0.228709
vt 0.316055 -0.227980
vt 0.366091 -0.227129
vt 0.316055 -0.227129
vt 0.366091 -0.227980
vt 0.316055 -0.226400
vt 0.366091 -0.226400
vt 0.366091 -0.235758
vt 0.366091 -0.235029
vt 0.316055 -0.235758
vt 0.316055 -0.235029
vt 0.316055 -0.234178
vt 0.366091 -0.233449
vt 0.316055 -0.233449
vt 0.366091 -0.234178
vt 0.389466 -0.233449
vt 0.389466 -0.234178
vt 0.389466 -0.235029
vt 0.399570 -0.234178
vt 0.399570 -0.235029
vt 0.399570 -0.235758
vt 0.389466 -0.235758
vt 0.389466 -0.227129
vt 0.389466 -0.226400
vt 0.399570 -0.226400
vt 0.399570 -0.227129
vt 0.399570 -0.227980
vt 0.389466 -0.227980
vt 0.749944 -0.946743
vt 0.748970 -0.946136
vt 0.748848 -0.946500
vt 0.747874 -0.946136
vt 0.389466 -0.228709
vt 0.389466 -0.229438
vt 0.399570 -0.229560
vt 0.399570 -0.228709
vt 0.746900 -0.946622
vt 0.747144 -0.946865
vt 0.747996 -0.946500
vt 0.750431 -0.948810
vt 0.750552 -0.947716
vt 0.750187 -0.947837
vt 0.399570 -0.233449
vt 0.749944 -0.949903
vt 0.749578 -0.949539
vt 0.750065 -0.948688
vt 0.748848 -0.950390
vt 0.399570 -0.232598
vt 0.389466 -0.232598
vt 0.748726 -0.950025
vt 0.366091 -0.232598
vt 0.316055 -0.232598
vt 0.316055 -0.231747
vt 0.749700 -0.946987
vt 0.762605 -0.939937
vt 0.763457 -0.939937
vt 0.762605 -0.937750
vt 0.761631 -0.937750
vt 0.748848 -0.940059
vt 0.748361 -0.940788
vt 0.751161 -0.942490
vt 0.761631 -0.939937
vt 0.748361 -0.941639
vt 0.757248 -0.939937
vt 0.758100 -0.939937
vt 0.757248 -0.937750
vt 0.751648 -0.941761
vt 0.750431 -0.939694
vt 0.758100 -0.937750
vt 0.759074 -0.939937
vt 0.749457 -0.942854
vt 0.750431 -0.942976
vt 0.749578 -0.939573
vt 0.748726 -0.942490
vt 0.759926 -0.939937
vt 0.759074 -0.937750
vt 0.759926 -0.937750
vt 0.760779 -0.939937
vt 0.753474 -0.935441
vt 0.754205 -0.935076
vt 0.751891 -0.932524
vt 0.760779 -0.937750
vt 0.754692 -0.934347
vt 0.764309 -0.937750
vt 0.765161 -0.939937
vt 0.765161 -0.937750
vt 0.753596 -0.932159
vt 0.752744 -0.932159
vt 0.754570 -0.939937
vt 0.755544 -0.939937
vt 0.754570 -0.937750
vt 0.755544 -0.937750
vt 0.751405 -0.933253
vt 0.752622 -0.935441
vt 0.754692 -0.933375
vt 0.754326 -0.932645
vt 0.763457 -0.937750
vt 0.764309 -0.939937
vt 0.756396 -0.939937
vt 0.756396 -0.937750
vt 0.751405 -0.934225
vt 0.751891 -0.934955
vt 0.751283 -0.940059
vt 0.751648 -0.940910
vt 0.342230 -0.076303
vt 0.357326 -0.076303
vt 0.343812 -0.072657
vt 0.368404 -0.086755
vt 0.362195 -0.090887
vt 0.368404 -0.090887
vt 0.362195 -0.086755
vt 0.411136 -0.088699
vt 0.414910 -0.087241
vt 0.411136 -0.073993
vt 0.362195 -0.073386
vt 0.368404 -0.069254
vt 0.362195 -0.069254
vt 0.414910 -0.075330
vt 0.368404 -0.073386
vt 0.362195 -0.074844
vt 0.415884 -0.076546
vt 0.368404 -0.074844
vt 0.362195 -0.076667
vt 0.416979 -0.078004
vt 0.368404 -0.076667
vt 0.362195 -0.078247
vt 0.417344 -0.079584
vt 0.368404 -0.078247
vt 0.362195 -0.080070
vt 0.417710 -0.081286
vt 0.368404 -0.080070
vt 0.362195 -0.081650
vt 0.417344 -0.082744
vt 0.368404 -0.081650
vt 0.362195 -0.083473
vt 0.416979 -0.084567
vt 0.368404 -0.083473
vt 0.362195 -0.085175
vt 0.415884 -0.085904
vt 0.368404 -0.085175
vt 0.355865 -0.072535
vt 0.345151 -0.071563
vt 0.346491 -0.070469
vt 0.348317 -0.070104
vt 0.349778 -0.069740
vt 0.351604 -0.070104
vt 0.353186 -0.070469
vt 0.354647 -0.071563
s 1
usemtl jagdhull
f 4/1/1 1/2/2 2/3/3
f 1/2/2 3/4/4 2/3/3
f 1/2/2 13/5/5 3/6/6
f 5/7/7 1/2/2 4/1/1
f 6/8/8 1/2/2 5/7/7
f 7/9/9 1/2/2 6/8/8
f 8/10/10 1/2/2 7/9/9
f 9/11/11 1/2/2 8/10/10
f 10/12/12 1/2/2 9/11/11
f 11/13/13 1/2/2 10/12/12
f 11/13/13 12/14/14 1/2/2
f 12/14/14 13/5/5 1/2/2
f 12/15/15 14/16/15 13/17/15
f 13/17/15 16/18/15 3/19/15
f 14/16/15 15/20/15 13/17/15
f 15/20/15 16/18/15 13/17/15
f 20/21/16 17/22/17 16/23/18
f 17/22/17 18/24/19 16/23/18
f 16/18/15 18/25/15 2/26/15
f 15/27/20 19/28/21 16/23/18
f 19/28/21 20/21/16 16/23/18
f 3/19/15 16/18/15 2/26/15
f 19/28/21 21/29/22 20/21/16
f 21/29/22 17/22/17 20/21/16
f 21/29/22 22/30/23 17/22/17
f 22/30/23 21/29/22 23/31/24
f 24/32/25 21/29/22 19/28/21
f 21/29/22 24/32/25 23/31/24
f 23/31/24 24/32/25 26/33/26
f 25/34/27 24/32/25 19/28/21
f 24/32/25 25/34/27 27/35/28
f 26/33/26 24/32/25 27/35/28
f 25/34/27 28/36/29 27/35/28
f 27/35/28 28/36/29 29/37/30
f 29/37/30 28/36/29 30/38/31
f 30/38/31 31/39/32 33/40/33
f 30/38/31 32/41/34 31/39/32
f 28/36/29 32/41/34 30/38/31
f 33/40/33 31/39/32 34/42/35
f 31/39/32 35/43/36 34/42/35
f 35/44/37 36/45/38 34/46/39
f 34/46/39 36/45/38 37/47/40
f 37/47/40 36/45/38 38/48/41
f 38/48/41 40/49/42 39/50/43
f 38/48/41 41/51/44 40/49/42
f 36/45/38 41/51/44 38/48/41
f 41/51/44 42/52/45 40/49/42
f 41/51/44 43/53/46 42/52/45
f 44/54/47 43/53/46 41/51/44
f 36/45/38 44/54/47 41/51/44
f 47/55/48 44/54/47 45/56/49
f 45/56/49 44/54/47 46/57/50
f 46/57/50 44/54/47 48/58/51
f 43/53/46 44/54/47 47/55/48
f 44/54/47 36/45/38 35/44/37
f 48/58/51 44/54/47 35/44/37
f 35/43/36 49/59/52 48/60/53
f 48/60/53 49/59/52 46/61/54
f 52/62/55 49/59/52 50/63/56
f 49/59/52 51/64/57 50/63/56
f 51/64/57 49/59/52 32/41/34
f 32/41/34 49/59/52 31/39/32
f 31/39/32 49/59/52 35/43/36
f 46/61/54 49/59/52 52/62/55
f 46/65/15 52/66/15 9/67/15
f 52/66/15 50/68/15 9/67/15
f 50/63/56 51/64/57 53/69/58
f 51/64/57 32/41/34 53/69/58
f 53/69/58 54/70/59 14/71/60
f 54/70/59 53/69/58 25/34/27
f 53/69/58 28/36/29 25/34/27
f 55/72/61 53/69/58 14/71/60
f 50/63/56 53/69/58 55/72/61
f 32/41/34 28/36/29 53/69/58
f 55/73/15 14/16/15 11/74/15
f 50/68/15 55/73/15 11/74/15
f 14/71/60 54/70/59 19/28/21
f 54/70/59 25/34/27 19/28/21
f 9/67/15 50/68/15 10/75/15
f 50/68/15 11/74/15 10/75/15
f 47/76/15 45/77/15 7/78/15
f 42/52/45 43/53/46 47/55/48
f 56/79/62 42/52/45 47/55/48
f 56/80/15 47/76/15 5/81/15
f 5/81/15 47/76/15 6/82/15
f 6/82/15 47/76/15 7/78/15
f 57/83/15 56/80/15 5/81/15
f 57/84/63 42/52/45 56/79/62
f 58/85/64 42/52/45 57/84/63
f 58/85/64 57/84/63 17/22/17
f 17/22/17 57/84/63 18/24/19
f 18/25/15 57/83/15 2/26/15
f 2/26/15 57/83/15 4/86/15
f 4/86/15 57/83/15 5/81/15
f 17/22/17 59/87/65 58/85/64
f 59/87/65 42/52/45 58/85/64
f 40/49/42 59/87/65 60/88/66
f 40/49/42 42/52/45 59/87/65
f 22/30/23 59/87/65 17/22/17
f 60/88/66 59/87/65 22/30/23
f 61/89/67 60/88/66 22/30/23
f 39/50/43 40/49/42 60/88/66
f 61/89/67 22/30/23 23/31/24
f 45/77/15 46/65/15 7/78/15
f 7/78/15 46/65/15 8/90/15
f 8/90/15 46/65/15 9/67/15
f 14/71/60 19/28/21 15/27/20
f 11/74/15 14/16/15 12/15/15
f 62/91/68 64/92/69 63/93/68
f 66/94/70 62/91/68 63/93/68
f 64/95/71 62/96/71 67/97/71
f 65/98/70 62/91/68 66/94/70
f 62/96/71 65/99/71 67/97/71
f 68/100/72 67/101/73 69/102/74
f 68/103/71 72/104/71 67/97/71
f 69/102/74 67/101/73 70/105/73
f 67/101/73 71/106/75 70/105/73
f 67/97/71 75/107/71 71/108/71
f 72/104/71 73/109/71 67/97/71
f 73/109/71 64/95/71 67/97/71
f 65/99/71 74/110/71 67/97/71
f 74/110/71 75/107/71 67/97/71
f 71/106/75 75/111/76 76/112/77
f 76/112/77 75/111/76 77/113/76
f 75/111/76 74/114/78 77/113/76
f 76/115/15 77/116/15 79/117/15
f 77/113/76 74/114/78 78/118/79
f 77/116/15 78/119/15 79/117/15
f 80/120/80 72/121/81 79/122/82
f 79/117/15 83/123/15 80/124/15
f 72/125/83 81/126/84 79/127/85
f 79/127/85 81/126/84 82/128/86
f 82/129/15 70/130/15 79/117/15
f 70/130/15 76/115/15 79/117/15
f 78/119/15 66/131/15 79/117/15
f 66/131/15 63/132/15 79/117/15
f 63/132/15 83/123/15 79/117/15
f 63/93/68 64/92/69 83/133/69
f 64/92/69 73/134/80 83/133/69
f 83/133/69 73/134/80 80/120/80
f 81/126/84 84/135/87 82/128/86
f 82/128/86 84/135/87 85/136/88
f 85/137/15 70/130/15 82/129/15
f 84/135/87 68/100/72 85/136/88
f 85/136/88 68/100/72 69/102/74
f 69/138/15 70/130/15 85/137/15
f 81/139/71 72/104/71 84/140/71
f 84/140/71 72/104/71 68/103/71
f 73/134/80 72/121/81 80/120/80
f 74/114/78 65/98/70 78/118/79
f 78/118/79 65/98/70 66/94/70
f 70/105/73 71/106/75 76/112/77
f 86/141/68 88/142/68 87/143/68
f 87/144/89 89/145/90 86/146/91
f 90/147/89 89/145/90 87/144/89
f 89/148/72 90/149/92 91/150/92
f 92/151/93 88/152/94 91/153/94
f 91/150/92 90/149/92 92/154/92
f 93/155/95 88/152/94 92/151/93
f 94/156/96 93/155/95 92/151/93
f 92/154/92 90/149/92 94/157/92
f 95/158/97 93/155/95 94/156/96
f 96/159/98 95/158/97 94/156/96
f 94/157/92 90/149/92 96/160/92
f 97/161/99 95/158/97 96/159/98
f 98/162/100 97/161/99 96/159/98
f 96/160/92 90/149/92 98/163/92
f 99/164/101 97/161/99 98/162/100
f 100/165/102 99/164/101 98/162/100
f 98/163/92 90/149/92 100/166/72
f 101/167/103 99/164/101 100/165/102
f 102/168/104 101/167/103 100/165/102
f 100/166/72 90/149/92 102/169/72
f 103/170/105 101/167/103 102/168/104
f 104/171/106 103/170/105 102/168/104
f 90/149/92 104/172/72 102/169/72
f 103/170/105 104/171/106 105/173/107
f 104/171/106 106/174/108 105/173/107
f 90/149/92 106/175/72 104/172/72
f 105/173/107 106/174/108 107/176/109
f 106/174/108 90/147/89 107/176/109
f 87/143/68 93/177/68 107/178/68
f 107/176/109 90/147/89 87/144/89
f 107/178/68 93/177/68 105/179/68
f 105/179/68 93/177/68 103/180/68
f 103/180/68 93/177/68 101/181/68
f 101/181/68 93/177/68 99/182/68
f 99/182/68 93/177/68 97/183/110
f 93/177/68 95/184/110 97/183/110
f 88/142/68 93/177/68 87/143/68
