# Blender 5.1.0
# www.blender.org
mtllib sidegun3v.mtl
o body2_model0.1184
v 117.068192 -12.042358 -397.317383
v 122.922935 -10.473145 -397.323242
v 116.969872 -11.402466 -455.118652
v 126.002670 -15.953125 -182.445068
v 117.437820 -18.248169 -182.439941
v 111.214890 -10.473145 -397.302979
v 108.874413 -15.953125 -182.415283
v 111.329941 -9.891113 -455.104248
v 106.929001 -6.187256 -397.279297
v 107.201485 -5.762695 -455.082275
v 105.690010 -0.122681 -455.058838
v 105.359856 -0.334106 -397.255371
v 102.604744 -9.683228 -182.381592
v 100.309563 -1.120117 -182.347412
v 102.976982 -10.474243 34.084473
v 109.245201 -16.744141 34.051025
v 117.810051 -19.039062 34.028320
v 126.373459 -16.744141 34.022949
v 132.643127 -10.474243 34.033203
v 134.938309 -1.911133 34.061279
v 132.272629 -9.683228 -182.432861
v 134.566086 -1.120117 -182.406494
v 127.208817 -6.187378 -397.314453
v 122.608360 -9.891113 -455.123779
v 126.737106 -5.762451 -455.114746
v 128.777954 -0.334106 -397.295898
v 128.248291 -0.122681 -455.097900
v 127.209106 5.520752 -397.271973
v 132.272629 7.444702 -182.370361
v 126.002670 13.714722 -182.336182
v 126.373749 12.923706 34.129883
v 132.643127 6.653687 34.095703
v 117.810341 15.218628 34.154053
v 109.245491 12.923706 34.159424
v 117.437820 16.009644 -182.314453
v 108.874413 13.714722 -182.308105
v 117.068481 11.375610 -397.233398
v 122.923225 9.806519 -397.247803
v 126.737106 5.517212 -455.074463
v 122.608360 9.645996 -455.051514
v 116.969872 11.155640 -455.037109
v 124.433838 7.345337 -455.941650
v 119.700157 10.078369 -455.922363
v 121.981506 4.893555 -456.021484
v 118.803711 6.728638 -456.008789
v 114.235252 10.078369 -455.912842
v 115.132851 6.728638 -456.002441
v 109.503304 7.345215 -455.915771
v 111.329941 9.645996 -455.031738
v 111.215179 9.806519 -397.227783
v 106.929291 5.520752 -397.236816
v 107.201485 5.517212 -455.040527
v 106.770126 2.613159 -455.927734
v 111.955063 4.893311 -456.003662
v 110.119774 1.715576 -456.011963
v 106.770126 -2.851440 -455.948242
v 110.119774 -1.955322 -456.025635
v 109.503304 -7.585449 -455.969482
v 111.955063 -5.133179 -456.040771
v 114.235252 -10.316895 -455.986816
v 115.132851 -6.968506 -456.053223
v 119.700157 -10.316895 -455.996338
v 118.803711 -6.968506 -456.059082
v 124.433838 -7.585449 -455.995361
v 121.981506 -5.133179 -456.058350
v 127.165283 -2.851440 -455.983643
v 123.816788 -1.955322 -456.049561
v 127.165283 2.613159 -455.962891
v 123.816788 1.715576 -456.035889
v 123.823402 2.532593 -174.708496
v 121.130013 5.224365 -174.694336
v 117.451088 6.211426 -174.683838
v 117.451088 -8.505859 -174.737549
v 121.130013 -7.520386 -174.740967
v 113.772156 -7.520386 -174.728271
v 111.078484 -4.826904 -174.713867
v 110.093224 -1.148071 -174.698242
v 111.078484 2.532593 -174.686279
v 113.772156 5.224365 -174.681641
v 124.808945 -1.147949 -174.724121
v 123.823402 -4.826904 -174.734863
v 102.604744 7.444702 -182.319092
v 102.976982 6.653687 34.146973
v 100.681793 -1.911133 34.120850
v -116.777298 -4.826904 -174.320312
v -116.790543 1.715454 -455.620117
v -115.792046 -1.148071 -174.308350
v -116.790543 -1.955322 -455.633789
v -119.470970 -7.520508 -174.325195
v -119.470970 5.224487 -174.279053
v -125.474480 6.728760 -455.586670
v -123.149902 6.211548 -174.268066
v -121.803909 6.728760 -455.593018
v -116.777298 2.532593 -174.292725
v -123.149902 -8.505859 -174.321777
v -126.828835 -7.520508 -174.312500
v -129.522217 -4.826904 -174.297119
v -130.507767 -1.148071 -174.282959
v -129.522217 2.532593 -174.270996
v -126.828835 5.224487 -174.266357
v -130.487854 1.715454 -455.596436
v -128.652557 4.893433 -455.588379
v -131.104309 7.345459 -455.500000
v -126.370354 10.078613 -455.497070
v -129.275665 9.645874 -454.615967
v -123.637466 11.155640 -454.621338
v -120.905731 10.078613 -455.506592
v -116.173492 7.345337 -455.525879
v -117.997536 9.645874 -454.635498
v -113.868790 5.517212 -454.658691
v -113.396782 5.520874 -396.856445
v -117.682663 9.806396 -396.832275
v -108.329803 7.444702 -181.954590
v -114.599754 13.714844 -181.922363
v -123.535683 11.375610 -396.817871
v -123.163170 16.009644 -181.898682
v -129.390717 9.806396 -396.812012
v -131.728012 13.714844 -181.890869
v -133.676315 5.520630 -396.821289
v -133.404404 5.517212 -454.624756
v -134.915588 -0.122559 -454.643066
v -133.835754 2.613281 -455.511963
v -133.835754 -2.851440 -455.532715
v -130.487854 -1.955322 -455.610107
v -128.652557 -5.133301 -455.625244
v -125.474480 -6.968506 -455.637207
v -131.104309 -7.585449 -455.553955
v -126.370354 -10.316772 -455.571045
v -129.275665 -9.891113 -454.688477
v -133.404404 -5.762573 -454.665039
v -135.245758 -0.334106 -396.839600
v -133.676605 -6.187378 -396.863525
v -140.291138 -1.119995 -181.931641
v -137.997971 -9.683228 -181.965820
v -129.390991 -10.473145 -396.887207
v -131.728012 -15.953247 -181.999512
v -123.537697 -12.042236 -396.901611
v -123.637466 -11.402466 -454.702881
v -117.682953 -10.473145 -396.907471
v -117.997536 -9.891113 -454.708008
v -120.905731 -10.316772 -455.580566
v -116.173492 -7.585449 -455.579590
v -118.625824 -5.133301 -455.642578
v -121.803909 -6.968506 -455.643555
v -113.440323 -2.851440 -455.567871
v -113.868790 -5.762573 -454.700684
v -113.397072 -6.187378 -396.898682
v -112.357605 -0.122559 -454.682129
v -111.827919 -0.334106 -396.880127
v -113.440323 2.613159 -455.547119
v -118.625824 4.893433 -455.605469
v -106.034904 -1.119995 -181.990723
v -108.329803 -9.683228 -182.017090
v -107.954399 -10.474243 34.448975
v -114.222626 -16.744263 34.437012
v -114.599754 -15.953247 -182.029297
v -122.787476 -19.039185 34.444336
v -123.163170 -18.248291 -182.024170
v -131.350601 -16.744263 34.468262
v -137.620544 -10.474243 34.500000
v -139.915741 -1.911011 34.536377
v -137.620544 6.653809 34.562744
v -137.997971 7.444824 -181.903320
v -131.350311 12.923706 34.575195
v -122.787186 15.218628 34.569824
v -114.222336 12.923706 34.545654
v -107.954399 6.653687 34.511475
v -105.659218 -1.911011 34.477051
vn 0.2587 -0.9657 -0.0224
vn 0.4999 -0.8658 -0.0204
vn 0.4999 -0.8659 -0.0166
vn 0.2589 -0.9658 -0.0111
vn -0.2586 -0.9658 -0.0188
vn -0.4210 -0.9069 -0.0188
vn -0.2589 -0.9659 -0.0102
vn 0.2588 -0.9659 -0.0121
vn -0.2588 -0.9657 -0.0192
vn -0.8462 -0.5327 -0.0155
vn -0.5000 -0.8659 -0.0149
vn -0.5750 -0.8181 -0.0094
vn -0.8660 -0.5000 -0.0078
vn -1.0000 -0.0000 -0.0057
vn -0.9984 -0.0534 -0.0166
vn -0.8660 -0.4999 -0.0129
vn -0.9999 -0.0000 -0.0109
vn -0.9071 -0.4210 -0.0000
vn -0.5751 -0.8181 -0.0020
vn -0.2588 -0.9659 -0.0031
vn 0.2588 -0.9659 -0.0040
vn 0.4210 -0.9071 -0.0040
vn 0.8181 -0.5751 -0.0035
vn 0.8660 -0.4999 -0.0159
vn 0.9960 -0.0889 -0.0020
vn 0.9999 -0.0000 -0.0143
vn 0.8658 -0.4999 -0.0197
vn 0.5750 -0.8181 -0.0115
vn 0.9070 -0.4209 -0.0107
vn 0.9998 -0.0000 -0.0181
vn 0.9960 0.0890 -0.0090
vn 0.8659 0.5000 -0.0160
vn 0.8660 0.4999 -0.0122
vn 0.4999 0.8660 -0.0103
vn 0.5750 0.8181 0.0020
vn 0.9071 0.4209 -0.0000
vn 0.0890 0.9960 0.0035
vn -0.0000 1.0000 -0.0089
vn -0.4209 0.9071 0.0040
vn -0.5000 0.8660 -0.0086
vn -0.0001 0.9999 -0.0127
vn 0.4999 0.8660 -0.0140
vn 0.8181 0.5751 -0.0069
vn 0.4209 0.9071 -0.0050
vn 0.7370 0.4280 -0.5231
vn 0.2902 0.2936 -0.9108
vn 0.4251 0.7400 -0.5213
vn -0.0890 0.9960 -0.0038
vn 0.1060 0.4006 -0.9101
vn -0.0009 0.8540 -0.5203
vn 0.0021 0.0253 -0.9997
vn 0.0126 0.0204 -0.9997
vn -0.1070 0.4011 -0.9098
vn -0.0092 0.0243 -0.9997
vn -0.2917 0.2951 -0.9099
vn -0.4269 0.7399 -0.5200
vn -0.5751 0.8181 -0.0036
vn -0.5000 0.8659 -0.0123
vn -0.8844 0.4665 -0.0118
vn -0.8660 0.5000 -0.0041
vn -0.7387 0.4280 -0.5206
vn -0.3987 0.1109 -0.9103
vn -0.8527 0.0019 -0.5224
vn -0.0233 0.0075 -0.9997
vn -0.0185 0.0178 -0.9997
vn -0.3993 -0.1021 -0.9111
vn -0.2933 -0.2867 -0.9120
vn -0.0223 -0.0038 -0.9997
vn -0.7388 -0.4241 -0.5237
vn -0.0159 -0.0131 -0.9998
vn -0.1093 -0.3939 -0.9126
vn -0.4268 -0.7359 -0.5256
vn -0.0055 -0.0180 -0.9998
vn 0.1040 -0.3944 -0.9130
vn -0.0009 -0.8501 -0.5267
vn 0.0056 -0.0171 -0.9998
vn 0.2886 -0.2885 -0.9130
vn 0.4253 -0.7359 -0.5269
vn 0.0151 -0.0106 -0.9998
vn 0.3956 -0.1041 -0.9125
vn 0.7367 -0.4242 -0.5265
vn 0.0199 -0.0001 -0.9998
vn 0.3962 0.1088 -0.9117
vn 0.8510 0.0019 -0.5252
vn 0.0189 0.0111 -0.9998
vn -0.9404 -0.3400 0.0037
vn -0.9054 -0.4246 -0.0016
vn -0.9964 0.0850 0.0004
vn -0.6445 -0.7646 0.0017
vn -0.5718 -0.8204 -0.0036
vn -0.0018 0.0036 -1.0000
vn -0.0017 0.0036 -1.0000
vn -0.0017 0.0037 -1.0000
vn -0.1758 -0.9844 -0.0000
vn 0.3825 0.9239 0.0036
vn 0.5001 0.8660 0.0006
vn 0.5718 0.8204 0.0004
vn -0.2587 0.9659 0.0074
vn -0.3400 0.9404 0.0074
vn -0.1304 0.9915 0.0047
vn -0.0019 0.0035 -1.0000
vn -0.0014 0.0035 -1.0000
vn -0.0015 0.0040 -1.0000
vn -0.0014 0.0038 -1.0000
vn 0.6445 0.7646 0.0050
vn -0.0018 0.0037 -1.0000
vn -0.0016 0.0036 -1.0000
vn -0.7646 0.6444 0.0069
vn -0.4246 0.9054 0.0024
vn -0.8204 0.5718 0.0019
vn -0.9844 0.1758 0.0057
vn 0.3400 -0.9404 -0.0007
vn -0.0850 -0.9964 -0.0051
vn 0.4246 -0.9054 -0.0057
vn 0.7646 -0.6445 -0.0004
vn 0.8204 -0.5718 -0.0051
vn 0.9844 -0.1758 0.0010
vn 0.9964 -0.0850 -0.0037
vn 0.9404 0.3399 0.0029
vn 0.9054 0.4246 -0.0016
vn -0.8660 0.5000 -0.0093
vn -0.8181 0.5751 0.0035
vn -0.9960 0.0890 0.0020
vn -0.9054 0.4246 0.0031
vn -0.9404 0.3399 0.0047
vn -0.9964 -0.0850 0.0015
vn -0.9844 -0.1758 0.0029
vn -0.0016 0.0037 -1.0000
vn -0.0019 0.0036 -1.0000
vn -0.6444 0.7646 0.0057
vn -0.0014 0.0036 -1.0000
vn -0.4246 -0.9054 -0.0026
vn -0.3400 -0.9404 -0.0010
vn 0.0850 -0.9964 -0.0038
vn 0.1758 -0.9844 -0.0021
vn -0.0017 0.0035 -1.0000
vn -0.0017 0.0041 -1.0000
vn -0.7646 -0.6444 0.0008
vn -0.0012 0.0037 -1.0000
vn -0.0014 0.0037 -1.0000
vn -0.0018 0.0035 -1.0000
vn 0.5718 -0.8204 -0.0040
vn 0.6445 -0.7646 -0.0021
vn 0.9054 -0.4246 -0.0031
vn 0.9404 -0.3400 -0.0011
vn -0.2926 0.2945 -0.9097
vn -0.0159 0.0205 -0.9997
vn -0.0223 0.0110 -0.9997
vn -0.1082 0.4009 -0.9097
vn -0.0056 0.0253 -0.9997
vn -0.4272 0.7399 -0.5196
vn -0.0008 0.8540 -0.5203
vn 0.1049 0.4009 -0.9101
vn 0.0058 0.0243 -0.9997
vn 0.2887 0.2952 -0.9108
vn 0.4254 0.7399 -0.5211
vn 0.7371 0.4280 -0.5230
vn 0.8660 0.5000 -0.0071
vn 0.5750 0.8181 -0.0054
vn 0.8844 0.4665 -0.0149
vn 0.4999 0.8659 -0.0141
vn 0.0889 0.9960 -0.0039
vn 0.8659 0.5000 -0.0123
vn 0.5000 0.8660 -0.0103
vn -0.0000 0.9999 -0.0127
vn -0.4210 0.9071 -0.0034
vn -0.5000 0.8660 -0.0085
vn -0.8659 0.5000 -0.0130
vn -0.8181 0.5751 -0.0039
vn -0.7390 0.4279 -0.5203
vn -0.9960 0.0890 -0.0053
vn -0.3993 0.1088 -0.9103
vn -0.8529 0.0019 -0.5220
vn -0.3989 -0.1042 -0.9111
vn -0.0236 -0.0001 -0.9997
vn -0.0213 -0.0077 -0.9997
vn 0.9964 0.0850 -0.0014
vn 0.9844 0.1758 0.0007
vn 0.8204 0.5718 0.0007
vn -0.2925 -0.2877 -0.9120
vn -0.0092 -0.0171 -0.9998
vn 0.7646 0.6445 0.0029
vn 0.4246 0.9054 0.0026
vn -0.1072 -0.3944 -0.9127
vn -0.4270 -0.7359 -0.5255
vn -0.7387 -0.4243 -0.5238
vn -0.9071 -0.4209 -0.0074
vn -0.9999 -0.0000 -0.0146
vn -0.8659 -0.4999 -0.0167
vn -0.5751 -0.8180 -0.0094
vn -0.9999 -0.0000 -0.0108
vn -0.5000 -0.8658 -0.0186
vn -0.2588 -0.9657 -0.0215
vn -0.2589 -0.9658 -0.0102
vn 0.4209 -0.9069 -0.0207
vn 0.2588 -0.9657 -0.0198
vn 0.2588 -0.9659 -0.0111
vn 0.1061 -0.3938 -0.9131
vn 0.4250 -0.7359 -0.5271
vn 0.2901 -0.2870 -0.9129
vn 0.0126 -0.0131 -0.9998
vn 0.0023 -0.0180 -0.9998
vn -0.5001 0.8660 0.0023
vn -0.3825 0.9239 0.0049
vn -0.5718 0.8204 0.0040
vn 0.3400 0.9404 0.0047
vn 0.2587 0.9659 0.0065
vn 0.1304 0.9915 0.0043
vn 0.0191 -0.0037 -0.9998
vn 0.3963 -0.1021 -0.9124
vn 0.7371 -0.4241 -0.5261
vn 0.8660 -0.5000 -0.0107
vn 0.8461 -0.5327 -0.0185
vn 1.0000 -0.0000 -0.0092
vn 0.8512 0.0019 -0.5249
vn 0.3958 0.1109 -0.9116
vn 0.9984 -0.0535 -0.0200
vn 0.0151 0.0178 -0.9997
vn 0.0200 0.0076 -0.9998
vn -0.8204 -0.5718 -0.0006
vn 0.8659 -0.4999 -0.0159
vn 0.9071 -0.4210 -0.0031
vn 0.5750 -0.8181 -0.0040
vn 0.5000 -0.8659 -0.0166
vn 0.2588 -0.9657 -0.0201
vn 0.2589 -0.9659 -0.0040
vn -0.2588 -0.9659 -0.0112
vn -0.4210 -0.9071 -0.0026
vn -0.2589 -0.9659 -0.0031
vn -0.8181 -0.5751 -0.0006
vn -0.9960 -0.0889 0.0014
vn -0.9071 0.4210 0.0030
vn -0.8660 0.4999 -0.0092
vn -0.5750 0.8182 0.0040
vn -0.0889 0.9960 0.0038
vn 0.4210 0.9071 0.0027
vn 0.8181 0.5750 0.0007
vn 0.9960 0.0890 -0.0014
vt 0.916053 0.395333
vt 0.921399 0.395243
vt 0.916892 0.198120
vt 0.916486 0.447960
vt 0.989270 0.395265
vt 0.983925 0.395203
vt 0.988858 0.447910
vt 0.909081 0.198263
vt 0.993800 0.198132
vt 0.978098 0.395207
vt 0.985985 0.198036
vt 0.983521 0.447864
vt 0.977832 0.447862
vt 0.971612 0.447862
vt 0.971699 0.395207
vt 0.978650 0.198036
vt 0.971886 0.198035
vt 0.978925 0.004703
vt 0.986403 0.004711
vt 0.994223 0.004779
vt 0.908607 0.004885
vt 0.916431 0.004797
vt 0.924266 0.004705
vt 0.924697 0.198027
vt 0.931751 0.004696
vt 0.932027 0.198028
vt 0.926749 0.395191
vt 0.921832 0.447906
vt 0.927170 0.447852
vt 0.932578 0.395197
vt 0.932856 0.447853
vt 0.938977 0.395199
vt 0.938790 0.198029
vt 0.945429 0.198030
vt 0.945392 0.004696
vt 0.938696 0.004695
vt 0.952023 0.004694
vt 0.952034 0.198028
vt 0.958654 0.004695
vt 0.958641 0.198030
vt 0.952060 0.395200
vt 0.945502 0.395201
vt 0.939076 0.447854
vt 0.945544 0.447857
vt 0.905617 0.447699
vt 0.900955 0.450434
vt 0.898221 0.455095
vt 0.952077 0.447856
vt 0.892816 0.455133
vt 0.888117 0.457802
vt 0.891822 0.451198
vt 0.898128 0.447523
vt 0.883418 0.455133
vt 0.884524 0.451229
vt 0.875278 0.450435
vt 0.878013 0.455096
vt 0.958610 0.447857
vt 0.958616 0.395202
vt 0.965174 0.395205
vt 0.965144 0.447862
vt 0.870616 0.447701
vt 0.870578 0.442296
vt 0.867908 0.437597
vt 0.874513 0.441303
vt 0.878188 0.447607
vt 0.870578 0.432899
vt 0.875277 0.424760
vt 0.874482 0.434006
vt 0.870615 0.427495
vt 0.878104 0.427672
vt 0.883416 0.420062
vt 0.878012 0.420099
vt 0.884410 0.423997
vt 0.892815 0.420062
vt 0.888115 0.417392
vt 0.891708 0.423965
vt 0.900954 0.424760
vt 0.898219 0.420099
vt 0.898044 0.427587
vt 0.905654 0.432898
vt 0.905616 0.427494
vt 0.901720 0.433891
vt 0.905654 0.442295
vt 0.908324 0.437597
vt 0.901751 0.441188
vt 0.833094 0.275539
vt 0.832410 0.009583
vt 0.823818 0.009583
vt 0.841804 0.275573
vt 0.841037 0.009583
vt 0.128860 0.742166
vt 0.125433 0.738738
vt 0.133543 0.724691
vt 0.850451 0.275607
vt 0.133543 0.743421
vt 0.901824 0.275834
vt 0.902332 0.009583
vt 0.893651 0.009583
vt 0.798171 0.275392
vt 0.806862 0.275430
vt 0.797996 0.009583
vt 0.125433 0.729374
vt 0.128861 0.725946
vt 0.138225 0.725946
vt 0.141653 0.729374
vt 0.893181 0.275794
vt 0.142908 0.734056
vt 0.141653 0.738739
vt 0.138225 0.742167
vt 0.124178 0.734056
vt 0.815595 0.275467
vt 0.806631 0.009583
vt 0.815232 0.009583
vt 0.824346 0.275504
vt 0.859024 0.275640
vt 0.849727 0.009583
vt 0.858490 0.009583
vt 0.867544 0.275676
vt 0.867303 0.009583
vt 0.876042 0.275713
vt 0.876134 0.009583
vt 0.884575 0.275753
vt 0.884930 0.009583
vt 0.965247 0.198034
vt 0.965285 0.004700
vt 0.971980 0.004701
vt 0.124097 0.734071
vt 0.125352 0.729389
vt 0.128779 0.742182
vt 0.128779 0.725961
vt 0.138144 0.742182
vt 0.133461 0.743436
vt 0.125351 0.738754
vt 0.133462 0.724707
vt 0.138144 0.725961
vt 0.141572 0.729389
vt 0.142826 0.734072
vt 0.141572 0.738754
s 1
usemtl AGS010_5in38_Mk32_Mod12_a
f 1/1/1 2/2/2 4/3/3
f 1/1/1 3/4/4 2/2/2
f 1/5/5 6/6/6 3/7/7
f 5/8/8 1/1/1 4/3/3
f 6/6/6 1/5/5 5/9/9
f 9/10/10 6/6/6 7/11/11
f 7/11/11 6/6/6 5/9/9
f 6/6/6 8/12/12 3/7/7
f 6/6/6 9/10/10 8/12/12
f 9/10/10 10/13/13 8/12/12
f 11/14/14 10/13/13 9/10/10
f 12/15/15 11/14/14 9/10/10
f 12/15/15 9/10/10 13/16/16
f 13/16/16 9/10/10 7/11/11
f 14/17/17 12/15/15 13/16/16
f 14/17/17 13/16/16 15/18/18
f 15/18/18 13/16/16 16/19/19
f 13/16/16 7/11/11 16/19/19
f 16/19/19 7/11/11 17/20/20
f 17/21/21 5/8/8 18/22/22
f 7/11/11 5/9/9 17/20/20
f 18/22/22 4/3/3 19/23/23
f 5/8/8 4/3/3 18/22/22
f 19/23/23 21/24/24 20/25/25
f 4/3/3 21/24/24 19/23/23
f 21/24/24 22/26/26 20/25/25
f 21/24/24 23/27/27 22/26/26
f 2/2/2 23/27/27 21/24/24
f 4/3/3 2/2/2 21/24/24
f 2/2/2 24/28/28 23/27/27
f 24/28/28 25/29/29 23/27/27
f 23/27/27 25/29/29 26/30/30
f 23/27/27 26/30/30 22/26/26
f 25/29/29 27/31/31 26/30/30
f 26/30/30 27/31/31 28/32/32
f 26/30/30 28/32/32 29/33/33
f 22/26/26 26/30/30 29/33/33
f 29/33/33 30/34/34 31/35/35
f 29/33/33 28/32/32 30/34/34
f 22/26/26 29/33/33 32/36/36
f 32/36/36 29/33/33 31/35/35
f 20/25/25 22/26/26 32/36/36
f 31/35/35 30/34/34 33/37/37
f 33/37/37 35/38/38 34/39/39
f 30/34/34 35/38/38 33/37/37
f 35/38/38 36/40/40 34/39/39
f 35/38/38 37/41/41 36/40/40
f 38/42/42 37/41/41 35/38/38
f 30/34/34 38/42/42 35/38/38
f 28/32/32 38/42/42 30/34/34
f 28/32/32 39/43/43 38/42/42
f 39/43/43 40/44/44 38/42/42
f 38/42/42 40/44/44 37/41/41
f 39/45/45 42/46/46 40/47/47
f 40/44/44 41/48/48 37/41/41
f 40/47/47 43/49/49 41/50/50
f 40/47/47 42/46/46 43/49/49
f 45/51/51 43/49/49 44/52/52
f 43/49/49 42/46/46 44/52/52
f 46/53/53 43/49/49 45/51/51
f 41/50/50 43/49/49 46/53/53
f 47/54/54 46/53/53 45/51/51
f 48/55/55 46/53/53 47/54/54
f 49/56/56 46/53/53 48/55/55
f 41/50/50 46/53/53 49/56/56
f 41/48/48 49/57/57 50/58/58
f 50/58/58 49/57/57 51/59/59
f 49/57/57 52/60/60 51/59/59
f 48/55/55 52/61/61 49/56/56
f 51/59/59 52/60/60 11/14/14
f 53/62/62 11/63/63 52/61/61
f 52/61/61 48/55/55 53/62/62
f 55/64/64 53/62/62 54/65/65
f 53/62/62 48/55/55 54/65/65
f 56/66/66 53/62/62 55/64/64
f 11/63/63 53/62/62 56/66/66
f 58/67/67 56/66/66 57/68/68
f 57/68/68 56/66/66 55/64/64
f 10/69/69 56/66/66 58/67/67
f 56/66/66 10/69/69 11/63/63
f 59/70/70 58/67/67 57/68/68
f 60/71/71 58/67/67 59/70/70
f 8/72/72 58/67/67 60/71/71
f 58/67/67 8/72/72 10/69/69
f 61/73/73 60/71/71 59/70/70
f 62/74/74 60/71/71 61/73/73
f 3/75/75 60/71/71 62/74/74
f 8/72/72 60/71/71 3/75/75
f 63/76/76 62/74/74 61/73/73
f 64/77/77 62/74/74 63/76/76
f 24/78/78 62/74/74 64/77/77
f 3/75/75 62/74/74 24/78/78
f 65/79/79 64/77/77 63/76/76
f 66/80/80 64/77/77 65/79/79
f 25/81/81 64/77/77 66/80/80
f 24/78/78 64/77/77 25/81/81
f 67/82/82 66/80/80 65/79/79
f 68/83/83 66/80/80 67/82/82
f 27/84/84 66/80/80 68/83/83
f 25/81/81 66/80/80 27/84/84
f 69/85/85 68/83/83 67/82/82
f 42/46/46 68/83/83 69/85/85
f 39/45/45 68/83/83 42/46/46
f 27/84/84 68/83/83 39/45/45
f 70/86/86 69/87/87 67/88/88
f 44/52/52 42/46/46 69/85/85
f 71/89/89 44/90/90 69/87/87
f 70/86/86 71/89/89 69/87/87
f 71/91/91 70/92/92 73/93/93
f 71/89/89 72/94/94 44/90/90
f 72/95/92 71/91/91 73/93/93
f 73/96/95 61/97/96 59/98/97
f 73/99/98 74/100/99 61/101/100
f 81/102/101 74/103/102 73/93/93
f 75/104/103 76/105/104 73/93/93
f 75/106/105 73/96/95 59/98/97
f 76/105/104 77/107/106 73/93/93
f 77/107/106 78/108/92 73/93/93
f 78/108/92 79/109/107 73/93/93
f 79/109/107 72/95/92 73/93/93
f 70/92/92 80/110/92 73/93/93
f 80/110/92 81/102/101 73/93/93
f 74/100/99 81/111/108 63/112/109
f 81/111/108 65/113/110 63/112/109
f 81/111/108 80/114/111 65/113/110
f 80/114/111 67/88/88 65/113/110
f 80/114/111 70/86/86 67/88/88
f 72/94/94 79/115/112 45/116/113
f 79/115/112 47/117/114 45/116/113
f 79/115/112 78/118/115 47/117/114
f 78/118/115 54/119/116 47/117/114
f 78/118/115 77/120/117 54/119/116
f 77/120/117 55/121/118 54/119/116
f 77/120/117 76/122/119 55/121/118
f 76/122/119 57/123/120 55/121/118
f 76/122/119 75/106/105 57/123/120
f 75/106/105 59/98/97 57/123/120
f 74/100/99 63/112/109 61/101/100
f 72/94/94 45/116/113 44/90/90
f 54/65/65 48/55/55 47/54/54
f 12/15/15 51/59/59 11/14/14
f 50/58/58 51/59/59 82/124/121
f 82/124/121 51/59/59 14/17/17
f 51/59/59 12/15/15 14/17/17
f 36/40/40 50/58/58 82/124/121
f 36/40/40 82/124/121 83/125/122
f 83/125/122 82/124/121 84/126/123
f 82/124/121 14/17/17 84/126/123
f 84/126/123 14/17/17 15/18/18
f 34/39/39 36/40/40 83/125/122
f 37/41/41 50/58/58 36/40/40
f 37/41/41 41/48/48 50/58/58
f 27/31/31 39/43/43 28/32/32
f 3/4/4 24/28/28 2/2/2
f 88/123/124 85/122/125 86/121/126
f 85/122/125 87/120/127 86/121/126
f 87/127/128 85/128/129 90/129/93
f 89/106/130 85/122/125 88/123/124
f 85/128/129 89/130/131 90/129/93
f 93/117/132 90/115/133 91/116/134
f 90/115/133 92/94/135 91/116/134
f 100/131/136 92/132/137 90/129/93
f 94/118/138 90/115/133 93/117/132
f 94/133/139 87/127/128 90/129/93
f 89/130/131 95/134/107 90/129/93
f 95/134/107 96/135/106 90/129/93
f 96/135/106 97/136/140 90/129/93
f 97/136/140 98/137/141 90/129/93
f 98/137/141 99/138/106 90/129/93
f 99/138/106 100/131/136 90/129/93
f 102/90/142 100/89/143 101/87/144
f 100/89/143 99/86/145 101/87/144
f 92/94/135 100/89/143 102/90/142
f 103/46/146 102/52/147 101/85/148
f 91/116/134 92/94/135 102/90/142
f 104/49/149 91/51/150 102/52/147
f 103/46/146 104/49/149 102/52/147
f 103/46/146 105/47/151 104/49/149
f 104/49/149 105/47/151 106/50/152
f 104/49/149 106/50/152 107/53/153
f 104/49/149 107/53/153 91/51/150
f 107/53/153 93/54/154 91/51/150
f 107/53/153 108/55/155 93/54/154
f 107/53/153 109/56/156 108/55/155
f 107/53/153 106/50/152 109/56/156
f 110/61/157 108/55/155 109/56/156
f 110/60/158 109/57/159 111/59/160
f 109/57/159 112/58/161 111/59/160
f 109/57/159 106/48/162 112/58/161
f 111/59/160 112/58/161 113/124/163
f 112/58/161 114/40/164 113/124/163
f 112/58/161 115/41/165 114/40/164
f 106/48/162 115/41/165 112/58/161
f 115/41/165 116/38/38 114/40/164
f 115/41/165 117/42/58 116/38/38
f 105/44/166 117/42/58 115/41/165
f 106/48/162 105/44/166 115/41/165
f 117/42/58 118/34/167 116/38/38
f 117/42/58 119/32/168 118/34/167
f 120/43/169 119/32/168 117/42/58
f 105/44/166 120/43/169 117/42/58
f 103/46/146 120/45/170 105/47/151
f 120/43/169 121/31/171 119/32/168
f 122/83/172 121/84/173 120/45/170
f 122/83/172 120/45/170 103/46/146
f 123/80/174 122/83/172 124/82/175
f 123/80/174 121/84/173 122/83/172
f 122/83/172 103/46/146 101/85/148
f 122/83/172 101/85/148 124/82/175
f 123/80/174 124/82/175 125/79/176
f 124/88/177 98/114/178 125/113/179
f 99/86/145 98/114/178 124/88/177
f 101/87/144 99/86/145 124/88/177
f 127/77/180 125/79/176 126/76/181
f 125/113/179 97/111/182 126/112/183
f 98/114/178 97/111/182 125/113/179
f 127/77/180 123/80/174 125/79/176
f 128/74/184 127/77/180 126/76/181
f 128/74/184 129/78/185 127/77/180
f 127/77/180 129/78/185 130/81/186
f 127/77/180 130/81/186 123/80/174
f 123/80/174 130/81/186 121/84/173
f 121/31/171 130/29/187 131/30/188
f 130/29/187 132/27/189 131/30/188
f 130/29/187 129/28/190 132/27/189
f 131/30/188 132/27/189 133/26/191
f 132/27/189 134/24/16 133/26/191
f 132/27/189 135/2/192 134/24/16
f 129/28/190 135/2/192 132/27/189
f 135/2/192 136/3/11 134/24/16
f 135/2/192 137/1/193 136/3/11
f 138/4/194 137/1/193 135/2/192
f 129/28/190 138/4/194 135/2/192
f 128/74/184 138/75/75 129/78/185
f 139/6/195 137/5/196 138/7/197
f 140/12/28 139/6/195 138/7/197
f 141/71/198 140/72/199 138/75/75
f 141/71/198 138/75/75 128/74/184
f 142/67/200 141/71/198 143/70/201
f 142/67/200 140/72/199 141/71/198
f 141/71/198 128/74/184 144/73/202
f 141/71/198 144/73/202 143/70/201
f 144/97/203 95/96/204 143/98/205
f 96/100/206 95/99/207 144/101/208
f 126/112/183 96/100/206 144/101/208
f 128/74/184 126/76/181 144/73/202
f 142/67/200 143/70/201 88/68/209
f 143/98/205 89/106/130 88/123/124
f 95/96/204 89/106/130 143/98/205
f 145/66/210 142/67/200 88/68/209
f 145/66/210 146/69/211 142/67/200
f 140/72/199 142/67/200 146/69/211
f 146/13/212 147/10/213 140/12/28
f 146/13/212 148/14/214 147/10/213
f 146/69/211 145/66/210 148/63/215
f 148/63/215 150/62/216 110/61/157
f 110/60/158 111/59/160 148/14/214
f 111/59/160 149/15/217 148/14/214
f 148/14/214 149/15/217 147/10/213
f 150/62/216 148/63/215 145/66/210
f 108/55/155 110/61/157 150/62/216
f 108/55/155 150/62/216 151/65/218
f 150/62/216 86/64/219 151/65/218
f 150/62/216 145/66/210 86/64/219
f 108/55/155 151/65/218 93/54/154
f 151/119/220 94/118/138 93/117/132
f 87/120/127 94/118/138 151/119/220
f 86/121/126 87/120/127 151/119/220
f 147/10/213 149/15/217 153/16/221
f 149/15/217 111/59/160 152/17/26
f 149/15/217 152/17/26 153/16/221
f 153/16/221 154/18/222 155/19/223
f 153/16/221 152/17/26 154/18/222
f 156/11/224 153/16/221 155/19/223
f 147/10/213 153/16/221 156/11/224
f 156/11/224 155/19/223 157/20/21
f 158/9/225 156/11/224 157/20/226
f 139/6/195 156/11/224 158/9/225
f 139/6/195 147/10/213 156/11/224
f 137/5/196 139/6/195 158/9/225
f 137/1/193 158/8/227 136/3/11
f 136/3/11 158/8/227 159/22/228
f 158/8/227 157/21/229 159/22/228
f 136/3/11 159/22/228 160/23/230
f 134/24/16 136/3/11 160/23/230
f 134/24/16 160/23/230 161/25/231
f 133/26/191 134/24/16 161/25/231
f 133/26/191 161/25/231 162/36/232
f 163/33/233 133/26/191 162/36/232
f 163/33/233 162/36/232 164/35/234
f 118/34/167 163/33/233 164/35/234
f 118/34/167 164/35/234 165/37/235
f 116/38/38 118/34/167 165/37/235
f 116/38/38 165/37/235 166/39/236
f 114/40/164 116/38/38 166/39/236
f 114/40/164 166/39/236 167/125/237
f 113/124/163 167/125/237 168/126/238
f 113/124/163 114/40/164 167/125/237
f 152/17/26 168/126/238 154/18/222
f 152/17/26 113/124/163 168/126/238
f 119/32/168 131/30/188 163/33/233
f 119/32/168 163/33/233 118/34/167
f 131/30/188 133/26/191 163/33/233
f 111/59/160 113/124/163 152/17/26
f 147/10/213 139/6/195 140/12/28
f 145/66/210 88/68/209 86/64/219
f 121/31/171 131/30/188 119/32/168
f 97/111/182 96/100/206 126/112/183
